M48
; DRILL file {KiCad 7.0.1} date Thu Nov 30 10:22:49 2023
; FORMAT={-:-/ absolute / inch / decimal}
; #@! TF.CreationDate,2023-11-30T10:22:49+01:00
; #@! TF.GenerationSoftware,Kicad,Pcbnew,7.0.1
; #@! TF.FileFunction,MixedPlating,1,4
FMAT,2
INCH
; #@! TA.AperFunction,Plated,PTH,ComponentDrill
T1C0.0079
; #@! TA.AperFunction,Plated,PTH,ViaDrill
T2C0.0160
; #@! TA.AperFunction,Plated,PTH,ViaDrill
T3C0.0240
; #@! TA.AperFunction,Plated,PTH,ComponentDrill
T4C0.0276
; #@! TA.AperFunction,Plated,PTH,ViaDrill
T5C0.0300
; #@! TA.AperFunction,Plated,PTH,ComponentDrill
T6C0.0315
; #@! TA.AperFunction,Plated,PTH,ComponentDrill
T7C0.0394
; #@! TA.AperFunction,Plated,PTH,ComponentDrill
T8C0.0433
; #@! TA.AperFunction,Plated,PTH,ComponentDrill
T9C0.0472
; #@! TA.AperFunction,Plated,PTH,ComponentDrill
T10C0.0512
; #@! TA.AperFunction,Plated,PTH,ComponentDrill
T11C0.0551
; #@! TA.AperFunction,Plated,PTH,ComponentDrill
T12C0.1063
; #@! TA.AperFunction,Plated,PTH,ComponentDrill
T13C0.1260
; #@! TA.AperFunction,Plated,PTH,ComponentDrill
T14C0.1299
%
G90
G05
T1
X4.0891Y-3.0941
X4.0891Y-3.1414
X4.0891Y-3.1886
X4.0891Y-3.2359
X4.1364Y-3.0941
X4.1364Y-3.1414
X4.1364Y-3.1886
X4.1364Y-3.2359
X4.1836Y-3.0941
X4.1836Y-3.1414
X4.1836Y-3.1886
X4.1836Y-3.2359
X4.2309Y-3.0941
X4.2309Y-3.1414
X4.2309Y-3.1886
X4.2309Y-3.2359
X4.7191Y-3.0941
X4.7191Y-3.1414
X4.7191Y-3.1886
X4.7191Y-3.2359
X4.7664Y-3.0941
X4.7664Y-3.1414
X4.7664Y-3.1886
X4.7664Y-3.2359
X4.8136Y-3.0941
X4.8136Y-3.1414
X4.8136Y-3.1886
X4.8136Y-3.2359
X4.8609Y-3.0941
X4.8609Y-3.1414
X4.8609Y-3.1886
X4.8609Y-3.2359
T2
X0.55Y-2.495
X0.71Y-2.495
X0.74Y-2.72
X0.905Y-1.345
X1.09Y-1.315
X1.145Y-2.495
X1.32Y-2.495
X1.345Y-2.725
X1.4Y-2.725
X1.41Y-2.495
X1.67Y-1.66
X1.67Y-1.915
X1.7Y-1.68
X1.7Y-1.89
X2.09Y-1.34
X2.32Y-1.625
X2.385Y-1.675
X2.385Y-1.885
X2.44Y-1.115
X2.45Y-0.34
X2.59Y-0.27
X2.72Y-2.41
X2.725Y-1.34
X2.89Y-1.315
X2.89Y-2.555
X2.89Y-2.615
X2.93Y-1.945
X2.9725Y-3.1075
X2.985Y-2.935
X3.02Y-2.555
X3.02Y-3.11
X3.085Y-2.905
X3.115Y-2.745
X3.155Y-2.685
X3.175Y-0.715
X3.205Y-0.735
X3.21Y-2.3634
X3.215Y-2.265
X3.215Y-3.11
X3.22Y-2.715
X3.235Y-0.715
X3.235Y-3.14
X3.245Y-2.33
X3.26Y-2.05
X3.265Y-0.735
X3.265Y-3.015
X3.28Y-2.08
X3.285Y-2.295
X3.295Y-0.715
X3.295Y-1.54
X3.295Y-2.985
X3.31Y-2.11
X3.315Y-2.235
X3.315Y-2.425
X3.325Y-0.735
X3.325Y-1.565
X3.325Y-1.945
X3.345Y-1.975
X3.355Y-0.715
X3.355Y-1.59
X3.355Y-1.905
X3.375Y-2.955
X3.385Y-1.615
X3.395Y-2.635
X3.41Y-1.965
X3.415Y-1.64
X3.43Y-2.475
X3.435Y-2.27
X3.435Y-2.375
X3.44Y-2.41
X3.445Y-1.665
X3.46Y-2.08
X3.47Y-2.66
X3.475Y-1.325
X3.475Y-2.35
X3.485Y-1.665
X3.485Y-2.05
X3.485Y-2.11
X3.505Y-2.325
X3.5125Y-2.5125
X3.515Y-1.89
X3.515Y-2.02
X3.54Y-1.86
X3.55Y-2.625
X3.56Y-2.66
X3.565Y-2.51
X3.62Y-2.845
X3.625Y-1.66
X3.63Y-1.905
X3.63Y-2.245
X3.63Y-2.5
X3.645Y-0.92
X3.66Y-1.75
X3.66Y-2.325
X3.665Y-2.735
X3.665Y-2.845
X3.685Y-1.905
X3.69Y-2.44
X3.71Y-2.845
X3.72Y-2.38
X3.75Y-2.47
X3.775Y-2.195
X3.78Y-2.5
X3.785Y-1.665
X3.795Y-2.41
X3.8Y-0.9
X3.8Y-1.885
X3.805Y-2.215
X3.835Y-1.905
X3.835Y-2.195
X3.845Y-1.345
X3.85Y-2.02
X3.865Y-2.215
X3.895Y-2.195
X3.915Y-0.67
X3.925Y-2.215
X3.945Y-2.56
X3.965Y-2.59
X3.975Y-3.11
X3.985Y-3.155
X4.0Y-2.62
X4.0Y-2.785
X4.02Y-2.755
X4.02Y-3.305
X4.03Y-1.68
X4.035Y-2.175
X4.04Y-2.21
X4.045Y-0.26
X4.06Y-2.995
X4.065Y-2.72
X4.08Y-1.63
X4.088Y-3.467
X4.09Y-2.86
X4.12Y-2.995
X4.125Y-3.425
X4.14Y-3.34
X4.18Y-3.34
X4.2Y-2.995
X4.26Y-2.995
X4.3Y-3.31
X4.325Y-1.835
X4.338Y-3.297
X4.345Y-3.165
X4.35Y-3.105
X4.362Y-3.273
X4.435Y-1.6
X4.4481Y-3.295
X4.4819Y-3.295
X4.485Y-1.36
X4.625Y-1.295
X4.65Y-2.695
X4.65Y-2.855
X4.68Y-2.575
X4.68Y-2.99
X4.7Y-3.425
X4.76Y-2.635
X4.77Y-2.99
X4.83Y-2.545
X4.83Y-2.99
X4.855Y-0.665
X4.855Y-1.53
X4.88Y-0.55
X4.88Y-2.605
X4.88Y-2.99
X4.94Y-0.53
X5.15Y-1.43
X5.33Y-0.74
X5.37Y-2.495
X5.395Y-0.21
X5.415Y-2.265
X5.53Y-2.865
X5.575Y-2.865
X5.59Y-0.525
X5.73Y-0.61
X5.745Y-3.57
X5.895Y-3.57
T3
X0.095Y-1.635
X0.13Y-1.595
X0.17Y-1.635
X0.455Y-3.225
X0.455Y-3.7
X0.465Y-0.235
X0.52Y-3.225
X0.735Y-3.225
X0.8Y-3.225
X1.06Y-3.225
X1.07Y-0.32
X1.125Y-3.225
X1.28Y-1.585
X1.28Y-1.79
X1.28Y-2.035
X1.34Y-3.225
X1.405Y-3.225
X1.74Y-1.6
X1.82Y-1.54
X1.865Y-1.635
X1.97Y-0.705
X2.1Y-0.76
X2.175Y-3.135
X2.175Y-3.195
X2.22Y-1.665
X2.245Y-1.34
X2.33Y-0.74
X2.38Y-0.68
X2.55Y-2.78
X2.635Y-1.625
X2.6674Y-2.705
X2.71Y-2.78
X2.725Y-2.565
X2.735Y-0.325
X2.745Y-1.56
X2.925Y-2.225
X3.02Y-2.97
X3.105Y-1.935
X3.11Y-1.71
X3.12Y-0.85
X3.12Y-1.54
X3.15Y-2.925
X3.205Y-1.86
X3.21Y-2.645
X3.255Y-0.55
X3.255Y-2.645
X3.32Y-0.56
X3.445Y-1.89
X3.49Y-1.54
X3.52Y-1.785
X3.55Y-0.24
X3.565Y-2.34
X3.575Y-1.54
X3.58Y-2.19
X3.58Y-3.285
X3.665Y-3.405
X3.685Y-1.63
X3.725Y-0.7
X3.76Y-3.285
X3.785Y-2.81
X3.8Y-0.54
X3.83Y-3.17
X3.84Y-0.755
X3.84Y-2.505
X3.84Y-3.36
X3.89Y-2.975
X3.93Y-1.89
X3.94Y-3.39
X3.945Y-0.265
X3.945Y-0.325
X3.945Y-2.78
X3.975Y-1.675
X3.99Y-1.95
X4.0Y-1.345
X4.005Y-1.785
X4.005Y-1.845
X4.005Y-2.97
X4.02Y-2.68
X4.045Y-2.345
X4.045Y-2.825
X4.045Y-2.895
X4.135Y-0.65
X4.135Y-0.71
X4.205Y-0.16
X4.205Y-2.395
X4.21Y-2.08
X4.21Y-2.21
X4.21Y-2.35
X4.265Y-1.965
X4.295Y-2.94
X4.35Y-2.43
X4.35Y-2.55
X4.37Y-2.015
X4.37Y-3.385
X4.3766Y-0.22
X4.45Y-3.085
X4.46Y-2.995
X4.48Y-3.235
X4.52Y-2.245
X4.525Y-2.465
X4.555Y-3.2
X4.585Y-3.42
X4.605Y-3.52
X4.62Y-2.165
X4.62Y-2.39
X4.625Y-2.955
X4.645Y-3.31
X4.715Y-2.465
X4.72Y-2.9
X4.765Y-3.505
X4.795Y-2.905
X4.9125Y-0.4375
X4.93Y-3.31
X4.976Y-2.12
X4.99Y-3.385
X5.005Y-2.925
X5.01Y-1.53
X5.085Y-2.925
X5.11Y-3.055
X5.11Y-3.135
X5.11Y-3.2
X5.125Y-0.395
X5.205Y-0.35
X5.235Y-0.5
X5.24Y-0.275
X5.275Y-1.96
X5.285Y-2.145
X5.365Y-2.135
X5.455Y-2.765
X5.46Y-0.74
X5.485Y-2.395
X5.485Y-2.495
X5.525Y-0.53
X5.535Y-2.26
X5.615Y-0.76
X5.655Y-1.835
X5.71Y-0.275
X5.71Y-2.765
X5.785Y-0.595
X5.79Y-1.635
X5.79Y-1.735
X5.83Y-0.655
X5.83Y-0.805
X5.83Y-0.865
X5.86Y-0.275
X5.895Y-3.62
X5.92Y-2.835
X5.935Y-1.1
X5.99Y-2.18
X6.055Y-0.395
X6.055Y-0.695
X6.105Y-0.395
X6.105Y-0.695
X6.145Y-1.99
X6.155Y-0.395
X6.155Y-0.695
X6.205Y-0.395
X6.205Y-0.695
X6.225Y-1.31
X6.225Y-1.365
X6.255Y-0.395
X6.255Y-0.695
X6.265Y-2.425
X6.265Y-2.495
X6.285Y-2.175
T4
X2.22Y-1.115
X2.265Y-2.295
X2.265Y-2.445
X2.265Y-2.595
X2.385Y-0.995
X3.73Y-1.815
X3.97Y-1.117
X4.125Y-0.985
X4.135Y-1.815
X4.6Y-1.745
X4.7Y-1.745
X4.9Y-1.745
X5.0Y-1.745
X5.1Y-1.745
X5.215Y-2.495
X5.745Y-1.115
X5.885Y-2.375
X5.895Y-0.99
X5.935Y-1.505
X6.185Y-1.083
T5
X0.885Y-0.87
X0.93Y-1.065
X1.04Y-1.065
X1.535Y-1.305
X1.75Y-0.87
X1.975Y-0.87
X2.725Y-0.61
X2.725Y-1.065
X2.835Y-0.61
X2.835Y-1.065
X3.28Y-1.275
X3.505Y-0.86
X3.725Y-0.82
X4.47Y-0.615
X4.475Y-1.06
X4.58Y-0.615
X4.58Y-1.06
X4.7Y-1.62
X5.185Y-1.14
X5.26Y-0.865
X5.485Y-0.82
T6
X5.68Y-2.5222
X5.68Y-2.66
T7
X0.43Y-2.285
X0.43Y-2.385
X0.53Y-2.285
X0.53Y-2.385
X0.63Y-2.285
X0.63Y-2.385
X0.73Y-2.285
X0.73Y-2.385
X0.83Y-2.285
X0.83Y-2.385
X0.93Y-2.285
X0.93Y-2.385
X1.03Y-2.285
X1.03Y-2.385
X1.13Y-2.285
X1.13Y-2.385
X1.23Y-2.285
X1.23Y-2.385
X1.33Y-2.285
X1.33Y-2.385
X1.43Y-2.285
X1.43Y-2.385
X1.53Y-2.285
X1.53Y-2.385
X1.63Y-2.285
X1.63Y-2.385
X2.435Y-2.295
X2.435Y-2.395
X2.435Y-2.495
X2.435Y-2.595
X2.435Y-2.695
X2.535Y-2.295
X2.535Y-2.395
X2.535Y-2.495
X2.535Y-2.595
X2.535Y-2.695
X3.655Y-3.57
X3.655Y-3.67
X3.685Y-3.025
X3.685Y-3.125
X3.755Y-3.57
X3.755Y-3.67
X3.855Y-3.57
X3.855Y-3.67
X3.955Y-3.57
X3.955Y-3.67
X4.055Y-3.57
X4.055Y-3.67
X4.155Y-3.57
X4.155Y-3.67
X4.255Y-3.57
X4.255Y-3.67
X4.355Y-3.57
X4.355Y-3.67
X4.455Y-3.57
X4.455Y-3.67
X4.555Y-3.57
X4.555Y-3.67
X4.655Y-3.57
X4.655Y-3.67
X4.755Y-3.57
X4.755Y-3.67
X4.855Y-3.57
X4.855Y-3.67
X4.955Y-3.57
X4.955Y-3.67
X5.055Y-3.57
X5.055Y-3.67
X5.495Y-3.685
X5.595Y-3.685
T8
X1.8Y-1.26
X1.85Y-1.1143
X1.9Y-1.26
X1.95Y-1.1143
X2.0Y-1.26
X2.05Y-1.1143
X2.1Y-1.26
X3.55Y-1.262
X3.6Y-1.1163
X3.65Y-1.262
X3.7Y-1.1163
X3.75Y-1.262
X3.8Y-1.1163
X3.85Y-1.262
X5.32Y-1.2607
X5.37Y-1.115
X5.42Y-1.2607
X5.47Y-1.115
X5.52Y-1.2607
X5.57Y-1.115
X5.62Y-1.2607
T9
X0.71Y-1.4981
X0.71Y-1.695
X1.44Y-1.1231
X1.44Y-1.32
X3.195Y-1.1281
X3.195Y-1.325
X4.96Y-1.1281
X4.96Y-1.325
X5.405Y-1.845
X5.405Y-1.945
X5.405Y-2.045
T10
X0.1281Y-2.6475
X0.1281Y-3.4225
X1.9281Y-2.735
X1.9281Y-2.835
X1.9281Y-2.935
X1.9281Y-3.035
X1.9281Y-3.135
X1.9281Y-3.235
X1.9281Y-3.335
T11
X0.265Y-0.53
X0.265Y-0.73
X0.265Y-0.93
X0.265Y-1.13
X0.265Y-1.33
X0.265Y-1.53
X0.265Y-1.73
X0.265Y-1.93
X6.075Y-2.52
X6.075Y-2.72
T12
X0.14Y-0.217
X0.14Y-3.717
T13
X1.1181Y-3.6378
X2.2992Y-3.6378
X6.1615Y-0.2363
X6.1615Y-3.7007
T14
X1.4583Y-0.2444
X1.4583Y-0.7956
X5.0017Y-0.2444
X5.0017Y-0.7956
T0
M30
