%TF.GenerationSoftware,KiCad,Pcbnew,7.0.1*%
%TF.CreationDate,2023-11-30T10:22:41+01:00*%
%TF.ProjectId,current3x3A_Artiq,63757272-656e-4743-9378-33415f417274,rev?*%
%TF.SameCoordinates,Original*%
%TF.FileFunction,Paste,Top*%
%TF.FilePolarity,Positive*%
%FSLAX46Y46*%
G04 Gerber Fmt 4.6, Leading zero omitted, Abs format (unit mm)*
G04 Created by KiCad (PCBNEW 7.0.1) date 2023-11-30 10:22:41*
%MOMM*%
%LPD*%
G01*
G04 APERTURE LIST*
G04 Aperture macros list*
%AMRoundRect*
0 Rectangle with rounded corners*
0 $1 Rounding radius*
0 $2 $3 $4 $5 $6 $7 $8 $9 X,Y pos of 4 corners*
0 Add a 4 corners polygon primitive as box body*
4,1,4,$2,$3,$4,$5,$6,$7,$8,$9,$2,$3,0*
0 Add four circle primitives for the rounded corners*
1,1,$1+$1,$2,$3*
1,1,$1+$1,$4,$5*
1,1,$1+$1,$6,$7*
1,1,$1+$1,$8,$9*
0 Add four rect primitives between the rounded corners*
20,1,$1+$1,$2,$3,$4,$5,0*
20,1,$1+$1,$4,$5,$6,$7,0*
20,1,$1+$1,$6,$7,$8,$9,0*
20,1,$1+$1,$8,$9,$2,$3,0*%
%AMOutline4P*
0 Free polygon, 4 corners , with rotation*
0 The origin of the aperture is its center*
0 number of corners: always 4*
0 $1 to $8 corner X, Y*
0 $9 Rotation angle, in degrees counterclockwise*
0 create outline with 4 corners*
4,1,4,$1,$2,$3,$4,$5,$6,$7,$8,$1,$2,$9*%
G04 Aperture macros list end*
%ADD10RoundRect,0.225000X0.250000X-0.225000X0.250000X0.225000X-0.250000X0.225000X-0.250000X-0.225000X0*%
%ADD11RoundRect,0.150000X-0.150000X0.750000X-0.150000X-0.750000X0.150000X-0.750000X0.150000X0.750000X0*%
%ADD12RoundRect,0.200000X0.200000X0.275000X-0.200000X0.275000X-0.200000X-0.275000X0.200000X-0.275000X0*%
%ADD13RoundRect,0.218750X0.256250X-0.218750X0.256250X0.218750X-0.256250X0.218750X-0.256250X-0.218750X0*%
%ADD14RoundRect,0.225000X-0.250000X0.225000X-0.250000X-0.225000X0.250000X-0.225000X0.250000X0.225000X0*%
%ADD15RoundRect,0.150000X0.150000X-0.512500X0.150000X0.512500X-0.150000X0.512500X-0.150000X-0.512500X0*%
%ADD16R,3.175000X4.950000*%
%ADD17RoundRect,0.200000X0.275000X-0.200000X0.275000X0.200000X-0.275000X0.200000X-0.275000X-0.200000X0*%
%ADD18RoundRect,0.218750X-0.218750X-0.256250X0.218750X-0.256250X0.218750X0.256250X-0.218750X0.256250X0*%
%ADD19RoundRect,0.225000X-0.225000X-0.250000X0.225000X-0.250000X0.225000X0.250000X-0.225000X0.250000X0*%
%ADD20R,3.429000X2.413000*%
%ADD21RoundRect,0.250000X-0.900000X1.000000X-0.900000X-1.000000X0.900000X-1.000000X0.900000X1.000000X0*%
%ADD22R,3.000000X1.200000*%
%ADD23RoundRect,0.250000X-0.325000X-0.650000X0.325000X-0.650000X0.325000X0.650000X-0.325000X0.650000X0*%
%ADD24RoundRect,0.150000X0.150000X-0.725000X0.150000X0.725000X-0.150000X0.725000X-0.150000X-0.725000X0*%
%ADD25RoundRect,0.250000X0.475000X-0.250000X0.475000X0.250000X-0.475000X0.250000X-0.475000X-0.250000X0*%
%ADD26RoundRect,0.225000X0.225000X0.250000X-0.225000X0.250000X-0.225000X-0.250000X0.225000X-0.250000X0*%
%ADD27RoundRect,0.200000X-0.200000X-0.275000X0.200000X-0.275000X0.200000X0.275000X-0.200000X0.275000X0*%
%ADD28RoundRect,0.112500X-0.112500X0.187500X-0.112500X-0.187500X0.112500X-0.187500X0.112500X0.187500X0*%
%ADD29RoundRect,0.250000X-0.312500X-0.625000X0.312500X-0.625000X0.312500X0.625000X-0.312500X0.625000X0*%
%ADD30R,1.750000X0.450000*%
%ADD31RoundRect,0.225000X-0.375000X0.225000X-0.375000X-0.225000X0.375000X-0.225000X0.375000X0.225000X0*%
%ADD32RoundRect,0.250000X0.325000X0.650000X-0.325000X0.650000X-0.325000X-0.650000X0.325000X-0.650000X0*%
%ADD33RoundRect,0.250000X0.300000X-0.300000X0.300000X0.300000X-0.300000X0.300000X-0.300000X-0.300000X0*%
%ADD34RoundRect,0.062500X0.062500X-0.375000X0.062500X0.375000X-0.062500X0.375000X-0.062500X-0.375000X0*%
%ADD35RoundRect,0.062500X0.375000X-0.062500X0.375000X0.062500X-0.375000X0.062500X-0.375000X-0.062500X0*%
%ADD36RoundRect,0.200000X-0.275000X0.200000X-0.275000X-0.200000X0.275000X-0.200000X0.275000X0.200000X0*%
%ADD37RoundRect,0.250000X1.425000X-0.362500X1.425000X0.362500X-1.425000X0.362500X-1.425000X-0.362500X0*%
%ADD38RoundRect,0.250000X0.250000X0.475000X-0.250000X0.475000X-0.250000X-0.475000X0.250000X-0.475000X0*%
%ADD39RoundRect,0.250000X-0.450000X0.262500X-0.450000X-0.262500X0.450000X-0.262500X0.450000X0.262500X0*%
%ADD40RoundRect,0.100000X0.637500X0.100000X-0.637500X0.100000X-0.637500X-0.100000X0.637500X-0.100000X0*%
%ADD41RoundRect,0.250000X-0.475000X0.250000X-0.475000X-0.250000X0.475000X-0.250000X0.475000X0.250000X0*%
%ADD42R,1.500000X1.500000*%
%ADD43R,0.750000X0.500000*%
%ADD44R,0.750000X0.400000*%
%ADD45RoundRect,0.250000X0.650000X-0.325000X0.650000X0.325000X-0.650000X0.325000X-0.650000X-0.325000X0*%
%ADD46RoundRect,0.250000X1.000000X0.900000X-1.000000X0.900000X-1.000000X-0.900000X1.000000X-0.900000X0*%
%ADD47Outline4P,-1.500000X-0.725000X1.500000X-0.725000X1.800000X0.725000X-1.800000X0.725000X270.000000*%
%ADD48Outline4P,-1.800000X-0.725000X1.800000X-0.725000X1.500000X0.725000X-1.500000X0.725000X270.000000*%
%ADD49RoundRect,0.250000X0.625000X-0.312500X0.625000X0.312500X-0.625000X0.312500X-0.625000X-0.312500X0*%
%ADD50R,0.450000X0.700000*%
%ADD51RoundRect,0.250000X-0.250000X-0.475000X0.250000X-0.475000X0.250000X0.475000X-0.250000X0.475000X0*%
%ADD52R,0.700000X1.000000*%
%ADD53R,0.700000X0.600000*%
%ADD54R,0.700000X1.200000*%
%ADD55R,1.000000X0.800000*%
%ADD56R,1.000000X1.200000*%
%ADD57R,1.000000X2.800000*%
%ADD58R,1.300000X1.900000*%
%ADD59R,1.066800X1.879600*%
%ADD60R,0.400000X0.900000*%
%ADD61RoundRect,0.150000X0.512500X0.150000X-0.512500X0.150000X-0.512500X-0.150000X0.512500X-0.150000X0*%
%ADD62RoundRect,0.250000X-1.025000X0.787500X-1.025000X-0.787500X1.025000X-0.787500X1.025000X0.787500X0*%
%ADD63RoundRect,0.249999X1.500001X-1.025001X1.500001X1.025001X-1.500001X1.025001X-1.500001X-1.025001X0*%
%ADD64RoundRect,0.150000X-0.150000X0.825000X-0.150000X-0.825000X0.150000X-0.825000X0.150000X0.825000X0*%
%ADD65RoundRect,0.250000X0.450000X-0.262500X0.450000X0.262500X-0.450000X0.262500X-0.450000X-0.262500X0*%
%ADD66RoundRect,0.218750X0.218750X0.381250X-0.218750X0.381250X-0.218750X-0.381250X0.218750X-0.381250X0*%
%ADD67R,0.600000X1.000000*%
%ADD68R,1.000000X0.420000*%
%ADD69R,0.990000X0.420000*%
%ADD70RoundRect,0.075000X0.725000X0.075000X-0.725000X0.075000X-0.725000X-0.075000X0.725000X-0.075000X0*%
%ADD71RoundRect,0.075000X0.075000X0.725000X-0.075000X0.725000X-0.075000X-0.725000X0.075000X-0.725000X0*%
%ADD72R,0.700000X0.450000*%
%ADD73R,1.100000X1.300000*%
%ADD74RoundRect,0.250000X0.350000X-0.850000X0.350000X0.850000X-0.350000X0.850000X-0.350000X-0.850000X0*%
%ADD75RoundRect,0.250000X1.125000X-1.275000X1.125000X1.275000X-1.125000X1.275000X-1.125000X-1.275000X0*%
%ADD76Outline4P,-1.500000X-0.725000X1.500000X-0.725000X1.800000X0.725000X-1.800000X0.725000X180.000000*%
%ADD77Outline4P,-1.800000X-0.725000X1.800000X-0.725000X1.500000X0.725000X-1.500000X0.725000X180.000000*%
%ADD78R,5.700000X1.600000*%
%ADD79RoundRect,0.218750X-0.256250X0.218750X-0.256250X-0.218750X0.256250X-0.218750X0.256250X0.218750X0*%
%ADD80RoundRect,0.249999X-1.500001X1.025001X-1.500001X-1.025001X1.500001X-1.025001X1.500001X1.025001X0*%
G04 APERTURE END LIST*
D10*
%TO.C,C93*%
X111760000Y-77610000D03*
X111760000Y-76060000D03*
%TD*%
%TO.C,C121*%
X103886000Y-18047000D03*
X103886000Y-16497000D03*
%TD*%
%TO.C,C4*%
X68961000Y-56274000D03*
X68961000Y-54724000D03*
%TD*%
D11*
%TO.C,U29*%
X14276000Y-67739000D03*
X13006000Y-67739000D03*
X11736000Y-67739000D03*
X10466000Y-67739000D03*
X10466000Y-78389000D03*
X11736000Y-78389000D03*
X13006000Y-78389000D03*
X14276000Y-78389000D03*
%TD*%
D12*
%TO.C,R35*%
X23304000Y-35306000D03*
X21654000Y-35306000D03*
%TD*%
D13*
%TO.C,D32*%
X34469000Y-64961500D03*
X34469000Y-63386500D03*
%TD*%
D14*
%TO.C,C23*%
X84328000Y-11417000D03*
X84328000Y-12967000D03*
%TD*%
D15*
%TO.C,U27*%
X141290000Y-18155500D03*
X142240000Y-18155500D03*
X143190000Y-18155500D03*
X143190000Y-15880500D03*
X141290000Y-15880500D03*
%TD*%
D16*
%TO.C,L9*%
X142048500Y-40005000D03*
X133033500Y-40005000D03*
%TD*%
D10*
%TO.C,C13*%
X103889000Y-5601000D03*
X103889000Y-4051000D03*
%TD*%
D17*
%TO.C,R55*%
X100838000Y-32117000D03*
X100838000Y-30467000D03*
%TD*%
D18*
%TO.C,L2*%
X104241500Y-51181000D03*
X105816500Y-51181000D03*
%TD*%
D14*
%TO.C,C146*%
X95250000Y-38849000D03*
X95250000Y-40399000D03*
%TD*%
D19*
%TO.C,C99*%
X111493000Y-81153000D03*
X113043000Y-81153000D03*
%TD*%
D15*
%TO.C,U8*%
X97856000Y-74162500D03*
X98806000Y-74162500D03*
X99756000Y-74162500D03*
X99756000Y-71887500D03*
X97856000Y-71887500D03*
%TD*%
D20*
%TO.C,L11*%
X156337000Y-31115000D03*
X156337000Y-36957000D03*
%TD*%
D12*
%TO.C,R63*%
X99250000Y-35052000D03*
X97600000Y-35052000D03*
%TD*%
D21*
%TO.C,D19*%
X92583000Y-20887000D03*
X92583000Y-25187000D03*
%TD*%
D22*
%TO.C,L3*%
X129607000Y-50272000D03*
X129607000Y-47772000D03*
X122107000Y-47772000D03*
X122107000Y-50272000D03*
%TD*%
D14*
%TO.C,C33*%
X88392000Y-45326000D03*
X88392000Y-46876000D03*
%TD*%
D17*
%TO.C,R73*%
X145923000Y-32067000D03*
X145923000Y-30417000D03*
%TD*%
D11*
%TO.C,U32*%
X29643000Y-67739000D03*
X28373000Y-67739000D03*
X27103000Y-67739000D03*
X25833000Y-67739000D03*
X25833000Y-78389000D03*
X27103000Y-78389000D03*
X28373000Y-78389000D03*
X29643000Y-78389000D03*
%TD*%
D10*
%TO.C,C83*%
X140175000Y-52106000D03*
X140175000Y-50556000D03*
%TD*%
D19*
%TO.C,C94*%
X127241000Y-81280000D03*
X128791000Y-81280000D03*
%TD*%
D14*
%TO.C,C70*%
X149606000Y-46723000D03*
X149606000Y-48273000D03*
%TD*%
D10*
%TO.C,C54*%
X144653000Y-48146000D03*
X144653000Y-46596000D03*
%TD*%
D23*
%TO.C,C1*%
X7796000Y-4699000D03*
X10746000Y-4699000D03*
%TD*%
D24*
%TO.C,U17*%
X21590000Y-43088000D03*
X22860000Y-43088000D03*
X24130000Y-43088000D03*
X25400000Y-43088000D03*
X25400000Y-37938000D03*
X24130000Y-37938000D03*
X22860000Y-37938000D03*
X21590000Y-37938000D03*
%TD*%
D25*
%TO.C,C3*%
X67056000Y-56449000D03*
X67056000Y-54549000D03*
%TD*%
D19*
%TO.C,C61*%
X157467000Y-52832000D03*
X159017000Y-52832000D03*
%TD*%
D12*
%TO.C,R53*%
X68897000Y-35179000D03*
X67247000Y-35179000D03*
%TD*%
D19*
%TO.C,C30*%
X108318000Y-51181000D03*
X109868000Y-51181000D03*
%TD*%
D26*
%TO.C,C138*%
X133236000Y-30226000D03*
X131686000Y-30226000D03*
%TD*%
D27*
%TO.C,R83*%
X136970000Y-7874000D03*
X138620000Y-7874000D03*
%TD*%
%TO.C,R65*%
X97600000Y-36703000D03*
X99250000Y-36703000D03*
%TD*%
D18*
%TO.C,L6*%
X157581500Y-62484000D03*
X159156500Y-62484000D03*
%TD*%
D19*
%TO.C,C18*%
X97526000Y-13656000D03*
X99076000Y-13656000D03*
%TD*%
D28*
%TO.C,D2*%
X157607000Y-65625000D03*
X157607000Y-67725000D03*
%TD*%
D29*
%TO.C,R1*%
X7808500Y-7239000D03*
X10733500Y-7239000D03*
%TD*%
D30*
%TO.C,U2*%
X74847000Y-67725000D03*
X74847000Y-67075000D03*
X74847000Y-66425000D03*
X74847000Y-65775000D03*
X74847000Y-65125000D03*
X74847000Y-64475000D03*
X74847000Y-63825000D03*
X74847000Y-63175000D03*
X74847000Y-62525000D03*
X74847000Y-61875000D03*
X74847000Y-61225000D03*
X74847000Y-60575000D03*
X74847000Y-59925000D03*
X74847000Y-59275000D03*
X67647000Y-59275000D03*
X67647000Y-59925000D03*
X67647000Y-60575000D03*
X67647000Y-61225000D03*
X67647000Y-61875000D03*
X67647000Y-62525000D03*
X67647000Y-63175000D03*
X67647000Y-63825000D03*
X67647000Y-64475000D03*
X67647000Y-65125000D03*
X67647000Y-65775000D03*
X67647000Y-66425000D03*
X67647000Y-67075000D03*
X67647000Y-67725000D03*
%TD*%
D17*
%TO.C,R38*%
X55880000Y-25717000D03*
X55880000Y-24067000D03*
%TD*%
D26*
%TO.C,C50*%
X79388000Y-75438000D03*
X77838000Y-75438000D03*
%TD*%
D14*
%TO.C,C22*%
X97412000Y-10214000D03*
X97412000Y-11764000D03*
%TD*%
D31*
%TO.C,D3*%
X118110000Y-37847000D03*
X118110000Y-41147000D03*
%TD*%
D17*
%TO.C,R46*%
X56388000Y-41338000D03*
X56388000Y-39688000D03*
%TD*%
D13*
%TO.C,D34*%
X19102000Y-64961500D03*
X19102000Y-63386500D03*
%TD*%
D23*
%TO.C,C124*%
X96442000Y-21386000D03*
X99392000Y-21386000D03*
%TD*%
D32*
%TO.C,C76*%
X151208000Y-44069000D03*
X148258000Y-44069000D03*
%TD*%
D12*
%TO.C,R67*%
X111442000Y-45720000D03*
X109792000Y-45720000D03*
%TD*%
D14*
%TO.C,C56*%
X152019000Y-59944000D03*
X152019000Y-61494000D03*
%TD*%
D33*
%TO.C,U15*%
X104294000Y-81761000D03*
X105664000Y-81761000D03*
X107034000Y-81761000D03*
X104294000Y-80391000D03*
X105664000Y-80391000D03*
X107034000Y-80391000D03*
X104294000Y-79021000D03*
X105664000Y-79021000D03*
X107034000Y-79021000D03*
D34*
X102914000Y-83828500D03*
X103414000Y-83828500D03*
X103914000Y-83828500D03*
X104414000Y-83828500D03*
X104914000Y-83828500D03*
X105414000Y-83828500D03*
X105914000Y-83828500D03*
X106414000Y-83828500D03*
X106914000Y-83828500D03*
X107414000Y-83828500D03*
X107914000Y-83828500D03*
X108414000Y-83828500D03*
D35*
X109101500Y-83141000D03*
X109101500Y-82641000D03*
X109101500Y-82141000D03*
X109101500Y-81641000D03*
X109101500Y-81141000D03*
X109101500Y-80641000D03*
X109101500Y-80141000D03*
X109101500Y-79641000D03*
X109101500Y-79141000D03*
X109101500Y-78641000D03*
X109101500Y-78141000D03*
X109101500Y-77641000D03*
D34*
X108414000Y-76953500D03*
X107914000Y-76953500D03*
X107414000Y-76953500D03*
X106914000Y-76953500D03*
X106414000Y-76953500D03*
X105914000Y-76953500D03*
X105414000Y-76953500D03*
X104914000Y-76953500D03*
X104414000Y-76953500D03*
X103914000Y-76953500D03*
X103414000Y-76953500D03*
X102914000Y-76953500D03*
D35*
X102226500Y-77641000D03*
X102226500Y-78141000D03*
X102226500Y-78641000D03*
X102226500Y-79141000D03*
X102226500Y-79641000D03*
X102226500Y-80141000D03*
X102226500Y-80641000D03*
X102226500Y-81141000D03*
X102226500Y-81641000D03*
X102226500Y-82141000D03*
X102226500Y-82641000D03*
X102226500Y-83141000D03*
%TD*%
D26*
%TO.C,C52*%
X148603000Y-91948000D03*
X147053000Y-91948000D03*
%TD*%
D12*
%TO.C,R23*%
X124015000Y-85979000D03*
X122365000Y-85979000D03*
%TD*%
D14*
%TO.C,C111*%
X45974000Y-16243000D03*
X45974000Y-17793000D03*
%TD*%
D36*
%TO.C,R10*%
X97663000Y-68009000D03*
X97663000Y-69659000D03*
%TD*%
D19*
%TO.C,C66*%
X153784000Y-24511000D03*
X155334000Y-24511000D03*
%TD*%
D12*
%TO.C,R18*%
X122491000Y-88011000D03*
X120841000Y-88011000D03*
%TD*%
D37*
%TO.C,R61*%
X88138000Y-25999500D03*
X88138000Y-20074500D03*
%TD*%
D27*
%TO.C,R51*%
X63945000Y-35179000D03*
X65595000Y-35179000D03*
%TD*%
D38*
%TO.C,C64*%
X122705500Y-41783000D03*
X120805500Y-41783000D03*
%TD*%
D14*
%TO.C,C89*%
X109982000Y-85966000D03*
X109982000Y-87516000D03*
%TD*%
D26*
%TO.C,C65*%
X127775000Y-41783000D03*
X126225000Y-41783000D03*
%TD*%
D39*
%TO.C,R75*%
X143510000Y-23979500D03*
X143510000Y-25804500D03*
%TD*%
D27*
%TO.C,R26*%
X111443000Y-79502000D03*
X113093000Y-79502000D03*
%TD*%
D12*
%TO.C,R29*%
X108013000Y-85979000D03*
X106363000Y-85979000D03*
%TD*%
D26*
%TO.C,C97*%
X99962000Y-76708000D03*
X98412000Y-76708000D03*
%TD*%
D40*
%TO.C,U4*%
X92524500Y-13959000D03*
X92524500Y-13309000D03*
X92524500Y-12659000D03*
X92524500Y-12009000D03*
X92524500Y-11359000D03*
X92524500Y-10709000D03*
X92524500Y-10059000D03*
X92524500Y-9409000D03*
X86799500Y-9409000D03*
X86799500Y-10059000D03*
X86799500Y-10709000D03*
X86799500Y-11359000D03*
X86799500Y-12009000D03*
X86799500Y-12659000D03*
X86799500Y-13309000D03*
X86799500Y-13959000D03*
%TD*%
D41*
%TO.C,C100*%
X117348000Y-86045000D03*
X117348000Y-87945000D03*
%TD*%
D14*
%TO.C,C129*%
X115951000Y-39611000D03*
X115951000Y-41161000D03*
%TD*%
D12*
%TO.C,R70*%
X119824000Y-35306000D03*
X118174000Y-35306000D03*
%TD*%
D39*
%TO.C,R58*%
X96520000Y-24029500D03*
X96520000Y-25854500D03*
%TD*%
D23*
%TO.C,C77*%
X135177000Y-63373000D03*
X138127000Y-63373000D03*
%TD*%
D26*
%TO.C,C36*%
X105804000Y-49530000D03*
X104254000Y-49530000D03*
%TD*%
D14*
%TO.C,C49*%
X101600000Y-71869000D03*
X101600000Y-73419000D03*
%TD*%
D12*
%TO.C,R45*%
X54673000Y-35052000D03*
X53023000Y-35052000D03*
%TD*%
D14*
%TO.C,C135*%
X136144000Y-16243000D03*
X136144000Y-17793000D03*
%TD*%
D41*
%TO.C,C8*%
X72517000Y-54549000D03*
X72517000Y-56449000D03*
%TD*%
D12*
%TO.C,R25*%
X100012000Y-78359000D03*
X98362000Y-78359000D03*
%TD*%
D14*
%TO.C,C62*%
X139700000Y-54978000D03*
X139700000Y-56528000D03*
%TD*%
D29*
%TO.C,R32*%
X67244500Y-93853000D03*
X70169500Y-93853000D03*
%TD*%
D42*
%TO.C,T2*%
X21263000Y-29630000D03*
X21263000Y-31330000D03*
X22963000Y-29630000D03*
X22963000Y-31330000D03*
D43*
X24368000Y-28575000D03*
X24368000Y-29845000D03*
X24368000Y-31115000D03*
X24368000Y-32385000D03*
D44*
X18563000Y-28575000D03*
X18563000Y-29845000D03*
X18563000Y-31115000D03*
X18563000Y-32385000D03*
%TD*%
D14*
%TO.C,C106*%
X27559000Y-39747500D03*
X27559000Y-41297500D03*
%TD*%
D10*
%TO.C,C85*%
X141826000Y-52106000D03*
X141826000Y-50556000D03*
%TD*%
D17*
%TO.C,R7*%
X81026000Y-13017000D03*
X81026000Y-11367000D03*
%TD*%
D27*
%TO.C,R31*%
X25337000Y-45729500D03*
X26987000Y-45729500D03*
%TD*%
D38*
%TO.C,C101*%
X116266000Y-75057000D03*
X114366000Y-75057000D03*
%TD*%
D45*
%TO.C,C37*%
X34290000Y-54561000D03*
X34290000Y-51611000D03*
%TD*%
D19*
%TO.C,C72*%
X157340000Y-22860000D03*
X158890000Y-22860000D03*
%TD*%
D10*
%TO.C,C130*%
X146939000Y-18174000D03*
X146939000Y-16624000D03*
%TD*%
%TO.C,C107*%
X55880000Y-17793000D03*
X55880000Y-16243000D03*
%TD*%
%TO.C,C105*%
X57531000Y-17793000D03*
X57531000Y-16243000D03*
%TD*%
D19*
%TO.C,C90*%
X107810000Y-61722000D03*
X109360000Y-61722000D03*
%TD*%
D12*
%TO.C,R81*%
X138620000Y-6223000D03*
X136970000Y-6223000D03*
%TD*%
D46*
%TO.C,D22*%
X121403000Y-24765000D03*
X117103000Y-24765000D03*
%TD*%
D26*
%TO.C,C137*%
X133236000Y-31877000D03*
X131686000Y-31877000D03*
%TD*%
D14*
%TO.C,C79*%
X141826000Y-46746000D03*
X141826000Y-48296000D03*
%TD*%
%TO.C,C42*%
X99441000Y-68059000D03*
X99441000Y-69609000D03*
%TD*%
%TO.C,C25*%
X82677000Y-11417000D03*
X82677000Y-12967000D03*
%TD*%
D47*
%TO.C,L5*%
X143862000Y-56642000D03*
D48*
X146812000Y-56642000D03*
%TD*%
D36*
%TO.C,R37*%
X56388000Y-30417000D03*
X56388000Y-32067000D03*
%TD*%
D41*
%TO.C,C10*%
X77851000Y-65852000D03*
X77851000Y-67752000D03*
%TD*%
D15*
%TO.C,U19*%
X52009000Y-18155500D03*
X52959000Y-18155500D03*
X53909000Y-18155500D03*
X53909000Y-15880500D03*
X52009000Y-15880500D03*
%TD*%
D36*
%TO.C,R62*%
X102616000Y-39815000D03*
X102616000Y-41465000D03*
%TD*%
D10*
%TO.C,C110*%
X57531000Y-25667000D03*
X57531000Y-24117000D03*
%TD*%
D46*
%TO.C,D9*%
X31487000Y-13208000D03*
X27187000Y-13208000D03*
%TD*%
D19*
%TO.C,C38*%
X104254000Y-59690000D03*
X105804000Y-59690000D03*
%TD*%
D49*
%TO.C,R3*%
X30734000Y-54548500D03*
X30734000Y-51623500D03*
%TD*%
D26*
%TO.C,C74*%
X158890000Y-24511000D03*
X157340000Y-24511000D03*
%TD*%
D42*
%TO.C,T7*%
X74730000Y-18073000D03*
X74730000Y-19773000D03*
X76430000Y-18073000D03*
X76430000Y-19773000D03*
D43*
X77835000Y-17018000D03*
X77835000Y-18288000D03*
X77835000Y-19558000D03*
X77835000Y-20828000D03*
D44*
X72030000Y-17018000D03*
X72030000Y-18288000D03*
X72030000Y-19558000D03*
X72030000Y-20828000D03*
%TD*%
D23*
%TO.C,C2*%
X7542000Y-95250000D03*
X10492000Y-95250000D03*
%TD*%
D14*
%TO.C,C71*%
X128397000Y-37325000D03*
X128397000Y-38875000D03*
%TD*%
D50*
%TO.C,D24*%
X139334000Y-15891000D03*
X138034000Y-15891000D03*
X138684000Y-17891000D03*
%TD*%
D10*
%TO.C,C148*%
X132969000Y-11570000D03*
X132969000Y-10020000D03*
%TD*%
D26*
%TO.C,C67*%
X155334000Y-22860000D03*
X153784000Y-22860000D03*
%TD*%
D12*
%TO.C,R77*%
X134175000Y-17780000D03*
X132525000Y-17780000D03*
%TD*%
D51*
%TO.C,C102*%
X127193000Y-75692000D03*
X129093000Y-75692000D03*
%TD*%
D27*
%TO.C,R54*%
X70549000Y-35179000D03*
X72199000Y-35179000D03*
%TD*%
D14*
%TO.C,C60*%
X141351000Y-54978000D03*
X141351000Y-56528000D03*
%TD*%
D27*
%TO.C,R11*%
X147765000Y-72009000D03*
X149415000Y-72009000D03*
%TD*%
D10*
%TO.C,C17*%
X95761000Y-8208000D03*
X95761000Y-6658000D03*
%TD*%
%TO.C,C55*%
X132715000Y-49797000D03*
X132715000Y-48247000D03*
%TD*%
D14*
%TO.C,C125*%
X84582000Y-30848000D03*
X84582000Y-32398000D03*
%TD*%
D52*
%TO.C,D5*%
X97520000Y-84189000D03*
D53*
X97520000Y-82489000D03*
X95520000Y-82489000D03*
X95520000Y-84389000D03*
%TD*%
D26*
%TO.C,C143*%
X28513000Y-80811000D03*
X26963000Y-80811000D03*
%TD*%
D14*
%TO.C,C123*%
X90551000Y-16166000D03*
X90551000Y-17716000D03*
%TD*%
D13*
%TO.C,D31*%
X13006000Y-64961500D03*
X13006000Y-63386500D03*
%TD*%
D14*
%TO.C,C118*%
X50673000Y-38849000D03*
X50673000Y-40399000D03*
%TD*%
D50*
%TO.C,D12*%
X56373000Y-37068000D03*
X57673000Y-37068000D03*
X57023000Y-35068000D03*
%TD*%
D26*
%TO.C,C139*%
X133236000Y-33528000D03*
X131686000Y-33528000D03*
%TD*%
D50*
%TO.C,D29*%
X131811000Y-7985000D03*
X133111000Y-7985000D03*
X132461000Y-5985000D03*
%TD*%
D12*
%TO.C,R78*%
X134175000Y-16129000D03*
X132525000Y-16129000D03*
%TD*%
D10*
%TO.C,C7*%
X70612000Y-56274000D03*
X70612000Y-54724000D03*
%TD*%
%TO.C,C24*%
X99063000Y-8208000D03*
X99063000Y-6658000D03*
%TD*%
%TO.C,C122*%
X101981000Y-25717000D03*
X101981000Y-24167000D03*
%TD*%
D42*
%TO.C,T9*%
X119053000Y-29630000D03*
X119053000Y-31330000D03*
X120753000Y-29630000D03*
X120753000Y-31330000D03*
D43*
X122158000Y-28575000D03*
X122158000Y-29845000D03*
X122158000Y-31115000D03*
X122158000Y-32385000D03*
D44*
X116353000Y-28575000D03*
X116353000Y-29845000D03*
X116353000Y-31115000D03*
X116353000Y-32385000D03*
%TD*%
D36*
%TO.C,R80*%
X141986000Y-10859000D03*
X141986000Y-12509000D03*
%TD*%
D14*
%TO.C,C26*%
X95761000Y-10214000D03*
X95761000Y-11764000D03*
%TD*%
D54*
%TO.C,SD1*%
X82912000Y-77746000D03*
X81812000Y-77746000D03*
X80712000Y-77746000D03*
X79612000Y-77746000D03*
X78512000Y-77746000D03*
X77412000Y-77746000D03*
X76312000Y-77746000D03*
X75212000Y-77746000D03*
X74262000Y-77746000D03*
D55*
X73312000Y-88246000D03*
D56*
X73312000Y-82046000D03*
D57*
X73312000Y-92396000D03*
D56*
X84462000Y-77746000D03*
D58*
X86812000Y-92846000D03*
%TD*%
D10*
%TO.C,C44*%
X96139000Y-74168000D03*
X96139000Y-72618000D03*
%TD*%
D14*
%TO.C,C115*%
X41783000Y-30848000D03*
X41783000Y-32398000D03*
%TD*%
D46*
%TO.C,D17*%
X77080000Y-13208000D03*
X72780000Y-13208000D03*
%TD*%
D26*
%TO.C,C142*%
X20258000Y-80811000D03*
X18708000Y-80811000D03*
%TD*%
D42*
%TO.C,T4*%
X21248000Y-18073000D03*
X21248000Y-19773000D03*
X22948000Y-18073000D03*
X22948000Y-19773000D03*
D43*
X24353000Y-17018000D03*
X24353000Y-18288000D03*
X24353000Y-19558000D03*
X24353000Y-20828000D03*
D44*
X18548000Y-17018000D03*
X18548000Y-18288000D03*
X18548000Y-19558000D03*
X18548000Y-20828000D03*
%TD*%
D10*
%TO.C,C5*%
X77851000Y-63513000D03*
X77851000Y-61963000D03*
%TD*%
D59*
%TO.C,U7*%
X151003000Y-74594974D03*
X149733000Y-74594974D03*
X148463000Y-74594974D03*
X147193000Y-74594974D03*
X145923000Y-74594974D03*
X144653000Y-74594974D03*
X143383000Y-74594974D03*
X142113000Y-74594974D03*
X140843000Y-74594974D03*
X139573000Y-74594974D03*
X138303000Y-74594974D03*
X137033000Y-74594974D03*
X135763000Y-74594974D03*
X134493000Y-74594974D03*
X133223000Y-74594974D03*
X131953000Y-74594974D03*
X131953000Y-89235026D03*
X133223000Y-89235026D03*
X134493000Y-89235026D03*
X135763000Y-89235026D03*
X137033000Y-89235026D03*
X138303000Y-89235026D03*
X139573000Y-89235026D03*
X140843000Y-89235026D03*
X142113000Y-89235026D03*
X143383000Y-89235026D03*
X144653000Y-89235026D03*
X145923000Y-89235026D03*
X147193000Y-89235026D03*
X148463000Y-89235026D03*
X149733000Y-89235026D03*
X151003000Y-89235026D03*
%TD*%
D26*
%TO.C,C28*%
X105804000Y-54483000D03*
X104254000Y-54483000D03*
%TD*%
D51*
%TO.C,C11*%
X70170000Y-70612000D03*
X72070000Y-70612000D03*
%TD*%
D19*
%TO.C,C59*%
X157467000Y-54483000D03*
X159017000Y-54483000D03*
%TD*%
D60*
%TO.C,RN4*%
X32494000Y-63324000D03*
X31694000Y-63324000D03*
X30894000Y-63324000D03*
X30094000Y-63324000D03*
X30094000Y-65024000D03*
X30894000Y-65024000D03*
X31694000Y-65024000D03*
X32494000Y-65024000D03*
%TD*%
D10*
%TO.C,C145*%
X93599000Y-40399000D03*
X93599000Y-38849000D03*
%TD*%
D12*
%TO.C,R8*%
X109410000Y-58039000D03*
X107760000Y-58039000D03*
%TD*%
D37*
%TO.C,R43*%
X43561000Y-25949500D03*
X43561000Y-20024500D03*
%TD*%
D15*
%TO.C,U10*%
X153228000Y-52826500D03*
X154178000Y-52826500D03*
X155128000Y-52826500D03*
X155128000Y-50551500D03*
X154178000Y-50551500D03*
X153228000Y-50551500D03*
%TD*%
D19*
%TO.C,C58*%
X117462000Y-46482000D03*
X119012000Y-46482000D03*
%TD*%
D26*
%TO.C,C141*%
X13146000Y-80811000D03*
X11596000Y-80811000D03*
%TD*%
D39*
%TO.C,R76*%
X141478000Y-23979500D03*
X141478000Y-25804500D03*
%TD*%
D60*
%TO.C,RN3*%
X17254000Y-63324000D03*
X16454000Y-63324000D03*
X15654000Y-63324000D03*
X14854000Y-63324000D03*
X14854000Y-65024000D03*
X15654000Y-65024000D03*
X16454000Y-65024000D03*
X17254000Y-65024000D03*
%TD*%
D36*
%TO.C,R44*%
X57988200Y-39713400D03*
X57988200Y-41363400D03*
%TD*%
D10*
%TO.C,C39*%
X99060000Y-46876000D03*
X99060000Y-45326000D03*
%TD*%
D12*
%TO.C,R41*%
X44259000Y-17780000D03*
X42609000Y-17780000D03*
%TD*%
D23*
%TO.C,C136*%
X141400000Y-21336000D03*
X144350000Y-21336000D03*
%TD*%
D51*
%TO.C,C82*%
X123357600Y-53898800D03*
X125257600Y-53898800D03*
%TD*%
D14*
%TO.C,C114*%
X43434000Y-30848000D03*
X43434000Y-32398000D03*
%TD*%
D12*
%TO.C,R34*%
X29908000Y-35306000D03*
X28258000Y-35306000D03*
%TD*%
D28*
%TO.C,D4*%
X3302000Y-45178000D03*
X3302000Y-47278000D03*
%TD*%
D11*
%TO.C,U31*%
X21388000Y-67739000D03*
X20118000Y-67739000D03*
X18848000Y-67739000D03*
X17578000Y-67739000D03*
X17578000Y-78389000D03*
X18848000Y-78389000D03*
X20118000Y-78389000D03*
X21388000Y-78389000D03*
%TD*%
D46*
%TO.C,D23*%
X113529000Y-24765000D03*
X109229000Y-24765000D03*
%TD*%
D26*
%TO.C,C98*%
X121933000Y-74930000D03*
X120383000Y-74930000D03*
%TD*%
D50*
%TO.C,D20*%
X100950000Y-37068000D03*
X102250000Y-37068000D03*
X101600000Y-35068000D03*
%TD*%
D10*
%TO.C,C40*%
X86741000Y-46876000D03*
X86741000Y-45326000D03*
%TD*%
D36*
%TO.C,R56*%
X100330000Y-24117000D03*
X100330000Y-25767000D03*
%TD*%
D26*
%TO.C,C144*%
X35625000Y-80811000D03*
X34075000Y-80811000D03*
%TD*%
%TO.C,C69*%
X136665000Y-58674000D03*
X135115000Y-58674000D03*
%TD*%
D27*
%TO.C,R36*%
X24956000Y-35315500D03*
X26606000Y-35315500D03*
%TD*%
D19*
%TO.C,C91*%
X107810000Y-64770000D03*
X109360000Y-64770000D03*
%TD*%
D10*
%TO.C,C57*%
X146431000Y-48146000D03*
X146431000Y-46596000D03*
%TD*%
D19*
%TO.C,C35*%
X81140000Y-62611000D03*
X82690000Y-62611000D03*
%TD*%
D60*
%TO.C,RN1*%
X134182000Y-71589000D03*
X134982000Y-71589000D03*
X135782000Y-71589000D03*
X136582000Y-71589000D03*
X136582000Y-69889000D03*
X135782000Y-69889000D03*
X134982000Y-69889000D03*
X134182000Y-69889000D03*
%TD*%
D10*
%TO.C,C12*%
X105664000Y-5588000D03*
X105664000Y-4038000D03*
%TD*%
D14*
%TO.C,C117*%
X73152000Y-39611000D03*
X73152000Y-41161000D03*
%TD*%
D12*
%TO.C,R19*%
X116268000Y-80137000D03*
X114618000Y-80137000D03*
%TD*%
D27*
%TO.C,R16*%
X104204000Y-64770000D03*
X105854000Y-64770000D03*
%TD*%
D36*
%TO.C,R12*%
X151130000Y-53785000D03*
X151130000Y-55435000D03*
%TD*%
D12*
%TO.C,R71*%
X113220000Y-35306000D03*
X111570000Y-35306000D03*
%TD*%
D61*
%TO.C,U16*%
X93212500Y-84389000D03*
X93212500Y-83439000D03*
X93212500Y-82489000D03*
X90937500Y-82489000D03*
X90937500Y-84389000D03*
%TD*%
D23*
%TO.C,C112*%
X52119000Y-21336000D03*
X55069000Y-21336000D03*
%TD*%
D12*
%TO.C,R52*%
X75501000Y-35179000D03*
X73851000Y-35179000D03*
%TD*%
D13*
%TO.C,D36*%
X25400000Y-64961500D03*
X25400000Y-63386500D03*
%TD*%
D42*
%TO.C,T10*%
X111179000Y-29630000D03*
X111179000Y-31330000D03*
X112879000Y-29630000D03*
X112879000Y-31330000D03*
D43*
X114284000Y-28575000D03*
X114284000Y-29845000D03*
X114284000Y-31115000D03*
X114284000Y-32385000D03*
D44*
X108479000Y-28575000D03*
X108479000Y-29845000D03*
X108479000Y-31115000D03*
X108479000Y-32385000D03*
%TD*%
D46*
%TO.C,D16*%
X69206000Y-24765000D03*
X64906000Y-24765000D03*
%TD*%
D62*
%TO.C,C15*%
X146939000Y-7047500D03*
X146939000Y-13272500D03*
%TD*%
D36*
%TO.C,R9*%
X96139000Y-76645000D03*
X96139000Y-78295000D03*
%TD*%
D21*
%TO.C,D27*%
X137414000Y-20837000D03*
X137414000Y-25137000D03*
%TD*%
D46*
%TO.C,D10*%
X23613000Y-13208000D03*
X19313000Y-13208000D03*
%TD*%
D24*
%TO.C,U21*%
X67183000Y-42961000D03*
X68453000Y-42961000D03*
X69723000Y-42961000D03*
X70993000Y-42961000D03*
X70993000Y-37811000D03*
X69723000Y-37811000D03*
X68453000Y-37811000D03*
X67183000Y-37811000D03*
%TD*%
D15*
%TO.C,U26*%
X136464000Y-12440500D03*
X137414000Y-12440500D03*
X138364000Y-12440500D03*
X138364000Y-10165500D03*
X136464000Y-10165500D03*
%TD*%
D12*
%TO.C,R14*%
X15430000Y-39624000D03*
X13780000Y-39624000D03*
%TD*%
D27*
%TO.C,R33*%
X18352000Y-35306000D03*
X20002000Y-35306000D03*
%TD*%
D46*
%TO.C,D18*%
X69206000Y-13208000D03*
X64906000Y-13208000D03*
%TD*%
D36*
%TO.C,R74*%
X145288000Y-24067000D03*
X145288000Y-25717000D03*
%TD*%
D27*
%TO.C,R72*%
X114872000Y-35306000D03*
X116522000Y-35306000D03*
%TD*%
D46*
%TO.C,D26*%
X113529000Y-13208000D03*
X109229000Y-13208000D03*
%TD*%
D20*
%TO.C,L8*%
X156337000Y-41529000D03*
X156337000Y-47371000D03*
%TD*%
D42*
%TO.C,T1*%
X29137000Y-29630000D03*
X29137000Y-31330000D03*
X30837000Y-29630000D03*
X30837000Y-31330000D03*
D43*
X32242000Y-28575000D03*
X32242000Y-29845000D03*
X32242000Y-31115000D03*
X32242000Y-32385000D03*
D44*
X26437000Y-28575000D03*
X26437000Y-29845000D03*
X26437000Y-31115000D03*
X26437000Y-32385000D03*
%TD*%
D14*
%TO.C,C149*%
X134620000Y-10020000D03*
X134620000Y-11570000D03*
%TD*%
D63*
%TO.C,C51*%
X81407000Y-49130000D03*
X81407000Y-43580000D03*
%TD*%
D64*
%TO.C,U3*%
X105156000Y-8193000D03*
X103886000Y-8193000D03*
X102616000Y-8193000D03*
X101346000Y-8193000D03*
X101346000Y-13143000D03*
X102616000Y-13143000D03*
X103886000Y-13143000D03*
X105156000Y-13143000D03*
%TD*%
D65*
%TO.C,R66*%
X95758000Y-36726500D03*
X95758000Y-34901500D03*
%TD*%
D26*
%TO.C,C14*%
X116358000Y-82169000D03*
X114808000Y-82169000D03*
%TD*%
D10*
%TO.C,C119*%
X102235000Y-18047000D03*
X102235000Y-16497000D03*
%TD*%
D14*
%TO.C,C133*%
X146939000Y-20434000D03*
X146939000Y-21984000D03*
%TD*%
D10*
%TO.C,C46*%
X85090000Y-46876000D03*
X85090000Y-45326000D03*
%TD*%
D38*
%TO.C,C9*%
X67752000Y-70612000D03*
X65852000Y-70612000D03*
%TD*%
D14*
%TO.C,C19*%
X99063000Y-10214000D03*
X99063000Y-11764000D03*
%TD*%
D26*
%TO.C,C88*%
X116091000Y-76962000D03*
X114541000Y-76962000D03*
%TD*%
D10*
%TO.C,C29*%
X52578000Y-81166000D03*
X52578000Y-79616000D03*
%TD*%
D27*
%TO.C,R20*%
X127191000Y-79629000D03*
X128841000Y-79629000D03*
%TD*%
D14*
%TO.C,C131*%
X91948000Y-38849000D03*
X91948000Y-40399000D03*
%TD*%
D50*
%TO.C,D28*%
X140320000Y-8239000D03*
X141620000Y-8239000D03*
X140970000Y-6239000D03*
%TD*%
D14*
%TO.C,C43*%
X101092000Y-68059000D03*
X101092000Y-69609000D03*
%TD*%
D27*
%TO.C,R69*%
X108268000Y-35306000D03*
X109918000Y-35306000D03*
%TD*%
D10*
%TO.C,C27*%
X54229000Y-81166000D03*
X54229000Y-79616000D03*
%TD*%
D66*
%TO.C,L1*%
X110028500Y-5588000D03*
X107903500Y-5588000D03*
%TD*%
D20*
%TO.C,L10*%
X123342400Y-56972200D03*
X123342400Y-62814200D03*
%TD*%
D17*
%TO.C,R27*%
X99949000Y-83756000D03*
X99949000Y-82106000D03*
%TD*%
D36*
%TO.C,R13*%
X151257000Y-46673000D03*
X151257000Y-48323000D03*
%TD*%
D29*
%TO.C,R2*%
X7554500Y-92710000D03*
X10479500Y-92710000D03*
%TD*%
D67*
%TO.C,T15*%
X13847000Y-43293000D03*
X13847000Y-42163000D03*
X13137000Y-43293000D03*
X13137000Y-42163000D03*
D68*
X12367000Y-43703000D03*
X12367000Y-43053000D03*
X12367000Y-42403000D03*
X12367000Y-41753000D03*
D69*
X15367000Y-43703000D03*
D68*
X15367000Y-43053000D03*
X15367000Y-42403000D03*
X15367000Y-41753000D03*
%TD*%
D26*
%TO.C,C41*%
X82690000Y-64262000D03*
X81140000Y-64262000D03*
%TD*%
D27*
%TO.C,R49*%
X70930000Y-45593000D03*
X72580000Y-45593000D03*
%TD*%
D13*
%TO.C,D33*%
X36755000Y-64961500D03*
X36755000Y-63386500D03*
%TD*%
D41*
%TO.C,C103*%
X101346000Y-86045000D03*
X101346000Y-87945000D03*
%TD*%
D10*
%TO.C,C108*%
X49022000Y-40399000D03*
X49022000Y-38849000D03*
%TD*%
D70*
%TO.C,U6*%
X101147000Y-63531000D03*
X101147000Y-63031000D03*
X101147000Y-62531000D03*
X101147000Y-62031000D03*
X101147000Y-61531000D03*
X101147000Y-61031000D03*
X101147000Y-60531000D03*
X101147000Y-60031000D03*
X101147000Y-59531000D03*
X101147000Y-59031000D03*
X101147000Y-58531000D03*
X101147000Y-58031000D03*
X101147000Y-57531000D03*
X101147000Y-57031000D03*
X101147000Y-56531000D03*
X101147000Y-56031000D03*
X101147000Y-55531000D03*
X101147000Y-55031000D03*
X101147000Y-54531000D03*
X101147000Y-54031000D03*
X101147000Y-53531000D03*
X101147000Y-53031000D03*
X101147000Y-52531000D03*
X101147000Y-52031000D03*
X101147000Y-51531000D03*
D71*
X99472000Y-49856000D03*
X98972000Y-49856000D03*
X98472000Y-49856000D03*
X97972000Y-49856000D03*
X97472000Y-49856000D03*
X96972000Y-49856000D03*
X96472000Y-49856000D03*
X95972000Y-49856000D03*
X95472000Y-49856000D03*
X94972000Y-49856000D03*
X94472000Y-49856000D03*
X93972000Y-49856000D03*
X93472000Y-49856000D03*
X92972000Y-49856000D03*
X92472000Y-49856000D03*
X91972000Y-49856000D03*
X91472000Y-49856000D03*
X90972000Y-49856000D03*
X90472000Y-49856000D03*
X89972000Y-49856000D03*
X89472000Y-49856000D03*
X88972000Y-49856000D03*
X88472000Y-49856000D03*
X87972000Y-49856000D03*
X87472000Y-49856000D03*
D70*
X85797000Y-51531000D03*
X85797000Y-52031000D03*
X85797000Y-52531000D03*
X85797000Y-53031000D03*
X85797000Y-53531000D03*
X85797000Y-54031000D03*
X85797000Y-54531000D03*
X85797000Y-55031000D03*
X85797000Y-55531000D03*
X85797000Y-56031000D03*
X85797000Y-56531000D03*
X85797000Y-57031000D03*
X85797000Y-57531000D03*
X85797000Y-58031000D03*
X85797000Y-58531000D03*
X85797000Y-59031000D03*
X85797000Y-59531000D03*
X85797000Y-60031000D03*
X85797000Y-60531000D03*
X85797000Y-61031000D03*
X85797000Y-61531000D03*
X85797000Y-62031000D03*
X85797000Y-62531000D03*
X85797000Y-63031000D03*
X85797000Y-63531000D03*
D71*
X87472000Y-65206000D03*
X87972000Y-65206000D03*
X88472000Y-65206000D03*
X88972000Y-65206000D03*
X89472000Y-65206000D03*
X89972000Y-65206000D03*
X90472000Y-65206000D03*
X90972000Y-65206000D03*
X91472000Y-65206000D03*
X91972000Y-65206000D03*
X92472000Y-65206000D03*
X92972000Y-65206000D03*
X93472000Y-65206000D03*
X93972000Y-65206000D03*
X94472000Y-65206000D03*
X94972000Y-65206000D03*
X95472000Y-65206000D03*
X95972000Y-65206000D03*
X96472000Y-65206000D03*
X96972000Y-65206000D03*
X97472000Y-65206000D03*
X97972000Y-65206000D03*
X98472000Y-65206000D03*
X98972000Y-65206000D03*
X99472000Y-65206000D03*
%TD*%
D14*
%TO.C,C113*%
X40132000Y-30848000D03*
X40132000Y-32398000D03*
%TD*%
D27*
%TO.C,R15*%
X104204000Y-61722000D03*
X105854000Y-61722000D03*
%TD*%
D13*
%TO.C,D35*%
X21388000Y-64961500D03*
X21388000Y-63386500D03*
%TD*%
D36*
%TO.C,R30*%
X111760000Y-82868000D03*
X111760000Y-84518000D03*
%TD*%
D42*
%TO.C,T3*%
X29137000Y-18073000D03*
X29137000Y-19773000D03*
X30837000Y-18073000D03*
X30837000Y-19773000D03*
D43*
X32242000Y-17018000D03*
X32242000Y-18288000D03*
X32242000Y-19558000D03*
X32242000Y-20828000D03*
D44*
X26437000Y-17018000D03*
X26437000Y-18288000D03*
X26437000Y-19558000D03*
X26437000Y-20828000D03*
%TD*%
D12*
%TO.C,R59*%
X88836000Y-17703000D03*
X87186000Y-17703000D03*
%TD*%
D50*
%TO.C,D13*%
X47864000Y-36814000D03*
X49164000Y-36814000D03*
X48514000Y-34814000D03*
%TD*%
D46*
%TO.C,D25*%
X121403000Y-13208000D03*
X117103000Y-13208000D03*
%TD*%
D12*
%TO.C,R22*%
X120955000Y-85979000D03*
X119305000Y-85979000D03*
%TD*%
%TO.C,R60*%
X88836000Y-16179000D03*
X87186000Y-16179000D03*
%TD*%
D39*
%TO.C,R57*%
X98552000Y-24029500D03*
X98552000Y-25854500D03*
%TD*%
D72*
%TO.C,D14*%
X92599000Y-16291000D03*
X92599000Y-17591000D03*
X94599000Y-16941000D03*
%TD*%
D23*
%TO.C,C20*%
X67232000Y-91313000D03*
X70182000Y-91313000D03*
%TD*%
D73*
%TO.C,X1*%
X108268000Y-53687000D03*
X108268000Y-55787000D03*
X109918000Y-55787000D03*
X109918000Y-53687000D03*
%TD*%
D15*
%TO.C,U22*%
X97094000Y-41269500D03*
X98044000Y-41269500D03*
X98994000Y-41269500D03*
X98994000Y-38994500D03*
X97094000Y-38994500D03*
%TD*%
D46*
%TO.C,D6*%
X31487000Y-24765000D03*
X27187000Y-24765000D03*
%TD*%
D10*
%TO.C,C45*%
X100711000Y-46876000D03*
X100711000Y-45326000D03*
%TD*%
D15*
%TO.C,U18*%
X52517000Y-41269500D03*
X53467000Y-41269500D03*
X54417000Y-41269500D03*
X54417000Y-38994500D03*
X52517000Y-38994500D03*
%TD*%
D26*
%TO.C,C34*%
X105804000Y-56261000D03*
X104254000Y-56261000D03*
%TD*%
D61*
%TO.C,U11*%
X137535500Y-56703000D03*
X137535500Y-55753000D03*
X137535500Y-54803000D03*
X135260500Y-54803000D03*
X135260500Y-55753000D03*
X135260500Y-56703000D03*
%TD*%
D60*
%TO.C,RN2*%
X140532000Y-71589000D03*
X141332000Y-71589000D03*
X142132000Y-71589000D03*
X142932000Y-71589000D03*
X142932000Y-69889000D03*
X142132000Y-69889000D03*
X141332000Y-69889000D03*
X140532000Y-69889000D03*
%TD*%
D19*
%TO.C,C104*%
X90538000Y-86487000D03*
X92088000Y-86487000D03*
%TD*%
D23*
%TO.C,C73*%
X135177000Y-60833000D03*
X138127000Y-60833000D03*
%TD*%
D19*
%TO.C,C96*%
X127241000Y-77597000D03*
X128791000Y-77597000D03*
%TD*%
D67*
%TO.C,T14*%
X149396000Y-68452000D03*
X149396000Y-69582000D03*
X150106000Y-68452000D03*
X150106000Y-69582000D03*
D68*
X150876000Y-68042000D03*
X150876000Y-68692000D03*
X150876000Y-69342000D03*
X150876000Y-69992000D03*
D69*
X147876000Y-68042000D03*
D68*
X147876000Y-68692000D03*
X147876000Y-69342000D03*
X147876000Y-69992000D03*
%TD*%
D14*
%TO.C,C147*%
X131318000Y-10020000D03*
X131318000Y-11570000D03*
%TD*%
D74*
%TO.C,U12*%
X154057000Y-20153000D03*
D75*
X154812000Y-15528000D03*
X157862000Y-15528000D03*
X154812000Y-12178000D03*
X157862000Y-12178000D03*
D74*
X158617000Y-20153000D03*
%TD*%
D19*
%TO.C,C31*%
X104254000Y-52832000D03*
X105804000Y-52832000D03*
%TD*%
D26*
%TO.C,C47*%
X82690000Y-65913000D03*
X81140000Y-65913000D03*
%TD*%
D76*
%TO.C,L4*%
X157353000Y-56945000D03*
D77*
X157353000Y-59895000D03*
%TD*%
D39*
%TO.C,R40*%
X52070000Y-23979500D03*
X52070000Y-25804500D03*
%TD*%
D50*
%TO.C,D21*%
X92441000Y-36814000D03*
X93741000Y-36814000D03*
X93091000Y-34814000D03*
%TD*%
D11*
%TO.C,U30*%
X36755000Y-67739000D03*
X35485000Y-67739000D03*
X34215000Y-67739000D03*
X32945000Y-67739000D03*
X32945000Y-78389000D03*
X34215000Y-78389000D03*
X35485000Y-78389000D03*
X36755000Y-78389000D03*
%TD*%
D78*
%TO.C,L7*%
X130302000Y-59754000D03*
X130302000Y-55054000D03*
%TD*%
D25*
%TO.C,C81*%
X150749000Y-31049000D03*
X150749000Y-29149000D03*
%TD*%
D32*
%TO.C,C75*%
X151208000Y-41529000D03*
X148258000Y-41529000D03*
%TD*%
D39*
%TO.C,R39*%
X54102000Y-23979500D03*
X54102000Y-25804500D03*
%TD*%
D13*
%TO.C,D30*%
X10466000Y-64961500D03*
X10466000Y-63386500D03*
%TD*%
D14*
%TO.C,C87*%
X47371000Y-38849000D03*
X47371000Y-40399000D03*
%TD*%
D10*
%TO.C,C134*%
X146939000Y-25667000D03*
X146939000Y-24117000D03*
%TD*%
D42*
%TO.C,T11*%
X119053000Y-18073000D03*
X119053000Y-19773000D03*
X120753000Y-18073000D03*
X120753000Y-19773000D03*
D43*
X122158000Y-17018000D03*
X122158000Y-18288000D03*
X122158000Y-19558000D03*
X122158000Y-20828000D03*
D44*
X116353000Y-17018000D03*
X116353000Y-18288000D03*
X116353000Y-19558000D03*
X116353000Y-20828000D03*
%TD*%
D42*
%TO.C,T12*%
X111179000Y-18073000D03*
X111179000Y-19773000D03*
X112879000Y-18073000D03*
X112879000Y-19773000D03*
D43*
X114284000Y-17018000D03*
X114284000Y-18288000D03*
X114284000Y-19558000D03*
X114284000Y-20828000D03*
D44*
X108479000Y-17018000D03*
X108479000Y-18288000D03*
X108479000Y-19558000D03*
X108479000Y-20828000D03*
%TD*%
D17*
%TO.C,R64*%
X100965000Y-41465000D03*
X100965000Y-39815000D03*
%TD*%
D36*
%TO.C,R24*%
X127635000Y-82868000D03*
X127635000Y-84518000D03*
%TD*%
D12*
%TO.C,R42*%
X44259000Y-16256000D03*
X42609000Y-16256000D03*
%TD*%
D42*
%TO.C,T6*%
X66856000Y-29630000D03*
X66856000Y-31330000D03*
X68556000Y-29630000D03*
X68556000Y-31330000D03*
D43*
X69961000Y-28575000D03*
X69961000Y-29845000D03*
X69961000Y-31115000D03*
X69961000Y-32385000D03*
D44*
X64156000Y-28575000D03*
X64156000Y-29845000D03*
X64156000Y-31115000D03*
X64156000Y-32385000D03*
%TD*%
D13*
%TO.C,D37*%
X28119000Y-64961500D03*
X28119000Y-63386500D03*
%TD*%
D46*
%TO.C,D15*%
X77080000Y-24765000D03*
X72780000Y-24765000D03*
%TD*%
%TO.C,D7*%
X23613000Y-24765000D03*
X19313000Y-24765000D03*
%TD*%
D19*
%TO.C,C32*%
X104254000Y-58039000D03*
X105804000Y-58039000D03*
%TD*%
D14*
%TO.C,C126*%
X87884000Y-30848000D03*
X87884000Y-32398000D03*
%TD*%
D65*
%TO.C,R48*%
X51181000Y-36726500D03*
X51181000Y-34901500D03*
%TD*%
D10*
%TO.C,C132*%
X145288000Y-18174000D03*
X145288000Y-16624000D03*
%TD*%
D19*
%TO.C,C95*%
X105905000Y-74676000D03*
X107455000Y-74676000D03*
%TD*%
D26*
%TO.C,C16*%
X99962000Y-80518000D03*
X98412000Y-80518000D03*
%TD*%
D42*
%TO.C,T5*%
X74730000Y-29630000D03*
X74730000Y-31330000D03*
X76430000Y-29630000D03*
X76430000Y-31330000D03*
D43*
X77835000Y-28575000D03*
X77835000Y-29845000D03*
X77835000Y-31115000D03*
X77835000Y-32385000D03*
D44*
X72030000Y-28575000D03*
X72030000Y-29845000D03*
X72030000Y-31115000D03*
X72030000Y-32385000D03*
%TD*%
D14*
%TO.C,C92*%
X125603000Y-85966000D03*
X125603000Y-87516000D03*
%TD*%
D24*
%TO.C,U25*%
X110109000Y-42961000D03*
X111379000Y-42961000D03*
X112649000Y-42961000D03*
X113919000Y-42961000D03*
X113919000Y-37811000D03*
X112649000Y-37811000D03*
X111379000Y-37811000D03*
X110109000Y-37811000D03*
%TD*%
D21*
%TO.C,D11*%
X48006000Y-20837000D03*
X48006000Y-25137000D03*
%TD*%
D10*
%TO.C,C6*%
X77851000Y-59703000D03*
X77851000Y-58153000D03*
%TD*%
D65*
%TO.C,R84*%
X135128000Y-7897500D03*
X135128000Y-6072500D03*
%TD*%
D10*
%TO.C,C120*%
X100584000Y-18047000D03*
X100584000Y-16497000D03*
%TD*%
D12*
%TO.C,R28*%
X104965000Y-85979000D03*
X103315000Y-85979000D03*
%TD*%
D42*
%TO.C,T8*%
X66856000Y-18073000D03*
X66856000Y-19773000D03*
X68556000Y-18073000D03*
X68556000Y-19773000D03*
D43*
X69961000Y-17018000D03*
X69961000Y-18288000D03*
X69961000Y-19558000D03*
X69961000Y-20828000D03*
D44*
X64156000Y-17018000D03*
X64156000Y-18288000D03*
X64156000Y-19558000D03*
X64156000Y-20828000D03*
%TD*%
D14*
%TO.C,C127*%
X86233000Y-30848000D03*
X86233000Y-32398000D03*
%TD*%
D79*
%TO.C,L12*%
X3302000Y-41503500D03*
X3302000Y-43078500D03*
%TD*%
D14*
%TO.C,C78*%
X140175000Y-46746000D03*
X140175000Y-48296000D03*
%TD*%
D72*
%TO.C,D8*%
X48022000Y-16368000D03*
X48022000Y-17668000D03*
X50022000Y-17018000D03*
%TD*%
D12*
%TO.C,R21*%
X116395000Y-83820000D03*
X114745000Y-83820000D03*
%TD*%
D17*
%TO.C,R82*%
X140335000Y-12509000D03*
X140335000Y-10859000D03*
%TD*%
D15*
%TO.C,U23*%
X96586000Y-18078500D03*
X97536000Y-18078500D03*
X98486000Y-18078500D03*
X98486000Y-15803500D03*
X96586000Y-15803500D03*
%TD*%
D10*
%TO.C,C68*%
X151130000Y-51842000D03*
X151130000Y-50292000D03*
%TD*%
%TO.C,C21*%
X97412000Y-8208000D03*
X97412000Y-6658000D03*
%TD*%
D33*
%TO.C,U14*%
X120296000Y-81761000D03*
X121666000Y-81761000D03*
X123036000Y-81761000D03*
X120296000Y-80391000D03*
X121666000Y-80391000D03*
X123036000Y-80391000D03*
X120296000Y-79021000D03*
X121666000Y-79021000D03*
X123036000Y-79021000D03*
D34*
X118916000Y-83828500D03*
X119416000Y-83828500D03*
X119916000Y-83828500D03*
X120416000Y-83828500D03*
X120916000Y-83828500D03*
X121416000Y-83828500D03*
X121916000Y-83828500D03*
X122416000Y-83828500D03*
X122916000Y-83828500D03*
X123416000Y-83828500D03*
X123916000Y-83828500D03*
X124416000Y-83828500D03*
D35*
X125103500Y-83141000D03*
X125103500Y-82641000D03*
X125103500Y-82141000D03*
X125103500Y-81641000D03*
X125103500Y-81141000D03*
X125103500Y-80641000D03*
X125103500Y-80141000D03*
X125103500Y-79641000D03*
X125103500Y-79141000D03*
X125103500Y-78641000D03*
X125103500Y-78141000D03*
X125103500Y-77641000D03*
D34*
X124416000Y-76953500D03*
X123916000Y-76953500D03*
X123416000Y-76953500D03*
X122916000Y-76953500D03*
X122416000Y-76953500D03*
X121916000Y-76953500D03*
X121416000Y-76953500D03*
X120916000Y-76953500D03*
X120416000Y-76953500D03*
X119916000Y-76953500D03*
X119416000Y-76953500D03*
X118916000Y-76953500D03*
D35*
X118228500Y-77641000D03*
X118228500Y-78141000D03*
X118228500Y-78641000D03*
X118228500Y-79141000D03*
X118228500Y-79641000D03*
X118228500Y-80141000D03*
X118228500Y-80641000D03*
X118228500Y-81141000D03*
X118228500Y-81641000D03*
X118228500Y-82141000D03*
X118228500Y-82641000D03*
X118228500Y-83141000D03*
%TD*%
D12*
%TO.C,R17*%
X116268000Y-78613000D03*
X114618000Y-78613000D03*
%TD*%
D80*
%TO.C,C48*%
X117348000Y-57016600D03*
X117348000Y-62566600D03*
%TD*%
D37*
%TO.C,R79*%
X132969000Y-25949500D03*
X132969000Y-20024500D03*
%TD*%
D14*
%TO.C,C53*%
X153670000Y-59931000D03*
X153670000Y-61481000D03*
%TD*%
D10*
%TO.C,C109*%
X59182000Y-17793000D03*
X59182000Y-16243000D03*
%TD*%
D27*
%TO.C,R47*%
X53023000Y-36703000D03*
X54673000Y-36703000D03*
%TD*%
M02*
