%TF.GenerationSoftware,KiCad,Pcbnew,7.0.1*%
%TF.CreationDate,2023-11-30T10:22:41+01:00*%
%TF.ProjectId,current3x3A_Artiq,63757272-656e-4743-9378-33415f417274,rev?*%
%TF.SameCoordinates,Original*%
%TF.FileFunction,Legend,Bot*%
%TF.FilePolarity,Positive*%
%FSLAX46Y46*%
G04 Gerber Fmt 4.6, Leading zero omitted, Abs format (unit mm)*
G04 Created by KiCad (PCBNEW 7.0.1) date 2023-11-30 10:22:41*
%MOMM*%
%LPD*%
G01*
G04 APERTURE LIST*
G04 Aperture macros list*
%AMRoundRect*
0 Rectangle with rounded corners*
0 $1 Rounding radius*
0 $2 $3 $4 $5 $6 $7 $8 $9 X,Y pos of 4 corners*
0 Add a 4 corners polygon primitive as box body*
4,1,4,$2,$3,$4,$5,$6,$7,$8,$9,$2,$3,0*
0 Add four circle primitives for the rounded corners*
1,1,$1+$1,$2,$3*
1,1,$1+$1,$4,$5*
1,1,$1+$1,$6,$7*
1,1,$1+$1,$8,$9*
0 Add four rect primitives between the rounded corners*
20,1,$1+$1,$2,$3,$4,$5,0*
20,1,$1+$1,$4,$5,$6,$7,0*
20,1,$1+$1,$6,$7,$8,$9,0*
20,1,$1+$1,$8,$9,$2,$3,0*%
G04 Aperture macros list end*
%ADD10C,0.220000*%
%ADD11C,0.600000*%
%ADD12C,0.400000*%
%ADD13C,0.300000*%
%ADD14C,0.120000*%
%ADD15C,0.142240*%
%ADD16C,0.150000*%
%ADD17C,0.100000*%
%ADD18C,0.152400*%
%ADD19RoundRect,0.050000X-0.750000X-0.750000X0.750000X-0.750000X0.750000X0.750000X-0.750000X0.750000X0*%
%ADD20C,2.100000*%
%ADD21C,5.700000*%
%ADD22RoundRect,0.050000X-0.750000X0.750000X-0.750000X-0.750000X0.750000X-0.750000X0.750000X0.750000X0*%
%ADD23C,4.800000*%
%ADD24RoundRect,0.050000X1.200000X-1.200000X1.200000X1.200000X-1.200000X1.200000X-1.200000X-1.200000X0*%
%ADD25C,2.500000*%
%ADD26RoundRect,0.300000X-0.600000X0.600000X-0.600000X-0.600000X0.600000X-0.600000X0.600000X0.600000X0*%
%ADD27C,1.800000*%
%ADD28RoundRect,0.299999X-1.550001X0.790001X-1.550001X-0.790001X1.550001X-0.790001X1.550001X0.790001X0*%
%ADD29O,3.700000X2.180000*%
%ADD30C,5.800000*%
%ADD31RoundRect,0.050000X-0.850000X-0.850000X0.850000X-0.850000X0.850000X0.850000X-0.850000X0.850000X0*%
%ADD32O,1.800000X1.800000*%
%ADD33RoundRect,0.300000X0.600000X-0.600000X0.600000X0.600000X-0.600000X0.600000X-0.600000X-0.600000X0*%
%ADD34RoundRect,0.050000X0.900000X0.900000X-0.900000X0.900000X-0.900000X-0.900000X0.900000X-0.900000X0*%
%ADD35O,1.900000X1.900000*%
%ADD36RoundRect,0.299999X1.550001X-0.790001X1.550001X0.790001X-1.550001X0.790001X-1.550001X-0.790001X0*%
%ADD37RoundRect,0.300000X-0.600000X-0.600000X0.600000X-0.600000X0.600000X0.600000X-0.600000X0.600000X0*%
%ADD38O,1.600000X1.600000*%
%ADD39RoundRect,0.050000X-1.250000X0.850000X-1.250000X-0.850000X1.250000X-0.850000X1.250000X0.850000X0*%
%ADD40O,2.600000X1.800000*%
%ADD41RoundRect,0.101600X1.500000X0.975000X-1.500000X0.975000X-1.500000X-0.975000X1.500000X-0.975000X0*%
%ADD42O,4.103200X2.153200*%
%ADD43RoundRect,0.050000X0.800000X-0.800000X0.800000X0.800000X-0.800000X0.800000X-0.800000X-0.800000X0*%
%ADD44C,1.700000*%
G04 APERTURE END LIST*
D10*
X10167000Y-12041142D02*
X10167000Y-13184000D01*
X10738428Y-12612571D02*
X9595571Y-12612571D01*
X10738428Y-15755428D02*
X10738428Y-15041142D01*
X10738428Y-15041142D02*
X9238428Y-15041142D01*
X9238428Y-16112571D02*
X9238428Y-17041143D01*
X9238428Y-17041143D02*
X9809857Y-16541143D01*
X9809857Y-16541143D02*
X9809857Y-16755428D01*
X9809857Y-16755428D02*
X9881285Y-16898286D01*
X9881285Y-16898286D02*
X9952714Y-16969714D01*
X9952714Y-16969714D02*
X10095571Y-17041143D01*
X10095571Y-17041143D02*
X10452714Y-17041143D01*
X10452714Y-17041143D02*
X10595571Y-16969714D01*
X10595571Y-16969714D02*
X10667000Y-16898286D01*
X10667000Y-16898286D02*
X10738428Y-16755428D01*
X10738428Y-16755428D02*
X10738428Y-16326857D01*
X10738428Y-16326857D02*
X10667000Y-16184000D01*
X10667000Y-16184000D02*
X10595571Y-16112571D01*
X10167000Y-18826856D02*
X10167000Y-19969714D01*
D11*
X133778714Y-71641857D02*
X133778714Y-68641857D01*
X133778714Y-68641857D02*
X132064428Y-71641857D01*
X132064428Y-71641857D02*
X132064428Y-68641857D01*
X128921571Y-71356142D02*
X129064428Y-71499000D01*
X129064428Y-71499000D02*
X129493000Y-71641857D01*
X129493000Y-71641857D02*
X129778714Y-71641857D01*
X129778714Y-71641857D02*
X130207285Y-71499000D01*
X130207285Y-71499000D02*
X130493000Y-71213285D01*
X130493000Y-71213285D02*
X130635857Y-70927571D01*
X130635857Y-70927571D02*
X130778714Y-70356142D01*
X130778714Y-70356142D02*
X130778714Y-69927571D01*
X130778714Y-69927571D02*
X130635857Y-69356142D01*
X130635857Y-69356142D02*
X130493000Y-69070428D01*
X130493000Y-69070428D02*
X130207285Y-68784714D01*
X130207285Y-68784714D02*
X129778714Y-68641857D01*
X129778714Y-68641857D02*
X129493000Y-68641857D01*
X129493000Y-68641857D02*
X129064428Y-68784714D01*
X129064428Y-68784714D02*
X128921571Y-68927571D01*
X127635857Y-68641857D02*
X127635857Y-71070428D01*
X127635857Y-71070428D02*
X127493000Y-71356142D01*
X127493000Y-71356142D02*
X127350143Y-71499000D01*
X127350143Y-71499000D02*
X127064428Y-71641857D01*
X127064428Y-71641857D02*
X126493000Y-71641857D01*
X126493000Y-71641857D02*
X126207285Y-71499000D01*
X126207285Y-71499000D02*
X126064428Y-71356142D01*
X126064428Y-71356142D02*
X125921571Y-71070428D01*
X125921571Y-71070428D02*
X125921571Y-68641857D01*
X122635857Y-68641857D02*
X120921572Y-68641857D01*
X121778714Y-71641857D02*
X121778714Y-68641857D01*
X119493000Y-71641857D02*
X119778715Y-71499000D01*
X119778715Y-71499000D02*
X119921572Y-71356142D01*
X119921572Y-71356142D02*
X120064429Y-71070428D01*
X120064429Y-71070428D02*
X120064429Y-70213285D01*
X120064429Y-70213285D02*
X119921572Y-69927571D01*
X119921572Y-69927571D02*
X119778715Y-69784714D01*
X119778715Y-69784714D02*
X119493000Y-69641857D01*
X119493000Y-69641857D02*
X119064429Y-69641857D01*
X119064429Y-69641857D02*
X118778715Y-69784714D01*
X118778715Y-69784714D02*
X118635858Y-69927571D01*
X118635858Y-69927571D02*
X118493000Y-70213285D01*
X118493000Y-70213285D02*
X118493000Y-71070428D01*
X118493000Y-71070428D02*
X118635858Y-71356142D01*
X118635858Y-71356142D02*
X118778715Y-71499000D01*
X118778715Y-71499000D02*
X119064429Y-71641857D01*
X119064429Y-71641857D02*
X119493000Y-71641857D01*
X117207286Y-71641857D02*
X117207286Y-69641857D01*
X117207286Y-70213285D02*
X117064429Y-69927571D01*
X117064429Y-69927571D02*
X116921572Y-69784714D01*
X116921572Y-69784714D02*
X116635857Y-69641857D01*
X116635857Y-69641857D02*
X116350143Y-69641857D01*
X114064429Y-69641857D02*
X114064429Y-71641857D01*
X115350143Y-69641857D02*
X115350143Y-71213285D01*
X115350143Y-71213285D02*
X115207286Y-71499000D01*
X115207286Y-71499000D02*
X114921571Y-71641857D01*
X114921571Y-71641857D02*
X114493000Y-71641857D01*
X114493000Y-71641857D02*
X114207286Y-71499000D01*
X114207286Y-71499000D02*
X114064429Y-71356142D01*
X112635857Y-69641857D02*
X112635857Y-71641857D01*
X112635857Y-69927571D02*
X112493000Y-69784714D01*
X112493000Y-69784714D02*
X112207285Y-69641857D01*
X112207285Y-69641857D02*
X111778714Y-69641857D01*
X111778714Y-69641857D02*
X111493000Y-69784714D01*
X111493000Y-69784714D02*
X111350143Y-70070428D01*
X111350143Y-70070428D02*
X111350143Y-71641857D01*
X111778714Y-68499000D02*
X112207285Y-68927571D01*
D10*
X10167000Y-32361142D02*
X10167000Y-33504000D01*
X10738428Y-32932571D02*
X9595571Y-32932571D01*
X10738428Y-36075428D02*
X10738428Y-35361142D01*
X10738428Y-35361142D02*
X9238428Y-35361142D01*
X10738428Y-37361143D02*
X10738428Y-36504000D01*
X10738428Y-36932571D02*
X9238428Y-36932571D01*
X9238428Y-36932571D02*
X9452714Y-36789714D01*
X9452714Y-36789714D02*
X9595571Y-36646857D01*
X9595571Y-36646857D02*
X9667000Y-36504000D01*
X10167000Y-39146856D02*
X10167000Y-40289714D01*
X150756000Y-67159142D02*
X150756000Y-68302000D01*
X151327428Y-67730571D02*
X150184571Y-67730571D01*
X151327428Y-69802000D02*
X151327428Y-68944857D01*
X151327428Y-69373428D02*
X149827428Y-69373428D01*
X149827428Y-69373428D02*
X150041714Y-69230571D01*
X150041714Y-69230571D02*
X150184571Y-69087714D01*
X150184571Y-69087714D02*
X150256000Y-68944857D01*
X149970285Y-70373428D02*
X149898857Y-70444856D01*
X149898857Y-70444856D02*
X149827428Y-70587714D01*
X149827428Y-70587714D02*
X149827428Y-70944856D01*
X149827428Y-70944856D02*
X149898857Y-71087714D01*
X149898857Y-71087714D02*
X149970285Y-71159142D01*
X149970285Y-71159142D02*
X150113142Y-71230571D01*
X150113142Y-71230571D02*
X150256000Y-71230571D01*
X150256000Y-71230571D02*
X150470285Y-71159142D01*
X150470285Y-71159142D02*
X151327428Y-70301999D01*
X151327428Y-70301999D02*
X151327428Y-71230571D01*
X149827428Y-71659142D02*
X151327428Y-72159142D01*
X151327428Y-72159142D02*
X149827428Y-72659142D01*
D12*
X84867952Y-86621761D02*
X84963190Y-86717000D01*
X84963190Y-86717000D02*
X85248904Y-86812238D01*
X85248904Y-86812238D02*
X85439380Y-86812238D01*
X85439380Y-86812238D02*
X85725095Y-86717000D01*
X85725095Y-86717000D02*
X85915571Y-86526523D01*
X85915571Y-86526523D02*
X86010809Y-86336047D01*
X86010809Y-86336047D02*
X86106047Y-85955095D01*
X86106047Y-85955095D02*
X86106047Y-85669380D01*
X86106047Y-85669380D02*
X86010809Y-85288428D01*
X86010809Y-85288428D02*
X85915571Y-85097952D01*
X85915571Y-85097952D02*
X85725095Y-84907476D01*
X85725095Y-84907476D02*
X85439380Y-84812238D01*
X85439380Y-84812238D02*
X85248904Y-84812238D01*
X85248904Y-84812238D02*
X84963190Y-84907476D01*
X84963190Y-84907476D02*
X84867952Y-85002714D01*
X83725095Y-86812238D02*
X83915571Y-86717000D01*
X83915571Y-86717000D02*
X84010809Y-86621761D01*
X84010809Y-86621761D02*
X84106047Y-86431285D01*
X84106047Y-86431285D02*
X84106047Y-85859857D01*
X84106047Y-85859857D02*
X84010809Y-85669380D01*
X84010809Y-85669380D02*
X83915571Y-85574142D01*
X83915571Y-85574142D02*
X83725095Y-85478904D01*
X83725095Y-85478904D02*
X83439380Y-85478904D01*
X83439380Y-85478904D02*
X83248904Y-85574142D01*
X83248904Y-85574142D02*
X83153666Y-85669380D01*
X83153666Y-85669380D02*
X83058428Y-85859857D01*
X83058428Y-85859857D02*
X83058428Y-86431285D01*
X83058428Y-86431285D02*
X83153666Y-86621761D01*
X83153666Y-86621761D02*
X83248904Y-86717000D01*
X83248904Y-86717000D02*
X83439380Y-86812238D01*
X83439380Y-86812238D02*
X83725095Y-86812238D01*
X82201285Y-86812238D02*
X82201285Y-85478904D01*
X82201285Y-85669380D02*
X82106047Y-85574142D01*
X82106047Y-85574142D02*
X81915571Y-85478904D01*
X81915571Y-85478904D02*
X81629856Y-85478904D01*
X81629856Y-85478904D02*
X81439380Y-85574142D01*
X81439380Y-85574142D02*
X81344142Y-85764619D01*
X81344142Y-85764619D02*
X81344142Y-86812238D01*
X81344142Y-85764619D02*
X81248904Y-85574142D01*
X81248904Y-85574142D02*
X81058428Y-85478904D01*
X81058428Y-85478904D02*
X80772714Y-85478904D01*
X80772714Y-85478904D02*
X80582237Y-85574142D01*
X80582237Y-85574142D02*
X80486999Y-85764619D01*
X80486999Y-85764619D02*
X80486999Y-86812238D01*
X79534618Y-85478904D02*
X79534618Y-87478904D01*
X79534618Y-85574142D02*
X79344142Y-85478904D01*
X79344142Y-85478904D02*
X78963189Y-85478904D01*
X78963189Y-85478904D02*
X78772713Y-85574142D01*
X78772713Y-85574142D02*
X78677475Y-85669380D01*
X78677475Y-85669380D02*
X78582237Y-85859857D01*
X78582237Y-85859857D02*
X78582237Y-86431285D01*
X78582237Y-86431285D02*
X78677475Y-86621761D01*
X78677475Y-86621761D02*
X78772713Y-86717000D01*
X78772713Y-86717000D02*
X78963189Y-86812238D01*
X78963189Y-86812238D02*
X79344142Y-86812238D01*
X79344142Y-86812238D02*
X79534618Y-86717000D01*
X76963189Y-86717000D02*
X77153665Y-86812238D01*
X77153665Y-86812238D02*
X77534618Y-86812238D01*
X77534618Y-86812238D02*
X77725094Y-86717000D01*
X77725094Y-86717000D02*
X77820332Y-86526523D01*
X77820332Y-86526523D02*
X77820332Y-85764619D01*
X77820332Y-85764619D02*
X77725094Y-85574142D01*
X77725094Y-85574142D02*
X77534618Y-85478904D01*
X77534618Y-85478904D02*
X77153665Y-85478904D01*
X77153665Y-85478904D02*
X76963189Y-85574142D01*
X76963189Y-85574142D02*
X76867951Y-85764619D01*
X76867951Y-85764619D02*
X76867951Y-85955095D01*
X76867951Y-85955095D02*
X77820332Y-86145571D01*
X76010808Y-85478904D02*
X76010808Y-86812238D01*
X76010808Y-85669380D02*
X75915570Y-85574142D01*
X75915570Y-85574142D02*
X75725094Y-85478904D01*
X75725094Y-85478904D02*
X75439379Y-85478904D01*
X75439379Y-85478904D02*
X75248903Y-85574142D01*
X75248903Y-85574142D02*
X75153665Y-85764619D01*
X75153665Y-85764619D02*
X75153665Y-86812238D01*
X74296522Y-86717000D02*
X74106046Y-86812238D01*
X74106046Y-86812238D02*
X73725094Y-86812238D01*
X73725094Y-86812238D02*
X73534617Y-86717000D01*
X73534617Y-86717000D02*
X73439379Y-86526523D01*
X73439379Y-86526523D02*
X73439379Y-86431285D01*
X73439379Y-86431285D02*
X73534617Y-86240809D01*
X73534617Y-86240809D02*
X73725094Y-86145571D01*
X73725094Y-86145571D02*
X74010808Y-86145571D01*
X74010808Y-86145571D02*
X74201284Y-86050333D01*
X74201284Y-86050333D02*
X74296522Y-85859857D01*
X74296522Y-85859857D02*
X74296522Y-85764619D01*
X74296522Y-85764619D02*
X74201284Y-85574142D01*
X74201284Y-85574142D02*
X74010808Y-85478904D01*
X74010808Y-85478904D02*
X73725094Y-85478904D01*
X73725094Y-85478904D02*
X73534617Y-85574142D01*
X71725093Y-86812238D02*
X71725093Y-85764619D01*
X71725093Y-85764619D02*
X71820331Y-85574142D01*
X71820331Y-85574142D02*
X72010807Y-85478904D01*
X72010807Y-85478904D02*
X72391760Y-85478904D01*
X72391760Y-85478904D02*
X72582236Y-85574142D01*
X71725093Y-86717000D02*
X71915569Y-86812238D01*
X71915569Y-86812238D02*
X72391760Y-86812238D01*
X72391760Y-86812238D02*
X72582236Y-86717000D01*
X72582236Y-86717000D02*
X72677474Y-86526523D01*
X72677474Y-86526523D02*
X72677474Y-86336047D01*
X72677474Y-86336047D02*
X72582236Y-86145571D01*
X72582236Y-86145571D02*
X72391760Y-86050333D01*
X72391760Y-86050333D02*
X71915569Y-86050333D01*
X71915569Y-86050333D02*
X71725093Y-85955095D01*
X71058426Y-85478904D02*
X70296522Y-85478904D01*
X70772712Y-84812238D02*
X70772712Y-86526523D01*
X70772712Y-86526523D02*
X70677474Y-86717000D01*
X70677474Y-86717000D02*
X70486998Y-86812238D01*
X70486998Y-86812238D02*
X70296522Y-86812238D01*
X69629855Y-86812238D02*
X69629855Y-85478904D01*
X69629855Y-84812238D02*
X69725093Y-84907476D01*
X69725093Y-84907476D02*
X69629855Y-85002714D01*
X69629855Y-85002714D02*
X69534617Y-84907476D01*
X69534617Y-84907476D02*
X69629855Y-84812238D01*
X69629855Y-84812238D02*
X69629855Y-85002714D01*
X68391760Y-86812238D02*
X68582236Y-86717000D01*
X68582236Y-86717000D02*
X68677474Y-86621761D01*
X68677474Y-86621761D02*
X68772712Y-86431285D01*
X68772712Y-86431285D02*
X68772712Y-85859857D01*
X68772712Y-85859857D02*
X68677474Y-85669380D01*
X68677474Y-85669380D02*
X68582236Y-85574142D01*
X68582236Y-85574142D02*
X68391760Y-85478904D01*
X68391760Y-85478904D02*
X68106045Y-85478904D01*
X68106045Y-85478904D02*
X67915569Y-85574142D01*
X67915569Y-85574142D02*
X67820331Y-85669380D01*
X67820331Y-85669380D02*
X67725093Y-85859857D01*
X67725093Y-85859857D02*
X67725093Y-86431285D01*
X67725093Y-86431285D02*
X67820331Y-86621761D01*
X67820331Y-86621761D02*
X67915569Y-86717000D01*
X67915569Y-86717000D02*
X68106045Y-86812238D01*
X68106045Y-86812238D02*
X68391760Y-86812238D01*
X66867950Y-85478904D02*
X66867950Y-86812238D01*
X66867950Y-85669380D02*
X66772712Y-85574142D01*
X66772712Y-85574142D02*
X66582236Y-85478904D01*
X66582236Y-85478904D02*
X66296521Y-85478904D01*
X66296521Y-85478904D02*
X66106045Y-85574142D01*
X66106045Y-85574142D02*
X66010807Y-85764619D01*
X66010807Y-85764619D02*
X66010807Y-86812238D01*
X62677473Y-86717000D02*
X62867949Y-86812238D01*
X62867949Y-86812238D02*
X63248902Y-86812238D01*
X63248902Y-86812238D02*
X63439378Y-86717000D01*
X63439378Y-86717000D02*
X63534616Y-86621761D01*
X63534616Y-86621761D02*
X63629854Y-86431285D01*
X63629854Y-86431285D02*
X63629854Y-85859857D01*
X63629854Y-85859857D02*
X63534616Y-85669380D01*
X63534616Y-85669380D02*
X63439378Y-85574142D01*
X63439378Y-85574142D02*
X63248902Y-85478904D01*
X63248902Y-85478904D02*
X62867949Y-85478904D01*
X62867949Y-85478904D02*
X62677473Y-85574142D01*
X61534616Y-86812238D02*
X61725092Y-86717000D01*
X61725092Y-86717000D02*
X61820330Y-86621761D01*
X61820330Y-86621761D02*
X61915568Y-86431285D01*
X61915568Y-86431285D02*
X61915568Y-85859857D01*
X61915568Y-85859857D02*
X61820330Y-85669380D01*
X61820330Y-85669380D02*
X61725092Y-85574142D01*
X61725092Y-85574142D02*
X61534616Y-85478904D01*
X61534616Y-85478904D02*
X61248901Y-85478904D01*
X61248901Y-85478904D02*
X61058425Y-85574142D01*
X61058425Y-85574142D02*
X60963187Y-85669380D01*
X60963187Y-85669380D02*
X60867949Y-85859857D01*
X60867949Y-85859857D02*
X60867949Y-86431285D01*
X60867949Y-86431285D02*
X60963187Y-86621761D01*
X60963187Y-86621761D02*
X61058425Y-86717000D01*
X61058425Y-86717000D02*
X61248901Y-86812238D01*
X61248901Y-86812238D02*
X61534616Y-86812238D01*
X60010806Y-86812238D02*
X60010806Y-85478904D01*
X60010806Y-84812238D02*
X60106044Y-84907476D01*
X60106044Y-84907476D02*
X60010806Y-85002714D01*
X60010806Y-85002714D02*
X59915568Y-84907476D01*
X59915568Y-84907476D02*
X60010806Y-84812238D01*
X60010806Y-84812238D02*
X60010806Y-85002714D01*
X58772711Y-86812238D02*
X58963187Y-86717000D01*
X58963187Y-86717000D02*
X59058425Y-86526523D01*
X59058425Y-86526523D02*
X59058425Y-84812238D01*
X58106044Y-86717000D02*
X57915568Y-86812238D01*
X57915568Y-86812238D02*
X57534616Y-86812238D01*
X57534616Y-86812238D02*
X57344139Y-86717000D01*
X57344139Y-86717000D02*
X57248901Y-86526523D01*
X57248901Y-86526523D02*
X57248901Y-86431285D01*
X57248901Y-86431285D02*
X57344139Y-86240809D01*
X57344139Y-86240809D02*
X57534616Y-86145571D01*
X57534616Y-86145571D02*
X57820330Y-86145571D01*
X57820330Y-86145571D02*
X58010806Y-86050333D01*
X58010806Y-86050333D02*
X58106044Y-85859857D01*
X58106044Y-85859857D02*
X58106044Y-85764619D01*
X58106044Y-85764619D02*
X58010806Y-85574142D01*
X58010806Y-85574142D02*
X57820330Y-85478904D01*
X57820330Y-85478904D02*
X57534616Y-85478904D01*
X57534616Y-85478904D02*
X57344139Y-85574142D01*
X85153666Y-90052238D02*
X85153666Y-88052238D01*
X85153666Y-89957000D02*
X85344142Y-90052238D01*
X85344142Y-90052238D02*
X85725095Y-90052238D01*
X85725095Y-90052238D02*
X85915571Y-89957000D01*
X85915571Y-89957000D02*
X86010809Y-89861761D01*
X86010809Y-89861761D02*
X86106047Y-89671285D01*
X86106047Y-89671285D02*
X86106047Y-89099857D01*
X86106047Y-89099857D02*
X86010809Y-88909380D01*
X86010809Y-88909380D02*
X85915571Y-88814142D01*
X85915571Y-88814142D02*
X85725095Y-88718904D01*
X85725095Y-88718904D02*
X85344142Y-88718904D01*
X85344142Y-88718904D02*
X85153666Y-88814142D01*
X84201285Y-90052238D02*
X84201285Y-88718904D01*
X84201285Y-89099857D02*
X84106047Y-88909380D01*
X84106047Y-88909380D02*
X84010809Y-88814142D01*
X84010809Y-88814142D02*
X83820333Y-88718904D01*
X83820333Y-88718904D02*
X83629856Y-88718904D01*
X82963190Y-90052238D02*
X82963190Y-88718904D01*
X82963190Y-88052238D02*
X83058428Y-88147476D01*
X83058428Y-88147476D02*
X82963190Y-88242714D01*
X82963190Y-88242714D02*
X82867952Y-88147476D01*
X82867952Y-88147476D02*
X82963190Y-88052238D01*
X82963190Y-88052238D02*
X82963190Y-88242714D01*
X82201285Y-88718904D02*
X81725095Y-90052238D01*
X81725095Y-90052238D02*
X81248904Y-88718904D01*
X79725094Y-89957000D02*
X79915570Y-90052238D01*
X79915570Y-90052238D02*
X80296523Y-90052238D01*
X80296523Y-90052238D02*
X80486999Y-89957000D01*
X80486999Y-89957000D02*
X80582237Y-89766523D01*
X80582237Y-89766523D02*
X80582237Y-89004619D01*
X80582237Y-89004619D02*
X80486999Y-88814142D01*
X80486999Y-88814142D02*
X80296523Y-88718904D01*
X80296523Y-88718904D02*
X79915570Y-88718904D01*
X79915570Y-88718904D02*
X79725094Y-88814142D01*
X79725094Y-88814142D02*
X79629856Y-89004619D01*
X79629856Y-89004619D02*
X79629856Y-89195095D01*
X79629856Y-89195095D02*
X80582237Y-89385571D01*
X78772713Y-90052238D02*
X78772713Y-88718904D01*
X78772713Y-89099857D02*
X78677475Y-88909380D01*
X78677475Y-88909380D02*
X78582237Y-88814142D01*
X78582237Y-88814142D02*
X78391761Y-88718904D01*
X78391761Y-88718904D02*
X78201284Y-88718904D01*
X76201284Y-88052238D02*
X74963189Y-88052238D01*
X74963189Y-88052238D02*
X75629856Y-88814142D01*
X75629856Y-88814142D02*
X75344141Y-88814142D01*
X75344141Y-88814142D02*
X75153665Y-88909380D01*
X75153665Y-88909380D02*
X75058427Y-89004619D01*
X75058427Y-89004619D02*
X74963189Y-89195095D01*
X74963189Y-89195095D02*
X74963189Y-89671285D01*
X74963189Y-89671285D02*
X75058427Y-89861761D01*
X75058427Y-89861761D02*
X75153665Y-89957000D01*
X75153665Y-89957000D02*
X75344141Y-90052238D01*
X75344141Y-90052238D02*
X75915570Y-90052238D01*
X75915570Y-90052238D02*
X76106046Y-89957000D01*
X76106046Y-89957000D02*
X76201284Y-89861761D01*
X74296522Y-90052238D02*
X73248903Y-88718904D01*
X74296522Y-88718904D02*
X73248903Y-90052238D01*
X72677474Y-88052238D02*
X71439379Y-88052238D01*
X71439379Y-88052238D02*
X72106046Y-88814142D01*
X72106046Y-88814142D02*
X71820331Y-88814142D01*
X71820331Y-88814142D02*
X71629855Y-88909380D01*
X71629855Y-88909380D02*
X71534617Y-89004619D01*
X71534617Y-89004619D02*
X71439379Y-89195095D01*
X71439379Y-89195095D02*
X71439379Y-89671285D01*
X71439379Y-89671285D02*
X71534617Y-89861761D01*
X71534617Y-89861761D02*
X71629855Y-89957000D01*
X71629855Y-89957000D02*
X71820331Y-90052238D01*
X71820331Y-90052238D02*
X72391760Y-90052238D01*
X72391760Y-90052238D02*
X72582236Y-89957000D01*
X72582236Y-89957000D02*
X72677474Y-89861761D01*
X70677474Y-89480809D02*
X69725093Y-89480809D01*
X70867950Y-90052238D02*
X70201284Y-88052238D01*
X70201284Y-88052238D02*
X69534617Y-90052238D01*
D10*
X9436857Y-42925857D02*
X9365428Y-42783000D01*
X9365428Y-42783000D02*
X9365428Y-42568714D01*
X9365428Y-42568714D02*
X9436857Y-42354428D01*
X9436857Y-42354428D02*
X9579714Y-42211571D01*
X9579714Y-42211571D02*
X9722571Y-42140142D01*
X9722571Y-42140142D02*
X10008285Y-42068714D01*
X10008285Y-42068714D02*
X10222571Y-42068714D01*
X10222571Y-42068714D02*
X10508285Y-42140142D01*
X10508285Y-42140142D02*
X10651142Y-42211571D01*
X10651142Y-42211571D02*
X10794000Y-42354428D01*
X10794000Y-42354428D02*
X10865428Y-42568714D01*
X10865428Y-42568714D02*
X10865428Y-42711571D01*
X10865428Y-42711571D02*
X10794000Y-42925857D01*
X10794000Y-42925857D02*
X10722571Y-42997285D01*
X10722571Y-42997285D02*
X10222571Y-42997285D01*
X10222571Y-42997285D02*
X10222571Y-42711571D01*
X10865428Y-43640142D02*
X9365428Y-43640142D01*
X9365428Y-43640142D02*
X10865428Y-44497285D01*
X10865428Y-44497285D02*
X9365428Y-44497285D01*
X10865428Y-45211571D02*
X9365428Y-45211571D01*
X9365428Y-45211571D02*
X9365428Y-45568714D01*
X9365428Y-45568714D02*
X9436857Y-45783000D01*
X9436857Y-45783000D02*
X9579714Y-45925857D01*
X9579714Y-45925857D02*
X9722571Y-45997286D01*
X9722571Y-45997286D02*
X10008285Y-46068714D01*
X10008285Y-46068714D02*
X10222571Y-46068714D01*
X10222571Y-46068714D02*
X10508285Y-45997286D01*
X10508285Y-45997286D02*
X10651142Y-45925857D01*
X10651142Y-45925857D02*
X10794000Y-45783000D01*
X10794000Y-45783000D02*
X10865428Y-45568714D01*
X10865428Y-45568714D02*
X10865428Y-45211571D01*
X10167000Y-22201142D02*
X10167000Y-23344000D01*
X10738428Y-22772571D02*
X9595571Y-22772571D01*
X10738428Y-25915428D02*
X10738428Y-25201142D01*
X10738428Y-25201142D02*
X9238428Y-25201142D01*
X9381285Y-26344000D02*
X9309857Y-26415428D01*
X9309857Y-26415428D02*
X9238428Y-26558286D01*
X9238428Y-26558286D02*
X9238428Y-26915428D01*
X9238428Y-26915428D02*
X9309857Y-27058286D01*
X9309857Y-27058286D02*
X9381285Y-27129714D01*
X9381285Y-27129714D02*
X9524142Y-27201143D01*
X9524142Y-27201143D02*
X9667000Y-27201143D01*
X9667000Y-27201143D02*
X9881285Y-27129714D01*
X9881285Y-27129714D02*
X10738428Y-26272571D01*
X10738428Y-26272571D02*
X10738428Y-27201143D01*
X10167000Y-28986856D02*
X10167000Y-30129714D01*
X44053142Y-52291428D02*
X43196000Y-52291428D01*
X43624571Y-53791428D02*
X43624571Y-52291428D01*
X42410285Y-52291428D02*
X42124571Y-52291428D01*
X42124571Y-52291428D02*
X41981714Y-52362857D01*
X41981714Y-52362857D02*
X41838857Y-52505714D01*
X41838857Y-52505714D02*
X41767428Y-52791428D01*
X41767428Y-52791428D02*
X41767428Y-53291428D01*
X41767428Y-53291428D02*
X41838857Y-53577142D01*
X41838857Y-53577142D02*
X41981714Y-53720000D01*
X41981714Y-53720000D02*
X42124571Y-53791428D01*
X42124571Y-53791428D02*
X42410285Y-53791428D01*
X42410285Y-53791428D02*
X42553143Y-53720000D01*
X42553143Y-53720000D02*
X42696000Y-53577142D01*
X42696000Y-53577142D02*
X42767428Y-53291428D01*
X42767428Y-53291428D02*
X42767428Y-52791428D01*
X42767428Y-52791428D02*
X42696000Y-52505714D01*
X42696000Y-52505714D02*
X42553143Y-52362857D01*
X42553143Y-52362857D02*
X42410285Y-52291428D01*
X39981714Y-53791428D02*
X39981714Y-52291428D01*
X39267428Y-53791428D02*
X39267428Y-52291428D01*
X39267428Y-52291428D02*
X38910285Y-52291428D01*
X38910285Y-52291428D02*
X38695999Y-52362857D01*
X38695999Y-52362857D02*
X38553142Y-52505714D01*
X38553142Y-52505714D02*
X38481713Y-52648571D01*
X38481713Y-52648571D02*
X38410285Y-52934285D01*
X38410285Y-52934285D02*
X38410285Y-53148571D01*
X38410285Y-53148571D02*
X38481713Y-53434285D01*
X38481713Y-53434285D02*
X38553142Y-53577142D01*
X38553142Y-53577142D02*
X38695999Y-53720000D01*
X38695999Y-53720000D02*
X38910285Y-53791428D01*
X38910285Y-53791428D02*
X39267428Y-53791428D01*
X36910285Y-53648571D02*
X36981713Y-53720000D01*
X36981713Y-53720000D02*
X37195999Y-53791428D01*
X37195999Y-53791428D02*
X37338856Y-53791428D01*
X37338856Y-53791428D02*
X37553142Y-53720000D01*
X37553142Y-53720000D02*
X37695999Y-53577142D01*
X37695999Y-53577142D02*
X37767428Y-53434285D01*
X37767428Y-53434285D02*
X37838856Y-53148571D01*
X37838856Y-53148571D02*
X37838856Y-52934285D01*
X37838856Y-52934285D02*
X37767428Y-52648571D01*
X37767428Y-52648571D02*
X37695999Y-52505714D01*
X37695999Y-52505714D02*
X37553142Y-52362857D01*
X37553142Y-52362857D02*
X37338856Y-52291428D01*
X37338856Y-52291428D02*
X37195999Y-52291428D01*
X37195999Y-52291428D02*
X36981713Y-52362857D01*
X36981713Y-52362857D02*
X36910285Y-52434285D01*
X36624571Y-53934285D02*
X35481713Y-53934285D01*
X34624571Y-53005714D02*
X34410285Y-53077142D01*
X34410285Y-53077142D02*
X34338856Y-53148571D01*
X34338856Y-53148571D02*
X34267428Y-53291428D01*
X34267428Y-53291428D02*
X34267428Y-53505714D01*
X34267428Y-53505714D02*
X34338856Y-53648571D01*
X34338856Y-53648571D02*
X34410285Y-53720000D01*
X34410285Y-53720000D02*
X34553142Y-53791428D01*
X34553142Y-53791428D02*
X35124571Y-53791428D01*
X35124571Y-53791428D02*
X35124571Y-52291428D01*
X35124571Y-52291428D02*
X34624571Y-52291428D01*
X34624571Y-52291428D02*
X34481714Y-52362857D01*
X34481714Y-52362857D02*
X34410285Y-52434285D01*
X34410285Y-52434285D02*
X34338856Y-52577142D01*
X34338856Y-52577142D02*
X34338856Y-52720000D01*
X34338856Y-52720000D02*
X34410285Y-52862857D01*
X34410285Y-52862857D02*
X34481714Y-52934285D01*
X34481714Y-52934285D02*
X34624571Y-53005714D01*
X34624571Y-53005714D02*
X35124571Y-53005714D01*
X33624571Y-53791428D02*
X33624571Y-52291428D01*
X33624571Y-52291428D02*
X32767428Y-53791428D01*
X32767428Y-53791428D02*
X32767428Y-52291428D01*
X31195999Y-53648571D02*
X31267427Y-53720000D01*
X31267427Y-53720000D02*
X31481713Y-53791428D01*
X31481713Y-53791428D02*
X31624570Y-53791428D01*
X31624570Y-53791428D02*
X31838856Y-53720000D01*
X31838856Y-53720000D02*
X31981713Y-53577142D01*
X31981713Y-53577142D02*
X32053142Y-53434285D01*
X32053142Y-53434285D02*
X32124570Y-53148571D01*
X32124570Y-53148571D02*
X32124570Y-52934285D01*
X32124570Y-52934285D02*
X32053142Y-52648571D01*
X32053142Y-52648571D02*
X31981713Y-52505714D01*
X31981713Y-52505714D02*
X31838856Y-52362857D01*
X31838856Y-52362857D02*
X31624570Y-52291428D01*
X31624570Y-52291428D02*
X31481713Y-52291428D01*
X31481713Y-52291428D02*
X31267427Y-52362857D01*
X31267427Y-52362857D02*
X31195999Y-52434285D01*
X30910285Y-53934285D02*
X29767427Y-53934285D01*
X28767428Y-53791428D02*
X28767428Y-53005714D01*
X28767428Y-53005714D02*
X28838856Y-52862857D01*
X28838856Y-52862857D02*
X28981713Y-52791428D01*
X28981713Y-52791428D02*
X29267428Y-52791428D01*
X29267428Y-52791428D02*
X29410285Y-52862857D01*
X28767428Y-53720000D02*
X28910285Y-53791428D01*
X28910285Y-53791428D02*
X29267428Y-53791428D01*
X29267428Y-53791428D02*
X29410285Y-53720000D01*
X29410285Y-53720000D02*
X29481713Y-53577142D01*
X29481713Y-53577142D02*
X29481713Y-53434285D01*
X29481713Y-53434285D02*
X29410285Y-53291428D01*
X29410285Y-53291428D02*
X29267428Y-53220000D01*
X29267428Y-53220000D02*
X28910285Y-53220000D01*
X28910285Y-53220000D02*
X28767428Y-53148571D01*
X27410285Y-53791428D02*
X27410285Y-52291428D01*
X27410285Y-53720000D02*
X27553142Y-53791428D01*
X27553142Y-53791428D02*
X27838856Y-53791428D01*
X27838856Y-53791428D02*
X27981713Y-53720000D01*
X27981713Y-53720000D02*
X28053142Y-53648571D01*
X28053142Y-53648571D02*
X28124570Y-53505714D01*
X28124570Y-53505714D02*
X28124570Y-53077142D01*
X28124570Y-53077142D02*
X28053142Y-52934285D01*
X28053142Y-52934285D02*
X27981713Y-52862857D01*
X27981713Y-52862857D02*
X27838856Y-52791428D01*
X27838856Y-52791428D02*
X27553142Y-52791428D01*
X27553142Y-52791428D02*
X27410285Y-52862857D01*
X26053142Y-53791428D02*
X26053142Y-53005714D01*
X26053142Y-53005714D02*
X26124570Y-52862857D01*
X26124570Y-52862857D02*
X26267427Y-52791428D01*
X26267427Y-52791428D02*
X26553142Y-52791428D01*
X26553142Y-52791428D02*
X26695999Y-52862857D01*
X26053142Y-53720000D02*
X26195999Y-53791428D01*
X26195999Y-53791428D02*
X26553142Y-53791428D01*
X26553142Y-53791428D02*
X26695999Y-53720000D01*
X26695999Y-53720000D02*
X26767427Y-53577142D01*
X26767427Y-53577142D02*
X26767427Y-53434285D01*
X26767427Y-53434285D02*
X26695999Y-53291428D01*
X26695999Y-53291428D02*
X26553142Y-53220000D01*
X26553142Y-53220000D02*
X26195999Y-53220000D01*
X26195999Y-53220000D02*
X26053142Y-53148571D01*
X25338856Y-52791428D02*
X25338856Y-54291428D01*
X25338856Y-52862857D02*
X25195999Y-52791428D01*
X25195999Y-52791428D02*
X24910284Y-52791428D01*
X24910284Y-52791428D02*
X24767427Y-52862857D01*
X24767427Y-52862857D02*
X24695999Y-52934285D01*
X24695999Y-52934285D02*
X24624570Y-53077142D01*
X24624570Y-53077142D02*
X24624570Y-53505714D01*
X24624570Y-53505714D02*
X24695999Y-53648571D01*
X24695999Y-53648571D02*
X24767427Y-53720000D01*
X24767427Y-53720000D02*
X24910284Y-53791428D01*
X24910284Y-53791428D02*
X25195999Y-53791428D01*
X25195999Y-53791428D02*
X25338856Y-53720000D01*
X24195998Y-52791428D02*
X23624570Y-52791428D01*
X23981713Y-52291428D02*
X23981713Y-53577142D01*
X23981713Y-53577142D02*
X23910284Y-53720000D01*
X23910284Y-53720000D02*
X23767427Y-53791428D01*
X23767427Y-53791428D02*
X23624570Y-53791428D01*
X22553141Y-53720000D02*
X22695998Y-53791428D01*
X22695998Y-53791428D02*
X22981713Y-53791428D01*
X22981713Y-53791428D02*
X23124570Y-53720000D01*
X23124570Y-53720000D02*
X23195998Y-53577142D01*
X23195998Y-53577142D02*
X23195998Y-53005714D01*
X23195998Y-53005714D02*
X23124570Y-52862857D01*
X23124570Y-52862857D02*
X22981713Y-52791428D01*
X22981713Y-52791428D02*
X22695998Y-52791428D01*
X22695998Y-52791428D02*
X22553141Y-52862857D01*
X22553141Y-52862857D02*
X22481713Y-53005714D01*
X22481713Y-53005714D02*
X22481713Y-53148571D01*
X22481713Y-53148571D02*
X23195998Y-53291428D01*
X21838856Y-53791428D02*
X21838856Y-52791428D01*
X21838856Y-53077142D02*
X21767427Y-52934285D01*
X21767427Y-52934285D02*
X21695999Y-52862857D01*
X21695999Y-52862857D02*
X21553141Y-52791428D01*
X21553141Y-52791428D02*
X21410284Y-52791428D01*
X154653428Y-9413857D02*
X154653428Y-10271000D01*
X156153428Y-9842428D02*
X154653428Y-9842428D01*
X154653428Y-11056714D02*
X154653428Y-11342428D01*
X154653428Y-11342428D02*
X154724857Y-11485285D01*
X154724857Y-11485285D02*
X154867714Y-11628142D01*
X154867714Y-11628142D02*
X155153428Y-11699571D01*
X155153428Y-11699571D02*
X155653428Y-11699571D01*
X155653428Y-11699571D02*
X155939142Y-11628142D01*
X155939142Y-11628142D02*
X156082000Y-11485285D01*
X156082000Y-11485285D02*
X156153428Y-11342428D01*
X156153428Y-11342428D02*
X156153428Y-11056714D01*
X156153428Y-11056714D02*
X156082000Y-10913857D01*
X156082000Y-10913857D02*
X155939142Y-10770999D01*
X155939142Y-10770999D02*
X155653428Y-10699571D01*
X155653428Y-10699571D02*
X155153428Y-10699571D01*
X155153428Y-10699571D02*
X154867714Y-10770999D01*
X154867714Y-10770999D02*
X154724857Y-10913857D01*
X154724857Y-10913857D02*
X154653428Y-11056714D01*
X156010571Y-14342428D02*
X156082000Y-14271000D01*
X156082000Y-14271000D02*
X156153428Y-14056714D01*
X156153428Y-14056714D02*
X156153428Y-13913857D01*
X156153428Y-13913857D02*
X156082000Y-13699571D01*
X156082000Y-13699571D02*
X155939142Y-13556714D01*
X155939142Y-13556714D02*
X155796285Y-13485285D01*
X155796285Y-13485285D02*
X155510571Y-13413857D01*
X155510571Y-13413857D02*
X155296285Y-13413857D01*
X155296285Y-13413857D02*
X155010571Y-13485285D01*
X155010571Y-13485285D02*
X154867714Y-13556714D01*
X154867714Y-13556714D02*
X154724857Y-13699571D01*
X154724857Y-13699571D02*
X154653428Y-13913857D01*
X154653428Y-13913857D02*
X154653428Y-14056714D01*
X154653428Y-14056714D02*
X154724857Y-14271000D01*
X154724857Y-14271000D02*
X154796285Y-14342428D01*
X156153428Y-14985285D02*
X154653428Y-14985285D01*
X155367714Y-14985285D02*
X155367714Y-15842428D01*
X156153428Y-15842428D02*
X154653428Y-15842428D01*
X156153428Y-16556714D02*
X154653428Y-16556714D01*
X156153428Y-17985286D02*
X156153428Y-17271000D01*
X156153428Y-17271000D02*
X154653428Y-17271000D01*
X156153428Y-19199572D02*
X156153428Y-18485286D01*
X156153428Y-18485286D02*
X154653428Y-18485286D01*
X155367714Y-19699572D02*
X155367714Y-20199572D01*
X156153428Y-20413858D02*
X156153428Y-19699572D01*
X156153428Y-19699572D02*
X154653428Y-19699572D01*
X154653428Y-19699572D02*
X154653428Y-20413858D01*
X156153428Y-21913858D02*
X155439142Y-21413858D01*
X156153428Y-21056715D02*
X154653428Y-21056715D01*
X154653428Y-21056715D02*
X154653428Y-21628144D01*
X154653428Y-21628144D02*
X154724857Y-21771001D01*
X154724857Y-21771001D02*
X154796285Y-21842430D01*
X154796285Y-21842430D02*
X154939142Y-21913858D01*
X154939142Y-21913858D02*
X155153428Y-21913858D01*
X155153428Y-21913858D02*
X155296285Y-21842430D01*
X155296285Y-21842430D02*
X155367714Y-21771001D01*
X155367714Y-21771001D02*
X155439142Y-21628144D01*
X155439142Y-21628144D02*
X155439142Y-21056715D01*
D13*
X52601857Y-95066428D02*
X52601857Y-93566428D01*
X52601857Y-94137857D02*
X52459000Y-94066428D01*
X52459000Y-94066428D02*
X52173285Y-94066428D01*
X52173285Y-94066428D02*
X52030428Y-94137857D01*
X52030428Y-94137857D02*
X51959000Y-94209285D01*
X51959000Y-94209285D02*
X51887571Y-94352142D01*
X51887571Y-94352142D02*
X51887571Y-94780714D01*
X51887571Y-94780714D02*
X51959000Y-94923571D01*
X51959000Y-94923571D02*
X52030428Y-94995000D01*
X52030428Y-94995000D02*
X52173285Y-95066428D01*
X52173285Y-95066428D02*
X52459000Y-95066428D01*
X52459000Y-95066428D02*
X52601857Y-94995000D01*
X51387571Y-94066428D02*
X51030428Y-95066428D01*
X50673285Y-94066428D02*
X51030428Y-95066428D01*
X51030428Y-95066428D02*
X51173285Y-95423571D01*
X51173285Y-95423571D02*
X51244714Y-95495000D01*
X51244714Y-95495000D02*
X51387571Y-95566428D01*
X49030428Y-94637857D02*
X48316143Y-94637857D01*
X49173285Y-95066428D02*
X48673285Y-93566428D01*
X48673285Y-93566428D02*
X48173285Y-95066428D01*
X46959000Y-95066428D02*
X47673286Y-95066428D01*
X47673286Y-95066428D02*
X47673286Y-93566428D01*
X45887571Y-94995000D02*
X46030428Y-95066428D01*
X46030428Y-95066428D02*
X46316143Y-95066428D01*
X46316143Y-95066428D02*
X46459000Y-94995000D01*
X46459000Y-94995000D02*
X46530428Y-94852142D01*
X46530428Y-94852142D02*
X46530428Y-94280714D01*
X46530428Y-94280714D02*
X46459000Y-94137857D01*
X46459000Y-94137857D02*
X46316143Y-94066428D01*
X46316143Y-94066428D02*
X46030428Y-94066428D01*
X46030428Y-94066428D02*
X45887571Y-94137857D01*
X45887571Y-94137857D02*
X45816143Y-94280714D01*
X45816143Y-94280714D02*
X45816143Y-94423571D01*
X45816143Y-94423571D02*
X46530428Y-94566428D01*
X43101857Y-94352142D02*
X43173286Y-94280714D01*
X43173286Y-94280714D02*
X43316143Y-94209285D01*
X43316143Y-94209285D02*
X43459000Y-94209285D01*
X43459000Y-94209285D02*
X43601857Y-94280714D01*
X43601857Y-94280714D02*
X43673286Y-94352142D01*
X43673286Y-94352142D02*
X43744714Y-94495000D01*
X43744714Y-94495000D02*
X43744714Y-94637857D01*
X43744714Y-94637857D02*
X43673286Y-94780714D01*
X43673286Y-94780714D02*
X43601857Y-94852142D01*
X43601857Y-94852142D02*
X43459000Y-94923571D01*
X43459000Y-94923571D02*
X43316143Y-94923571D01*
X43316143Y-94923571D02*
X43173286Y-94852142D01*
X43173286Y-94852142D02*
X43101857Y-94780714D01*
X43101857Y-94209285D02*
X43101857Y-94780714D01*
X43101857Y-94780714D02*
X43030429Y-94852142D01*
X43030429Y-94852142D02*
X42959000Y-94852142D01*
X42959000Y-94852142D02*
X42816143Y-94780714D01*
X42816143Y-94780714D02*
X42744714Y-94637857D01*
X42744714Y-94637857D02*
X42744714Y-94280714D01*
X42744714Y-94280714D02*
X42887572Y-94066428D01*
X42887572Y-94066428D02*
X43101857Y-93923571D01*
X43101857Y-93923571D02*
X43387572Y-93852142D01*
X43387572Y-93852142D02*
X43673286Y-93923571D01*
X43673286Y-93923571D02*
X43887572Y-94066428D01*
X43887572Y-94066428D02*
X44030429Y-94280714D01*
X44030429Y-94280714D02*
X44101857Y-94566428D01*
X44101857Y-94566428D02*
X44030429Y-94852142D01*
X44030429Y-94852142D02*
X43887572Y-95066428D01*
X43887572Y-95066428D02*
X43673286Y-95209285D01*
X43673286Y-95209285D02*
X43387572Y-95280714D01*
X43387572Y-95280714D02*
X43101857Y-95209285D01*
X43101857Y-95209285D02*
X42887572Y-95066428D01*
X41316143Y-95066428D02*
X42173286Y-95066428D01*
X41744715Y-95066428D02*
X41744715Y-93566428D01*
X41744715Y-93566428D02*
X41887572Y-93780714D01*
X41887572Y-93780714D02*
X42030429Y-93923571D01*
X42030429Y-93923571D02*
X42173286Y-93995000D01*
X39887572Y-95066428D02*
X40744715Y-95066428D01*
X40316144Y-95066428D02*
X40316144Y-93566428D01*
X40316144Y-93566428D02*
X40459001Y-93780714D01*
X40459001Y-93780714D02*
X40601858Y-93923571D01*
X40601858Y-93923571D02*
X40744715Y-93995000D01*
X39244716Y-94923571D02*
X39173287Y-94995000D01*
X39173287Y-94995000D02*
X39244716Y-95066428D01*
X39244716Y-95066428D02*
X39316144Y-94995000D01*
X39316144Y-94995000D02*
X39244716Y-94923571D01*
X39244716Y-94923571D02*
X39244716Y-95066428D01*
X38601858Y-93709285D02*
X38530430Y-93637857D01*
X38530430Y-93637857D02*
X38387573Y-93566428D01*
X38387573Y-93566428D02*
X38030430Y-93566428D01*
X38030430Y-93566428D02*
X37887573Y-93637857D01*
X37887573Y-93637857D02*
X37816144Y-93709285D01*
X37816144Y-93709285D02*
X37744715Y-93852142D01*
X37744715Y-93852142D02*
X37744715Y-93995000D01*
X37744715Y-93995000D02*
X37816144Y-94209285D01*
X37816144Y-94209285D02*
X38673287Y-95066428D01*
X38673287Y-95066428D02*
X37744715Y-95066428D01*
X36816144Y-93566428D02*
X36673287Y-93566428D01*
X36673287Y-93566428D02*
X36530430Y-93637857D01*
X36530430Y-93637857D02*
X36459002Y-93709285D01*
X36459002Y-93709285D02*
X36387573Y-93852142D01*
X36387573Y-93852142D02*
X36316144Y-94137857D01*
X36316144Y-94137857D02*
X36316144Y-94495000D01*
X36316144Y-94495000D02*
X36387573Y-94780714D01*
X36387573Y-94780714D02*
X36459002Y-94923571D01*
X36459002Y-94923571D02*
X36530430Y-94995000D01*
X36530430Y-94995000D02*
X36673287Y-95066428D01*
X36673287Y-95066428D02*
X36816144Y-95066428D01*
X36816144Y-95066428D02*
X36959002Y-94995000D01*
X36959002Y-94995000D02*
X37030430Y-94923571D01*
X37030430Y-94923571D02*
X37101859Y-94780714D01*
X37101859Y-94780714D02*
X37173287Y-94495000D01*
X37173287Y-94495000D02*
X37173287Y-94137857D01*
X37173287Y-94137857D02*
X37101859Y-93852142D01*
X37101859Y-93852142D02*
X37030430Y-93709285D01*
X37030430Y-93709285D02*
X36959002Y-93637857D01*
X36959002Y-93637857D02*
X36816144Y-93566428D01*
X35744716Y-93709285D02*
X35673288Y-93637857D01*
X35673288Y-93637857D02*
X35530431Y-93566428D01*
X35530431Y-93566428D02*
X35173288Y-93566428D01*
X35173288Y-93566428D02*
X35030431Y-93637857D01*
X35030431Y-93637857D02*
X34959002Y-93709285D01*
X34959002Y-93709285D02*
X34887573Y-93852142D01*
X34887573Y-93852142D02*
X34887573Y-93995000D01*
X34887573Y-93995000D02*
X34959002Y-94209285D01*
X34959002Y-94209285D02*
X35816145Y-95066428D01*
X35816145Y-95066428D02*
X34887573Y-95066428D01*
X34387574Y-93566428D02*
X33459002Y-93566428D01*
X33459002Y-93566428D02*
X33959002Y-94137857D01*
X33959002Y-94137857D02*
X33744717Y-94137857D01*
X33744717Y-94137857D02*
X33601860Y-94209285D01*
X33601860Y-94209285D02*
X33530431Y-94280714D01*
X33530431Y-94280714D02*
X33459002Y-94423571D01*
X33459002Y-94423571D02*
X33459002Y-94780714D01*
X33459002Y-94780714D02*
X33530431Y-94923571D01*
X33530431Y-94923571D02*
X33601860Y-94995000D01*
X33601860Y-94995000D02*
X33744717Y-95066428D01*
X33744717Y-95066428D02*
X34173288Y-95066428D01*
X34173288Y-95066428D02*
X34316145Y-94995000D01*
X34316145Y-94995000D02*
X34387574Y-94923571D01*
D10*
X22121857Y-50680000D02*
X20979000Y-50680000D01*
X21550428Y-51251428D02*
X21550428Y-50108571D01*
X19478999Y-51251428D02*
X20336142Y-51251428D01*
X19907571Y-51251428D02*
X19907571Y-49751428D01*
X19907571Y-49751428D02*
X20050428Y-49965714D01*
X20050428Y-49965714D02*
X20193285Y-50108571D01*
X20193285Y-50108571D02*
X20336142Y-50180000D01*
X18121857Y-49751428D02*
X18836143Y-49751428D01*
X18836143Y-49751428D02*
X18907571Y-50465714D01*
X18907571Y-50465714D02*
X18836143Y-50394285D01*
X18836143Y-50394285D02*
X18693286Y-50322857D01*
X18693286Y-50322857D02*
X18336143Y-50322857D01*
X18336143Y-50322857D02*
X18193286Y-50394285D01*
X18193286Y-50394285D02*
X18121857Y-50465714D01*
X18121857Y-50465714D02*
X18050428Y-50608571D01*
X18050428Y-50608571D02*
X18050428Y-50965714D01*
X18050428Y-50965714D02*
X18121857Y-51108571D01*
X18121857Y-51108571D02*
X18193286Y-51180000D01*
X18193286Y-51180000D02*
X18336143Y-51251428D01*
X18336143Y-51251428D02*
X18693286Y-51251428D01*
X18693286Y-51251428D02*
X18836143Y-51180000D01*
X18836143Y-51180000D02*
X18907571Y-51108571D01*
X17621857Y-49751428D02*
X17121857Y-51251428D01*
X17121857Y-51251428D02*
X16621857Y-49751428D01*
X14550429Y-51822857D02*
X14621858Y-51751428D01*
X14621858Y-51751428D02*
X14764715Y-51537142D01*
X14764715Y-51537142D02*
X14836144Y-51394285D01*
X14836144Y-51394285D02*
X14907572Y-51180000D01*
X14907572Y-51180000D02*
X14979001Y-50822857D01*
X14979001Y-50822857D02*
X14979001Y-50537142D01*
X14979001Y-50537142D02*
X14907572Y-50180000D01*
X14907572Y-50180000D02*
X14836144Y-49965714D01*
X14836144Y-49965714D02*
X14764715Y-49822857D01*
X14764715Y-49822857D02*
X14621858Y-49608571D01*
X14621858Y-49608571D02*
X14550429Y-49537142D01*
X13193286Y-51251428D02*
X14050429Y-51251428D01*
X13621858Y-51251428D02*
X13621858Y-49751428D01*
X13621858Y-49751428D02*
X13764715Y-49965714D01*
X13764715Y-49965714D02*
X13907572Y-50108571D01*
X13907572Y-50108571D02*
X14050429Y-50180000D01*
X12264715Y-49751428D02*
X12121858Y-49751428D01*
X12121858Y-49751428D02*
X11979001Y-49822857D01*
X11979001Y-49822857D02*
X11907573Y-49894285D01*
X11907573Y-49894285D02*
X11836144Y-50037142D01*
X11836144Y-50037142D02*
X11764715Y-50322857D01*
X11764715Y-50322857D02*
X11764715Y-50680000D01*
X11764715Y-50680000D02*
X11836144Y-50965714D01*
X11836144Y-50965714D02*
X11907573Y-51108571D01*
X11907573Y-51108571D02*
X11979001Y-51180000D01*
X11979001Y-51180000D02*
X12121858Y-51251428D01*
X12121858Y-51251428D02*
X12264715Y-51251428D01*
X12264715Y-51251428D02*
X12407573Y-51180000D01*
X12407573Y-51180000D02*
X12479001Y-51108571D01*
X12479001Y-51108571D02*
X12550430Y-50965714D01*
X12550430Y-50965714D02*
X12621858Y-50680000D01*
X12621858Y-50680000D02*
X12621858Y-50322857D01*
X12621858Y-50322857D02*
X12550430Y-50037142D01*
X12550430Y-50037142D02*
X12479001Y-49894285D01*
X12479001Y-49894285D02*
X12407573Y-49822857D01*
X12407573Y-49822857D02*
X12264715Y-49751428D01*
X11193287Y-50822857D02*
X10479002Y-50822857D01*
X11336144Y-51251428D02*
X10836144Y-49751428D01*
X10836144Y-49751428D02*
X10336144Y-51251428D01*
X9979002Y-51822857D02*
X9907573Y-51751428D01*
X9907573Y-51751428D02*
X9764716Y-51537142D01*
X9764716Y-51537142D02*
X9693288Y-51394285D01*
X9693288Y-51394285D02*
X9621859Y-51180000D01*
X9621859Y-51180000D02*
X9550430Y-50822857D01*
X9550430Y-50822857D02*
X9550430Y-50537142D01*
X9550430Y-50537142D02*
X9621859Y-50180000D01*
X9621859Y-50180000D02*
X9693288Y-49965714D01*
X9693288Y-49965714D02*
X9764716Y-49822857D01*
X9764716Y-49822857D02*
X9907573Y-49608571D01*
X9907573Y-49608571D02*
X9979002Y-49537142D01*
X149517857Y-62991857D02*
X149446428Y-62849000D01*
X149446428Y-62849000D02*
X149446428Y-62634714D01*
X149446428Y-62634714D02*
X149517857Y-62420428D01*
X149517857Y-62420428D02*
X149660714Y-62277571D01*
X149660714Y-62277571D02*
X149803571Y-62206142D01*
X149803571Y-62206142D02*
X150089285Y-62134714D01*
X150089285Y-62134714D02*
X150303571Y-62134714D01*
X150303571Y-62134714D02*
X150589285Y-62206142D01*
X150589285Y-62206142D02*
X150732142Y-62277571D01*
X150732142Y-62277571D02*
X150875000Y-62420428D01*
X150875000Y-62420428D02*
X150946428Y-62634714D01*
X150946428Y-62634714D02*
X150946428Y-62777571D01*
X150946428Y-62777571D02*
X150875000Y-62991857D01*
X150875000Y-62991857D02*
X150803571Y-63063285D01*
X150803571Y-63063285D02*
X150303571Y-63063285D01*
X150303571Y-63063285D02*
X150303571Y-62777571D01*
X150946428Y-63706142D02*
X149446428Y-63706142D01*
X149446428Y-63706142D02*
X150946428Y-64563285D01*
X150946428Y-64563285D02*
X149446428Y-64563285D01*
X150946428Y-65277571D02*
X149446428Y-65277571D01*
X149446428Y-65277571D02*
X149446428Y-65634714D01*
X149446428Y-65634714D02*
X149517857Y-65849000D01*
X149517857Y-65849000D02*
X149660714Y-65991857D01*
X149660714Y-65991857D02*
X149803571Y-66063286D01*
X149803571Y-66063286D02*
X150089285Y-66134714D01*
X150089285Y-66134714D02*
X150303571Y-66134714D01*
X150303571Y-66134714D02*
X150589285Y-66063286D01*
X150589285Y-66063286D02*
X150732142Y-65991857D01*
X150732142Y-65991857D02*
X150875000Y-65849000D01*
X150875000Y-65849000D02*
X150946428Y-65634714D01*
X150946428Y-65634714D02*
X150946428Y-65277571D01*
X129270142Y-85438428D02*
X128413000Y-85438428D01*
X128841571Y-86938428D02*
X128841571Y-85438428D01*
X127627285Y-85438428D02*
X127341571Y-85438428D01*
X127341571Y-85438428D02*
X127198714Y-85509857D01*
X127198714Y-85509857D02*
X127055857Y-85652714D01*
X127055857Y-85652714D02*
X126984428Y-85938428D01*
X126984428Y-85938428D02*
X126984428Y-86438428D01*
X126984428Y-86438428D02*
X127055857Y-86724142D01*
X127055857Y-86724142D02*
X127198714Y-86867000D01*
X127198714Y-86867000D02*
X127341571Y-86938428D01*
X127341571Y-86938428D02*
X127627285Y-86938428D01*
X127627285Y-86938428D02*
X127770143Y-86867000D01*
X127770143Y-86867000D02*
X127913000Y-86724142D01*
X127913000Y-86724142D02*
X127984428Y-86438428D01*
X127984428Y-86438428D02*
X127984428Y-85938428D01*
X127984428Y-85938428D02*
X127913000Y-85652714D01*
X127913000Y-85652714D02*
X127770143Y-85509857D01*
X127770143Y-85509857D02*
X127627285Y-85438428D01*
X125198714Y-86938428D02*
X125198714Y-85438428D01*
X124341571Y-86938428D02*
X124984428Y-86081285D01*
X124341571Y-85438428D02*
X125198714Y-86295571D01*
X123770142Y-86509857D02*
X123055857Y-86509857D01*
X123912999Y-86938428D02*
X123412999Y-85438428D01*
X123412999Y-85438428D02*
X122912999Y-86938428D01*
X122484428Y-86867000D02*
X122270143Y-86938428D01*
X122270143Y-86938428D02*
X121913000Y-86938428D01*
X121913000Y-86938428D02*
X121770143Y-86867000D01*
X121770143Y-86867000D02*
X121698714Y-86795571D01*
X121698714Y-86795571D02*
X121627285Y-86652714D01*
X121627285Y-86652714D02*
X121627285Y-86509857D01*
X121627285Y-86509857D02*
X121698714Y-86367000D01*
X121698714Y-86367000D02*
X121770143Y-86295571D01*
X121770143Y-86295571D02*
X121913000Y-86224142D01*
X121913000Y-86224142D02*
X122198714Y-86152714D01*
X122198714Y-86152714D02*
X122341571Y-86081285D01*
X122341571Y-86081285D02*
X122413000Y-86009857D01*
X122413000Y-86009857D02*
X122484428Y-85867000D01*
X122484428Y-85867000D02*
X122484428Y-85724142D01*
X122484428Y-85724142D02*
X122413000Y-85581285D01*
X122413000Y-85581285D02*
X122341571Y-85509857D01*
X122341571Y-85509857D02*
X122198714Y-85438428D01*
X122198714Y-85438428D02*
X121841571Y-85438428D01*
X121841571Y-85438428D02*
X121627285Y-85509857D01*
X120270143Y-86938428D02*
X120984429Y-86938428D01*
X120984429Y-86938428D02*
X120984429Y-85438428D01*
X119770143Y-86938428D02*
X119770143Y-85438428D01*
D14*
%TO.C,C128*%
X85604237Y-39028904D02*
X85642333Y-39067000D01*
X85642333Y-39067000D02*
X85756618Y-39105095D01*
X85756618Y-39105095D02*
X85832809Y-39105095D01*
X85832809Y-39105095D02*
X85947095Y-39067000D01*
X85947095Y-39067000D02*
X86023285Y-38990809D01*
X86023285Y-38990809D02*
X86061380Y-38914619D01*
X86061380Y-38914619D02*
X86099476Y-38762238D01*
X86099476Y-38762238D02*
X86099476Y-38647952D01*
X86099476Y-38647952D02*
X86061380Y-38495571D01*
X86061380Y-38495571D02*
X86023285Y-38419380D01*
X86023285Y-38419380D02*
X85947095Y-38343190D01*
X85947095Y-38343190D02*
X85832809Y-38305095D01*
X85832809Y-38305095D02*
X85756618Y-38305095D01*
X85756618Y-38305095D02*
X85642333Y-38343190D01*
X85642333Y-38343190D02*
X85604237Y-38381285D01*
X84842333Y-39105095D02*
X85299476Y-39105095D01*
X85070904Y-39105095D02*
X85070904Y-38305095D01*
X85070904Y-38305095D02*
X85147095Y-38419380D01*
X85147095Y-38419380D02*
X85223285Y-38495571D01*
X85223285Y-38495571D02*
X85299476Y-38533666D01*
X84537571Y-38381285D02*
X84499475Y-38343190D01*
X84499475Y-38343190D02*
X84423285Y-38305095D01*
X84423285Y-38305095D02*
X84232809Y-38305095D01*
X84232809Y-38305095D02*
X84156618Y-38343190D01*
X84156618Y-38343190D02*
X84118523Y-38381285D01*
X84118523Y-38381285D02*
X84080428Y-38457476D01*
X84080428Y-38457476D02*
X84080428Y-38533666D01*
X84080428Y-38533666D02*
X84118523Y-38647952D01*
X84118523Y-38647952D02*
X84575666Y-39105095D01*
X84575666Y-39105095D02*
X84080428Y-39105095D01*
X83623285Y-38647952D02*
X83699475Y-38609857D01*
X83699475Y-38609857D02*
X83737570Y-38571761D01*
X83737570Y-38571761D02*
X83775666Y-38495571D01*
X83775666Y-38495571D02*
X83775666Y-38457476D01*
X83775666Y-38457476D02*
X83737570Y-38381285D01*
X83737570Y-38381285D02*
X83699475Y-38343190D01*
X83699475Y-38343190D02*
X83623285Y-38305095D01*
X83623285Y-38305095D02*
X83470904Y-38305095D01*
X83470904Y-38305095D02*
X83394713Y-38343190D01*
X83394713Y-38343190D02*
X83356618Y-38381285D01*
X83356618Y-38381285D02*
X83318523Y-38457476D01*
X83318523Y-38457476D02*
X83318523Y-38495571D01*
X83318523Y-38495571D02*
X83356618Y-38571761D01*
X83356618Y-38571761D02*
X83394713Y-38609857D01*
X83394713Y-38609857D02*
X83470904Y-38647952D01*
X83470904Y-38647952D02*
X83623285Y-38647952D01*
X83623285Y-38647952D02*
X83699475Y-38686047D01*
X83699475Y-38686047D02*
X83737570Y-38724142D01*
X83737570Y-38724142D02*
X83775666Y-38800333D01*
X83775666Y-38800333D02*
X83775666Y-38952714D01*
X83775666Y-38952714D02*
X83737570Y-39028904D01*
X83737570Y-39028904D02*
X83699475Y-39067000D01*
X83699475Y-39067000D02*
X83623285Y-39105095D01*
X83623285Y-39105095D02*
X83470904Y-39105095D01*
X83470904Y-39105095D02*
X83394713Y-39067000D01*
X83394713Y-39067000D02*
X83356618Y-39028904D01*
X83356618Y-39028904D02*
X83318523Y-38952714D01*
X83318523Y-38952714D02*
X83318523Y-38800333D01*
X83318523Y-38800333D02*
X83356618Y-38724142D01*
X83356618Y-38724142D02*
X83394713Y-38686047D01*
X83394713Y-38686047D02*
X83470904Y-38647952D01*
%TO.C,J6*%
X12712666Y-53418095D02*
X12712666Y-53989523D01*
X12712666Y-53989523D02*
X12750761Y-54103809D01*
X12750761Y-54103809D02*
X12826952Y-54180000D01*
X12826952Y-54180000D02*
X12941237Y-54218095D01*
X12941237Y-54218095D02*
X13017428Y-54218095D01*
X11988856Y-53418095D02*
X12141237Y-53418095D01*
X12141237Y-53418095D02*
X12217428Y-53456190D01*
X12217428Y-53456190D02*
X12255523Y-53494285D01*
X12255523Y-53494285D02*
X12331713Y-53608571D01*
X12331713Y-53608571D02*
X12369809Y-53760952D01*
X12369809Y-53760952D02*
X12369809Y-54065714D01*
X12369809Y-54065714D02*
X12331713Y-54141904D01*
X12331713Y-54141904D02*
X12293618Y-54180000D01*
X12293618Y-54180000D02*
X12217428Y-54218095D01*
X12217428Y-54218095D02*
X12065047Y-54218095D01*
X12065047Y-54218095D02*
X11988856Y-54180000D01*
X11988856Y-54180000D02*
X11950761Y-54141904D01*
X11950761Y-54141904D02*
X11912666Y-54065714D01*
X11912666Y-54065714D02*
X11912666Y-53875238D01*
X11912666Y-53875238D02*
X11950761Y-53799047D01*
X11950761Y-53799047D02*
X11988856Y-53760952D01*
X11988856Y-53760952D02*
X12065047Y-53722857D01*
X12065047Y-53722857D02*
X12217428Y-53722857D01*
X12217428Y-53722857D02*
X12293618Y-53760952D01*
X12293618Y-53760952D02*
X12331713Y-53799047D01*
X12331713Y-53799047D02*
X12369809Y-53875238D01*
%TO.C,J3*%
X153936666Y-58879095D02*
X153936666Y-59450523D01*
X153936666Y-59450523D02*
X153974761Y-59564809D01*
X153974761Y-59564809D02*
X154050952Y-59641000D01*
X154050952Y-59641000D02*
X154165237Y-59679095D01*
X154165237Y-59679095D02*
X154241428Y-59679095D01*
X153631904Y-58879095D02*
X153136666Y-58879095D01*
X153136666Y-58879095D02*
X153403332Y-59183857D01*
X153403332Y-59183857D02*
X153289047Y-59183857D01*
X153289047Y-59183857D02*
X153212856Y-59221952D01*
X153212856Y-59221952D02*
X153174761Y-59260047D01*
X153174761Y-59260047D02*
X153136666Y-59336238D01*
X153136666Y-59336238D02*
X153136666Y-59526714D01*
X153136666Y-59526714D02*
X153174761Y-59602904D01*
X153174761Y-59602904D02*
X153212856Y-59641000D01*
X153212856Y-59641000D02*
X153289047Y-59679095D01*
X153289047Y-59679095D02*
X153517618Y-59679095D01*
X153517618Y-59679095D02*
X153593809Y-59641000D01*
X153593809Y-59641000D02*
X153631904Y-59602904D01*
%TO.C,HS1*%
X74396475Y-22595095D02*
X74396475Y-21795095D01*
X74396475Y-22176047D02*
X73939332Y-22176047D01*
X73939332Y-22595095D02*
X73939332Y-21795095D01*
X73596476Y-22557000D02*
X73482190Y-22595095D01*
X73482190Y-22595095D02*
X73291714Y-22595095D01*
X73291714Y-22595095D02*
X73215523Y-22557000D01*
X73215523Y-22557000D02*
X73177428Y-22518904D01*
X73177428Y-22518904D02*
X73139333Y-22442714D01*
X73139333Y-22442714D02*
X73139333Y-22366523D01*
X73139333Y-22366523D02*
X73177428Y-22290333D01*
X73177428Y-22290333D02*
X73215523Y-22252238D01*
X73215523Y-22252238D02*
X73291714Y-22214142D01*
X73291714Y-22214142D02*
X73444095Y-22176047D01*
X73444095Y-22176047D02*
X73520285Y-22137952D01*
X73520285Y-22137952D02*
X73558380Y-22099857D01*
X73558380Y-22099857D02*
X73596476Y-22023666D01*
X73596476Y-22023666D02*
X73596476Y-21947476D01*
X73596476Y-21947476D02*
X73558380Y-21871285D01*
X73558380Y-21871285D02*
X73520285Y-21833190D01*
X73520285Y-21833190D02*
X73444095Y-21795095D01*
X73444095Y-21795095D02*
X73253618Y-21795095D01*
X73253618Y-21795095D02*
X73139333Y-21833190D01*
X72377428Y-22595095D02*
X72834571Y-22595095D01*
X72605999Y-22595095D02*
X72605999Y-21795095D01*
X72605999Y-21795095D02*
X72682190Y-21909380D01*
X72682190Y-21909380D02*
X72758380Y-21985571D01*
X72758380Y-21985571D02*
X72834571Y-22023666D01*
%TO.C,BOOT0*%
X95065666Y-81656047D02*
X94951380Y-81694142D01*
X94951380Y-81694142D02*
X94913285Y-81732238D01*
X94913285Y-81732238D02*
X94875189Y-81808428D01*
X94875189Y-81808428D02*
X94875189Y-81922714D01*
X94875189Y-81922714D02*
X94913285Y-81998904D01*
X94913285Y-81998904D02*
X94951380Y-82037000D01*
X94951380Y-82037000D02*
X95027570Y-82075095D01*
X95027570Y-82075095D02*
X95332332Y-82075095D01*
X95332332Y-82075095D02*
X95332332Y-81275095D01*
X95332332Y-81275095D02*
X95065666Y-81275095D01*
X95065666Y-81275095D02*
X94989475Y-81313190D01*
X94989475Y-81313190D02*
X94951380Y-81351285D01*
X94951380Y-81351285D02*
X94913285Y-81427476D01*
X94913285Y-81427476D02*
X94913285Y-81503666D01*
X94913285Y-81503666D02*
X94951380Y-81579857D01*
X94951380Y-81579857D02*
X94989475Y-81617952D01*
X94989475Y-81617952D02*
X95065666Y-81656047D01*
X95065666Y-81656047D02*
X95332332Y-81656047D01*
X94379951Y-81275095D02*
X94227570Y-81275095D01*
X94227570Y-81275095D02*
X94151380Y-81313190D01*
X94151380Y-81313190D02*
X94075189Y-81389380D01*
X94075189Y-81389380D02*
X94037094Y-81541761D01*
X94037094Y-81541761D02*
X94037094Y-81808428D01*
X94037094Y-81808428D02*
X94075189Y-81960809D01*
X94075189Y-81960809D02*
X94151380Y-82037000D01*
X94151380Y-82037000D02*
X94227570Y-82075095D01*
X94227570Y-82075095D02*
X94379951Y-82075095D01*
X94379951Y-82075095D02*
X94456142Y-82037000D01*
X94456142Y-82037000D02*
X94532332Y-81960809D01*
X94532332Y-81960809D02*
X94570428Y-81808428D01*
X94570428Y-81808428D02*
X94570428Y-81541761D01*
X94570428Y-81541761D02*
X94532332Y-81389380D01*
X94532332Y-81389380D02*
X94456142Y-81313190D01*
X94456142Y-81313190D02*
X94379951Y-81275095D01*
X93541856Y-81275095D02*
X93389475Y-81275095D01*
X93389475Y-81275095D02*
X93313285Y-81313190D01*
X93313285Y-81313190D02*
X93237094Y-81389380D01*
X93237094Y-81389380D02*
X93198999Y-81541761D01*
X93198999Y-81541761D02*
X93198999Y-81808428D01*
X93198999Y-81808428D02*
X93237094Y-81960809D01*
X93237094Y-81960809D02*
X93313285Y-82037000D01*
X93313285Y-82037000D02*
X93389475Y-82075095D01*
X93389475Y-82075095D02*
X93541856Y-82075095D01*
X93541856Y-82075095D02*
X93618047Y-82037000D01*
X93618047Y-82037000D02*
X93694237Y-81960809D01*
X93694237Y-81960809D02*
X93732333Y-81808428D01*
X93732333Y-81808428D02*
X93732333Y-81541761D01*
X93732333Y-81541761D02*
X93694237Y-81389380D01*
X93694237Y-81389380D02*
X93618047Y-81313190D01*
X93618047Y-81313190D02*
X93541856Y-81275095D01*
X92970428Y-81275095D02*
X92513285Y-81275095D01*
X92741857Y-82075095D02*
X92741857Y-81275095D01*
X92094237Y-81275095D02*
X92018047Y-81275095D01*
X92018047Y-81275095D02*
X91941856Y-81313190D01*
X91941856Y-81313190D02*
X91903761Y-81351285D01*
X91903761Y-81351285D02*
X91865666Y-81427476D01*
X91865666Y-81427476D02*
X91827571Y-81579857D01*
X91827571Y-81579857D02*
X91827571Y-81770333D01*
X91827571Y-81770333D02*
X91865666Y-81922714D01*
X91865666Y-81922714D02*
X91903761Y-81998904D01*
X91903761Y-81998904D02*
X91941856Y-82037000D01*
X91941856Y-82037000D02*
X92018047Y-82075095D01*
X92018047Y-82075095D02*
X92094237Y-82075095D01*
X92094237Y-82075095D02*
X92170428Y-82037000D01*
X92170428Y-82037000D02*
X92208523Y-81998904D01*
X92208523Y-81998904D02*
X92246618Y-81922714D01*
X92246618Y-81922714D02*
X92284714Y-81770333D01*
X92284714Y-81770333D02*
X92284714Y-81579857D01*
X92284714Y-81579857D02*
X92246618Y-81427476D01*
X92246618Y-81427476D02*
X92208523Y-81351285D01*
X92208523Y-81351285D02*
X92170428Y-81313190D01*
X92170428Y-81313190D02*
X92094237Y-81275095D01*
%TO.C,J5*%
X132600666Y-86057095D02*
X132600666Y-86628523D01*
X132600666Y-86628523D02*
X132638761Y-86742809D01*
X132638761Y-86742809D02*
X132714952Y-86819000D01*
X132714952Y-86819000D02*
X132829237Y-86857095D01*
X132829237Y-86857095D02*
X132905428Y-86857095D01*
X131838761Y-86057095D02*
X132219713Y-86057095D01*
X132219713Y-86057095D02*
X132257809Y-86438047D01*
X132257809Y-86438047D02*
X132219713Y-86399952D01*
X132219713Y-86399952D02*
X132143523Y-86361857D01*
X132143523Y-86361857D02*
X131953047Y-86361857D01*
X131953047Y-86361857D02*
X131876856Y-86399952D01*
X131876856Y-86399952D02*
X131838761Y-86438047D01*
X131838761Y-86438047D02*
X131800666Y-86514238D01*
X131800666Y-86514238D02*
X131800666Y-86704714D01*
X131800666Y-86704714D02*
X131838761Y-86780904D01*
X131838761Y-86780904D02*
X131876856Y-86819000D01*
X131876856Y-86819000D02*
X131953047Y-86857095D01*
X131953047Y-86857095D02*
X132143523Y-86857095D01*
X132143523Y-86857095D02*
X132219713Y-86819000D01*
X132219713Y-86819000D02*
X132257809Y-86780904D01*
%TO.C,U28*%
X145516475Y-29669095D02*
X145516475Y-30316714D01*
X145516475Y-30316714D02*
X145478380Y-30392904D01*
X145478380Y-30392904D02*
X145440285Y-30431000D01*
X145440285Y-30431000D02*
X145364094Y-30469095D01*
X145364094Y-30469095D02*
X145211713Y-30469095D01*
X145211713Y-30469095D02*
X145135523Y-30431000D01*
X145135523Y-30431000D02*
X145097428Y-30392904D01*
X145097428Y-30392904D02*
X145059332Y-30316714D01*
X145059332Y-30316714D02*
X145059332Y-29669095D01*
X144716476Y-29745285D02*
X144678380Y-29707190D01*
X144678380Y-29707190D02*
X144602190Y-29669095D01*
X144602190Y-29669095D02*
X144411714Y-29669095D01*
X144411714Y-29669095D02*
X144335523Y-29707190D01*
X144335523Y-29707190D02*
X144297428Y-29745285D01*
X144297428Y-29745285D02*
X144259333Y-29821476D01*
X144259333Y-29821476D02*
X144259333Y-29897666D01*
X144259333Y-29897666D02*
X144297428Y-30011952D01*
X144297428Y-30011952D02*
X144754571Y-30469095D01*
X144754571Y-30469095D02*
X144259333Y-30469095D01*
X143802190Y-30011952D02*
X143878380Y-29973857D01*
X143878380Y-29973857D02*
X143916475Y-29935761D01*
X143916475Y-29935761D02*
X143954571Y-29859571D01*
X143954571Y-29859571D02*
X143954571Y-29821476D01*
X143954571Y-29821476D02*
X143916475Y-29745285D01*
X143916475Y-29745285D02*
X143878380Y-29707190D01*
X143878380Y-29707190D02*
X143802190Y-29669095D01*
X143802190Y-29669095D02*
X143649809Y-29669095D01*
X143649809Y-29669095D02*
X143573618Y-29707190D01*
X143573618Y-29707190D02*
X143535523Y-29745285D01*
X143535523Y-29745285D02*
X143497428Y-29821476D01*
X143497428Y-29821476D02*
X143497428Y-29859571D01*
X143497428Y-29859571D02*
X143535523Y-29935761D01*
X143535523Y-29935761D02*
X143573618Y-29973857D01*
X143573618Y-29973857D02*
X143649809Y-30011952D01*
X143649809Y-30011952D02*
X143802190Y-30011952D01*
X143802190Y-30011952D02*
X143878380Y-30050047D01*
X143878380Y-30050047D02*
X143916475Y-30088142D01*
X143916475Y-30088142D02*
X143954571Y-30164333D01*
X143954571Y-30164333D02*
X143954571Y-30316714D01*
X143954571Y-30316714D02*
X143916475Y-30392904D01*
X143916475Y-30392904D02*
X143878380Y-30431000D01*
X143878380Y-30431000D02*
X143802190Y-30469095D01*
X143802190Y-30469095D02*
X143649809Y-30469095D01*
X143649809Y-30469095D02*
X143573618Y-30431000D01*
X143573618Y-30431000D02*
X143535523Y-30392904D01*
X143535523Y-30392904D02*
X143497428Y-30316714D01*
X143497428Y-30316714D02*
X143497428Y-30164333D01*
X143497428Y-30164333D02*
X143535523Y-30088142D01*
X143535523Y-30088142D02*
X143573618Y-30050047D01*
X143573618Y-30050047D02*
X143649809Y-30011952D01*
%TO.C,J1*%
X6870666Y-53164095D02*
X6870666Y-53735523D01*
X6870666Y-53735523D02*
X6908761Y-53849809D01*
X6908761Y-53849809D02*
X6984952Y-53926000D01*
X6984952Y-53926000D02*
X7099237Y-53964095D01*
X7099237Y-53964095D02*
X7175428Y-53964095D01*
X6070666Y-53964095D02*
X6527809Y-53964095D01*
X6299237Y-53964095D02*
X6299237Y-53164095D01*
X6299237Y-53164095D02*
X6375428Y-53278380D01*
X6375428Y-53278380D02*
X6451618Y-53354571D01*
X6451618Y-53354571D02*
X6527809Y-53392666D01*
%TO.C,J2*%
X63385666Y-74123095D02*
X63385666Y-74694523D01*
X63385666Y-74694523D02*
X63423761Y-74808809D01*
X63423761Y-74808809D02*
X63499952Y-74885000D01*
X63499952Y-74885000D02*
X63614237Y-74923095D01*
X63614237Y-74923095D02*
X63690428Y-74923095D01*
X63042809Y-74199285D02*
X63004713Y-74161190D01*
X63004713Y-74161190D02*
X62928523Y-74123095D01*
X62928523Y-74123095D02*
X62738047Y-74123095D01*
X62738047Y-74123095D02*
X62661856Y-74161190D01*
X62661856Y-74161190D02*
X62623761Y-74199285D01*
X62623761Y-74199285D02*
X62585666Y-74275476D01*
X62585666Y-74275476D02*
X62585666Y-74351666D01*
X62585666Y-74351666D02*
X62623761Y-74465952D01*
X62623761Y-74465952D02*
X63080904Y-74923095D01*
X63080904Y-74923095D02*
X62585666Y-74923095D01*
%TO.C,C116*%
X41027237Y-39028904D02*
X41065333Y-39067000D01*
X41065333Y-39067000D02*
X41179618Y-39105095D01*
X41179618Y-39105095D02*
X41255809Y-39105095D01*
X41255809Y-39105095D02*
X41370095Y-39067000D01*
X41370095Y-39067000D02*
X41446285Y-38990809D01*
X41446285Y-38990809D02*
X41484380Y-38914619D01*
X41484380Y-38914619D02*
X41522476Y-38762238D01*
X41522476Y-38762238D02*
X41522476Y-38647952D01*
X41522476Y-38647952D02*
X41484380Y-38495571D01*
X41484380Y-38495571D02*
X41446285Y-38419380D01*
X41446285Y-38419380D02*
X41370095Y-38343190D01*
X41370095Y-38343190D02*
X41255809Y-38305095D01*
X41255809Y-38305095D02*
X41179618Y-38305095D01*
X41179618Y-38305095D02*
X41065333Y-38343190D01*
X41065333Y-38343190D02*
X41027237Y-38381285D01*
X40265333Y-39105095D02*
X40722476Y-39105095D01*
X40493904Y-39105095D02*
X40493904Y-38305095D01*
X40493904Y-38305095D02*
X40570095Y-38419380D01*
X40570095Y-38419380D02*
X40646285Y-38495571D01*
X40646285Y-38495571D02*
X40722476Y-38533666D01*
X39503428Y-39105095D02*
X39960571Y-39105095D01*
X39731999Y-39105095D02*
X39731999Y-38305095D01*
X39731999Y-38305095D02*
X39808190Y-38419380D01*
X39808190Y-38419380D02*
X39884380Y-38495571D01*
X39884380Y-38495571D02*
X39960571Y-38533666D01*
X38817713Y-38305095D02*
X38970094Y-38305095D01*
X38970094Y-38305095D02*
X39046285Y-38343190D01*
X39046285Y-38343190D02*
X39084380Y-38381285D01*
X39084380Y-38381285D02*
X39160570Y-38495571D01*
X39160570Y-38495571D02*
X39198666Y-38647952D01*
X39198666Y-38647952D02*
X39198666Y-38952714D01*
X39198666Y-38952714D02*
X39160570Y-39028904D01*
X39160570Y-39028904D02*
X39122475Y-39067000D01*
X39122475Y-39067000D02*
X39046285Y-39105095D01*
X39046285Y-39105095D02*
X38893904Y-39105095D01*
X38893904Y-39105095D02*
X38817713Y-39067000D01*
X38817713Y-39067000D02*
X38779618Y-39028904D01*
X38779618Y-39028904D02*
X38741523Y-38952714D01*
X38741523Y-38952714D02*
X38741523Y-38762238D01*
X38741523Y-38762238D02*
X38779618Y-38686047D01*
X38779618Y-38686047D02*
X38817713Y-38647952D01*
X38817713Y-38647952D02*
X38893904Y-38609857D01*
X38893904Y-38609857D02*
X39046285Y-38609857D01*
X39046285Y-38609857D02*
X39122475Y-38647952D01*
X39122475Y-38647952D02*
X39160570Y-38686047D01*
X39160570Y-38686047D02*
X39198666Y-38762238D01*
%TO.C,U9*%
X117703523Y-46687095D02*
X117703523Y-47334714D01*
X117703523Y-47334714D02*
X117665428Y-47410904D01*
X117665428Y-47410904D02*
X117627333Y-47449000D01*
X117627333Y-47449000D02*
X117551142Y-47487095D01*
X117551142Y-47487095D02*
X117398761Y-47487095D01*
X117398761Y-47487095D02*
X117322571Y-47449000D01*
X117322571Y-47449000D02*
X117284476Y-47410904D01*
X117284476Y-47410904D02*
X117246380Y-47334714D01*
X117246380Y-47334714D02*
X117246380Y-46687095D01*
X116827333Y-47487095D02*
X116674952Y-47487095D01*
X116674952Y-47487095D02*
X116598762Y-47449000D01*
X116598762Y-47449000D02*
X116560666Y-47410904D01*
X116560666Y-47410904D02*
X116484476Y-47296619D01*
X116484476Y-47296619D02*
X116446381Y-47144238D01*
X116446381Y-47144238D02*
X116446381Y-46839476D01*
X116446381Y-46839476D02*
X116484476Y-46763285D01*
X116484476Y-46763285D02*
X116522571Y-46725190D01*
X116522571Y-46725190D02*
X116598762Y-46687095D01*
X116598762Y-46687095D02*
X116751143Y-46687095D01*
X116751143Y-46687095D02*
X116827333Y-46725190D01*
X116827333Y-46725190D02*
X116865428Y-46763285D01*
X116865428Y-46763285D02*
X116903524Y-46839476D01*
X116903524Y-46839476D02*
X116903524Y-47029952D01*
X116903524Y-47029952D02*
X116865428Y-47106142D01*
X116865428Y-47106142D02*
X116827333Y-47144238D01*
X116827333Y-47144238D02*
X116751143Y-47182333D01*
X116751143Y-47182333D02*
X116598762Y-47182333D01*
X116598762Y-47182333D02*
X116522571Y-47144238D01*
X116522571Y-47144238D02*
X116484476Y-47106142D01*
X116484476Y-47106142D02*
X116446381Y-47029952D01*
%TO.C,U13*%
X133797095Y-48412524D02*
X134444714Y-48412524D01*
X134444714Y-48412524D02*
X134520904Y-48450619D01*
X134520904Y-48450619D02*
X134559000Y-48488714D01*
X134559000Y-48488714D02*
X134597095Y-48564905D01*
X134597095Y-48564905D02*
X134597095Y-48717286D01*
X134597095Y-48717286D02*
X134559000Y-48793476D01*
X134559000Y-48793476D02*
X134520904Y-48831571D01*
X134520904Y-48831571D02*
X134444714Y-48869667D01*
X134444714Y-48869667D02*
X133797095Y-48869667D01*
X134597095Y-49669666D02*
X134597095Y-49212523D01*
X134597095Y-49441095D02*
X133797095Y-49441095D01*
X133797095Y-49441095D02*
X133911380Y-49364904D01*
X133911380Y-49364904D02*
X133987571Y-49288714D01*
X133987571Y-49288714D02*
X134025666Y-49212523D01*
X133797095Y-49936333D02*
X133797095Y-50431571D01*
X133797095Y-50431571D02*
X134101857Y-50164905D01*
X134101857Y-50164905D02*
X134101857Y-50279190D01*
X134101857Y-50279190D02*
X134139952Y-50355381D01*
X134139952Y-50355381D02*
X134178047Y-50393476D01*
X134178047Y-50393476D02*
X134254238Y-50431571D01*
X134254238Y-50431571D02*
X134444714Y-50431571D01*
X134444714Y-50431571D02*
X134520904Y-50393476D01*
X134520904Y-50393476D02*
X134559000Y-50355381D01*
X134559000Y-50355381D02*
X134597095Y-50279190D01*
X134597095Y-50279190D02*
X134597095Y-50050619D01*
X134597095Y-50050619D02*
X134559000Y-49974428D01*
X134559000Y-49974428D02*
X134520904Y-49936333D01*
%TO.C,U5*%
X50177523Y-88764095D02*
X50177523Y-89411714D01*
X50177523Y-89411714D02*
X50139428Y-89487904D01*
X50139428Y-89487904D02*
X50101333Y-89526000D01*
X50101333Y-89526000D02*
X50025142Y-89564095D01*
X50025142Y-89564095D02*
X49872761Y-89564095D01*
X49872761Y-89564095D02*
X49796571Y-89526000D01*
X49796571Y-89526000D02*
X49758476Y-89487904D01*
X49758476Y-89487904D02*
X49720380Y-89411714D01*
X49720380Y-89411714D02*
X49720380Y-88764095D01*
X48958476Y-88764095D02*
X49339428Y-88764095D01*
X49339428Y-88764095D02*
X49377524Y-89145047D01*
X49377524Y-89145047D02*
X49339428Y-89106952D01*
X49339428Y-89106952D02*
X49263238Y-89068857D01*
X49263238Y-89068857D02*
X49072762Y-89068857D01*
X49072762Y-89068857D02*
X48996571Y-89106952D01*
X48996571Y-89106952D02*
X48958476Y-89145047D01*
X48958476Y-89145047D02*
X48920381Y-89221238D01*
X48920381Y-89221238D02*
X48920381Y-89411714D01*
X48920381Y-89411714D02*
X48958476Y-89487904D01*
X48958476Y-89487904D02*
X48996571Y-89526000D01*
X48996571Y-89526000D02*
X49072762Y-89564095D01*
X49072762Y-89564095D02*
X49263238Y-89564095D01*
X49263238Y-89564095D02*
X49339428Y-89526000D01*
X49339428Y-89526000D02*
X49377524Y-89487904D01*
D15*
X55672567Y-84874820D02*
X54385634Y-84874820D01*
X55029100Y-85518287D02*
X55029100Y-84231354D01*
X52776967Y-83829187D02*
X53581300Y-83829187D01*
X53581300Y-83829187D02*
X53661733Y-84633520D01*
X53661733Y-84633520D02*
X53581300Y-84553087D01*
X53581300Y-84553087D02*
X53420433Y-84472654D01*
X53420433Y-84472654D02*
X53018267Y-84472654D01*
X53018267Y-84472654D02*
X52857400Y-84553087D01*
X52857400Y-84553087D02*
X52776967Y-84633520D01*
X52776967Y-84633520D02*
X52696533Y-84794387D01*
X52696533Y-84794387D02*
X52696533Y-85196554D01*
X52696533Y-85196554D02*
X52776967Y-85357420D01*
X52776967Y-85357420D02*
X52857400Y-85437854D01*
X52857400Y-85437854D02*
X53018267Y-85518287D01*
X53018267Y-85518287D02*
X53420433Y-85518287D01*
X53420433Y-85518287D02*
X53581300Y-85437854D01*
X53581300Y-85437854D02*
X53661733Y-85357420D01*
X52213933Y-83829187D02*
X51650900Y-85518287D01*
X51650900Y-85518287D02*
X51087866Y-83829187D01*
X54144333Y-77898287D02*
X54707366Y-77093954D01*
X55109533Y-77898287D02*
X55109533Y-76209187D01*
X55109533Y-76209187D02*
X54466066Y-76209187D01*
X54466066Y-76209187D02*
X54305200Y-76289620D01*
X54305200Y-76289620D02*
X54224766Y-76370054D01*
X54224766Y-76370054D02*
X54144333Y-76530920D01*
X54144333Y-76530920D02*
X54144333Y-76772220D01*
X54144333Y-76772220D02*
X54224766Y-76933087D01*
X54224766Y-76933087D02*
X54305200Y-77013520D01*
X54305200Y-77013520D02*
X54466066Y-77093954D01*
X54466066Y-77093954D02*
X55109533Y-77093954D01*
X53500866Y-77817854D02*
X53259566Y-77898287D01*
X53259566Y-77898287D02*
X52857400Y-77898287D01*
X52857400Y-77898287D02*
X52696533Y-77817854D01*
X52696533Y-77817854D02*
X52616100Y-77737420D01*
X52616100Y-77737420D02*
X52535666Y-77576554D01*
X52535666Y-77576554D02*
X52535666Y-77415687D01*
X52535666Y-77415687D02*
X52616100Y-77254820D01*
X52616100Y-77254820D02*
X52696533Y-77174387D01*
X52696533Y-77174387D02*
X52857400Y-77093954D01*
X52857400Y-77093954D02*
X53179133Y-77013520D01*
X53179133Y-77013520D02*
X53340000Y-76933087D01*
X53340000Y-76933087D02*
X53420433Y-76852654D01*
X53420433Y-76852654D02*
X53500866Y-76691787D01*
X53500866Y-76691787D02*
X53500866Y-76530920D01*
X53500866Y-76530920D02*
X53420433Y-76370054D01*
X53420433Y-76370054D02*
X53340000Y-76289620D01*
X53340000Y-76289620D02*
X53179133Y-76209187D01*
X53179133Y-76209187D02*
X52776966Y-76209187D01*
X52776966Y-76209187D02*
X52535666Y-76289620D01*
X52053066Y-76209187D02*
X51087866Y-76209187D01*
X51570466Y-77898287D02*
X51570466Y-76209187D01*
X57281234Y-82334820D02*
X55994301Y-82334820D01*
X56637767Y-82978287D02*
X56637767Y-81691354D01*
X55350834Y-81289187D02*
X54305200Y-81289187D01*
X54305200Y-81289187D02*
X54868234Y-81932654D01*
X54868234Y-81932654D02*
X54626934Y-81932654D01*
X54626934Y-81932654D02*
X54466067Y-82013087D01*
X54466067Y-82013087D02*
X54385634Y-82093520D01*
X54385634Y-82093520D02*
X54305200Y-82254387D01*
X54305200Y-82254387D02*
X54305200Y-82656554D01*
X54305200Y-82656554D02*
X54385634Y-82817420D01*
X54385634Y-82817420D02*
X54466067Y-82897854D01*
X54466067Y-82897854D02*
X54626934Y-82978287D01*
X54626934Y-82978287D02*
X55109534Y-82978287D01*
X55109534Y-82978287D02*
X55270400Y-82897854D01*
X55270400Y-82897854D02*
X55350834Y-82817420D01*
X53822600Y-81289187D02*
X53259567Y-82978287D01*
X53259567Y-82978287D02*
X52696533Y-81289187D01*
X52294367Y-81289187D02*
X51248733Y-81289187D01*
X51248733Y-81289187D02*
X51811767Y-81932654D01*
X51811767Y-81932654D02*
X51570467Y-81932654D01*
X51570467Y-81932654D02*
X51409600Y-82013087D01*
X51409600Y-82013087D02*
X51329167Y-82093520D01*
X51329167Y-82093520D02*
X51248733Y-82254387D01*
X51248733Y-82254387D02*
X51248733Y-82656554D01*
X51248733Y-82656554D02*
X51329167Y-82817420D01*
X51329167Y-82817420D02*
X51409600Y-82897854D01*
X51409600Y-82897854D02*
X51570467Y-82978287D01*
X51570467Y-82978287D02*
X52053067Y-82978287D01*
X52053067Y-82978287D02*
X52213933Y-82897854D01*
X52213933Y-82897854D02*
X52294367Y-82817420D01*
X54546500Y-72818287D02*
X55109533Y-72013954D01*
X55511700Y-72818287D02*
X55511700Y-71129187D01*
X55511700Y-71129187D02*
X54868233Y-71129187D01*
X54868233Y-71129187D02*
X54707367Y-71209620D01*
X54707367Y-71209620D02*
X54626933Y-71290054D01*
X54626933Y-71290054D02*
X54546500Y-71450920D01*
X54546500Y-71450920D02*
X54546500Y-71692220D01*
X54546500Y-71692220D02*
X54626933Y-71853087D01*
X54626933Y-71853087D02*
X54707367Y-71933520D01*
X54707367Y-71933520D02*
X54868233Y-72013954D01*
X54868233Y-72013954D02*
X55511700Y-72013954D01*
X53983467Y-71129187D02*
X52857400Y-72818287D01*
X52857400Y-71129187D02*
X53983467Y-72818287D01*
X52213933Y-72818287D02*
X52213933Y-71129187D01*
X52213933Y-71129187D02*
X51811766Y-71129187D01*
X51811766Y-71129187D02*
X51570466Y-71209620D01*
X51570466Y-71209620D02*
X51409600Y-71370487D01*
X51409600Y-71370487D02*
X51329166Y-71531354D01*
X51329166Y-71531354D02*
X51248733Y-71853087D01*
X51248733Y-71853087D02*
X51248733Y-72094387D01*
X51248733Y-72094387D02*
X51329166Y-72416120D01*
X51329166Y-72416120D02*
X51409600Y-72576987D01*
X51409600Y-72576987D02*
X51570466Y-72737854D01*
X51570466Y-72737854D02*
X51811766Y-72818287D01*
X51811766Y-72818287D02*
X52213933Y-72818287D01*
X54787799Y-78829620D02*
X54948666Y-78749187D01*
X54948666Y-78749187D02*
X55189966Y-78749187D01*
X55189966Y-78749187D02*
X55431266Y-78829620D01*
X55431266Y-78829620D02*
X55592133Y-78990487D01*
X55592133Y-78990487D02*
X55672566Y-79151354D01*
X55672566Y-79151354D02*
X55752999Y-79473087D01*
X55752999Y-79473087D02*
X55752999Y-79714387D01*
X55752999Y-79714387D02*
X55672566Y-80036120D01*
X55672566Y-80036120D02*
X55592133Y-80196987D01*
X55592133Y-80196987D02*
X55431266Y-80357854D01*
X55431266Y-80357854D02*
X55189966Y-80438287D01*
X55189966Y-80438287D02*
X55029099Y-80438287D01*
X55029099Y-80438287D02*
X54787799Y-80357854D01*
X54787799Y-80357854D02*
X54707366Y-80277420D01*
X54707366Y-80277420D02*
X54707366Y-79714387D01*
X54707366Y-79714387D02*
X55029099Y-79714387D01*
X53983466Y-80438287D02*
X53983466Y-78749187D01*
X53983466Y-78749187D02*
X53018266Y-80438287D01*
X53018266Y-80438287D02*
X53018266Y-78749187D01*
X52213933Y-80438287D02*
X52213933Y-78749187D01*
X52213933Y-78749187D02*
X51811766Y-78749187D01*
X51811766Y-78749187D02*
X51570466Y-78829620D01*
X51570466Y-78829620D02*
X51409600Y-78990487D01*
X51409600Y-78990487D02*
X51329166Y-79151354D01*
X51329166Y-79151354D02*
X51248733Y-79473087D01*
X51248733Y-79473087D02*
X51248733Y-79714387D01*
X51248733Y-79714387D02*
X51329166Y-80036120D01*
X51329166Y-80036120D02*
X51409600Y-80196987D01*
X51409600Y-80196987D02*
X51570466Y-80357854D01*
X51570466Y-80357854D02*
X51811766Y-80438287D01*
X51811766Y-80438287D02*
X52213933Y-80438287D01*
X55350833Y-73669187D02*
X54385633Y-73669187D01*
X54868233Y-75358287D02*
X54868233Y-73669187D01*
X53983467Y-73669187D02*
X52857400Y-75358287D01*
X52857400Y-73669187D02*
X53983467Y-75358287D01*
X52213933Y-75358287D02*
X52213933Y-73669187D01*
X52213933Y-73669187D02*
X51811766Y-73669187D01*
X51811766Y-73669187D02*
X51570466Y-73749620D01*
X51570466Y-73749620D02*
X51409600Y-73910487D01*
X51409600Y-73910487D02*
X51329166Y-74071354D01*
X51329166Y-74071354D02*
X51248733Y-74393087D01*
X51248733Y-74393087D02*
X51248733Y-74634387D01*
X51248733Y-74634387D02*
X51329166Y-74956120D01*
X51329166Y-74956120D02*
X51409600Y-75116987D01*
X51409600Y-75116987D02*
X51570466Y-75277854D01*
X51570466Y-75277854D02*
X51811766Y-75358287D01*
X51811766Y-75358287D02*
X52213933Y-75358287D01*
X54385633Y-70117420D02*
X54466066Y-70197854D01*
X54466066Y-70197854D02*
X54707366Y-70278287D01*
X54707366Y-70278287D02*
X54868233Y-70278287D01*
X54868233Y-70278287D02*
X55109533Y-70197854D01*
X55109533Y-70197854D02*
X55270400Y-70036987D01*
X55270400Y-70036987D02*
X55350833Y-69876120D01*
X55350833Y-69876120D02*
X55431266Y-69554387D01*
X55431266Y-69554387D02*
X55431266Y-69313087D01*
X55431266Y-69313087D02*
X55350833Y-68991354D01*
X55350833Y-68991354D02*
X55270400Y-68830487D01*
X55270400Y-68830487D02*
X55109533Y-68669620D01*
X55109533Y-68669620D02*
X54868233Y-68589187D01*
X54868233Y-68589187D02*
X54707366Y-68589187D01*
X54707366Y-68589187D02*
X54466066Y-68669620D01*
X54466066Y-68669620D02*
X54385633Y-68750054D01*
X53098700Y-69393520D02*
X53661733Y-69393520D01*
X53661733Y-70278287D02*
X53661733Y-68589187D01*
X53661733Y-68589187D02*
X52857400Y-68589187D01*
X51329166Y-68669620D02*
X51490033Y-68589187D01*
X51490033Y-68589187D02*
X51731333Y-68589187D01*
X51731333Y-68589187D02*
X51972633Y-68669620D01*
X51972633Y-68669620D02*
X52133500Y-68830487D01*
X52133500Y-68830487D02*
X52213933Y-68991354D01*
X52213933Y-68991354D02*
X52294366Y-69313087D01*
X52294366Y-69313087D02*
X52294366Y-69554387D01*
X52294366Y-69554387D02*
X52213933Y-69876120D01*
X52213933Y-69876120D02*
X52133500Y-70036987D01*
X52133500Y-70036987D02*
X51972633Y-70197854D01*
X51972633Y-70197854D02*
X51731333Y-70278287D01*
X51731333Y-70278287D02*
X51570466Y-70278287D01*
X51570466Y-70278287D02*
X51329166Y-70197854D01*
X51329166Y-70197854D02*
X51248733Y-70117420D01*
X51248733Y-70117420D02*
X51248733Y-69554387D01*
X51248733Y-69554387D02*
X51570466Y-69554387D01*
D14*
%TO.C,U24*%
X100431475Y-29796095D02*
X100431475Y-30443714D01*
X100431475Y-30443714D02*
X100393380Y-30519904D01*
X100393380Y-30519904D02*
X100355285Y-30558000D01*
X100355285Y-30558000D02*
X100279094Y-30596095D01*
X100279094Y-30596095D02*
X100126713Y-30596095D01*
X100126713Y-30596095D02*
X100050523Y-30558000D01*
X100050523Y-30558000D02*
X100012428Y-30519904D01*
X100012428Y-30519904D02*
X99974332Y-30443714D01*
X99974332Y-30443714D02*
X99974332Y-29796095D01*
X99631476Y-29872285D02*
X99593380Y-29834190D01*
X99593380Y-29834190D02*
X99517190Y-29796095D01*
X99517190Y-29796095D02*
X99326714Y-29796095D01*
X99326714Y-29796095D02*
X99250523Y-29834190D01*
X99250523Y-29834190D02*
X99212428Y-29872285D01*
X99212428Y-29872285D02*
X99174333Y-29948476D01*
X99174333Y-29948476D02*
X99174333Y-30024666D01*
X99174333Y-30024666D02*
X99212428Y-30138952D01*
X99212428Y-30138952D02*
X99669571Y-30596095D01*
X99669571Y-30596095D02*
X99174333Y-30596095D01*
X98488618Y-30062761D02*
X98488618Y-30596095D01*
X98679094Y-29758000D02*
X98869571Y-30329428D01*
X98869571Y-30329428D02*
X98374332Y-30329428D01*
%TO.C,C140*%
X133229237Y-37631904D02*
X133267333Y-37670000D01*
X133267333Y-37670000D02*
X133381618Y-37708095D01*
X133381618Y-37708095D02*
X133457809Y-37708095D01*
X133457809Y-37708095D02*
X133572095Y-37670000D01*
X133572095Y-37670000D02*
X133648285Y-37593809D01*
X133648285Y-37593809D02*
X133686380Y-37517619D01*
X133686380Y-37517619D02*
X133724476Y-37365238D01*
X133724476Y-37365238D02*
X133724476Y-37250952D01*
X133724476Y-37250952D02*
X133686380Y-37098571D01*
X133686380Y-37098571D02*
X133648285Y-37022380D01*
X133648285Y-37022380D02*
X133572095Y-36946190D01*
X133572095Y-36946190D02*
X133457809Y-36908095D01*
X133457809Y-36908095D02*
X133381618Y-36908095D01*
X133381618Y-36908095D02*
X133267333Y-36946190D01*
X133267333Y-36946190D02*
X133229237Y-36984285D01*
X132467333Y-37708095D02*
X132924476Y-37708095D01*
X132695904Y-37708095D02*
X132695904Y-36908095D01*
X132695904Y-36908095D02*
X132772095Y-37022380D01*
X132772095Y-37022380D02*
X132848285Y-37098571D01*
X132848285Y-37098571D02*
X132924476Y-37136666D01*
X131781618Y-37174761D02*
X131781618Y-37708095D01*
X131972094Y-36870000D02*
X132162571Y-37441428D01*
X132162571Y-37441428D02*
X131667332Y-37441428D01*
X131210189Y-36908095D02*
X131133999Y-36908095D01*
X131133999Y-36908095D02*
X131057808Y-36946190D01*
X131057808Y-36946190D02*
X131019713Y-36984285D01*
X131019713Y-36984285D02*
X130981618Y-37060476D01*
X130981618Y-37060476D02*
X130943523Y-37212857D01*
X130943523Y-37212857D02*
X130943523Y-37403333D01*
X130943523Y-37403333D02*
X130981618Y-37555714D01*
X130981618Y-37555714D02*
X131019713Y-37631904D01*
X131019713Y-37631904D02*
X131057808Y-37670000D01*
X131057808Y-37670000D02*
X131133999Y-37708095D01*
X131133999Y-37708095D02*
X131210189Y-37708095D01*
X131210189Y-37708095D02*
X131286380Y-37670000D01*
X131286380Y-37670000D02*
X131324475Y-37631904D01*
X131324475Y-37631904D02*
X131362570Y-37555714D01*
X131362570Y-37555714D02*
X131400666Y-37403333D01*
X131400666Y-37403333D02*
X131400666Y-37212857D01*
X131400666Y-37212857D02*
X131362570Y-37060476D01*
X131362570Y-37060476D02*
X131324475Y-36984285D01*
X131324475Y-36984285D02*
X131286380Y-36946190D01*
X131286380Y-36946190D02*
X131210189Y-36908095D01*
%TO.C,U20*%
X56362475Y-29796095D02*
X56362475Y-30443714D01*
X56362475Y-30443714D02*
X56324380Y-30519904D01*
X56324380Y-30519904D02*
X56286285Y-30558000D01*
X56286285Y-30558000D02*
X56210094Y-30596095D01*
X56210094Y-30596095D02*
X56057713Y-30596095D01*
X56057713Y-30596095D02*
X55981523Y-30558000D01*
X55981523Y-30558000D02*
X55943428Y-30519904D01*
X55943428Y-30519904D02*
X55905332Y-30443714D01*
X55905332Y-30443714D02*
X55905332Y-29796095D01*
X55562476Y-29872285D02*
X55524380Y-29834190D01*
X55524380Y-29834190D02*
X55448190Y-29796095D01*
X55448190Y-29796095D02*
X55257714Y-29796095D01*
X55257714Y-29796095D02*
X55181523Y-29834190D01*
X55181523Y-29834190D02*
X55143428Y-29872285D01*
X55143428Y-29872285D02*
X55105333Y-29948476D01*
X55105333Y-29948476D02*
X55105333Y-30024666D01*
X55105333Y-30024666D02*
X55143428Y-30138952D01*
X55143428Y-30138952D02*
X55600571Y-30596095D01*
X55600571Y-30596095D02*
X55105333Y-30596095D01*
X54610094Y-29796095D02*
X54533904Y-29796095D01*
X54533904Y-29796095D02*
X54457713Y-29834190D01*
X54457713Y-29834190D02*
X54419618Y-29872285D01*
X54419618Y-29872285D02*
X54381523Y-29948476D01*
X54381523Y-29948476D02*
X54343428Y-30100857D01*
X54343428Y-30100857D02*
X54343428Y-30291333D01*
X54343428Y-30291333D02*
X54381523Y-30443714D01*
X54381523Y-30443714D02*
X54419618Y-30519904D01*
X54419618Y-30519904D02*
X54457713Y-30558000D01*
X54457713Y-30558000D02*
X54533904Y-30596095D01*
X54533904Y-30596095D02*
X54610094Y-30596095D01*
X54610094Y-30596095D02*
X54686285Y-30558000D01*
X54686285Y-30558000D02*
X54724380Y-30519904D01*
X54724380Y-30519904D02*
X54762475Y-30443714D01*
X54762475Y-30443714D02*
X54800571Y-30291333D01*
X54800571Y-30291333D02*
X54800571Y-30100857D01*
X54800571Y-30100857D02*
X54762475Y-29948476D01*
X54762475Y-29948476D02*
X54724380Y-29872285D01*
X54724380Y-29872285D02*
X54686285Y-29834190D01*
X54686285Y-29834190D02*
X54610094Y-29796095D01*
%TO.C,C63*%
X147072285Y-71413904D02*
X147110381Y-71452000D01*
X147110381Y-71452000D02*
X147224666Y-71490095D01*
X147224666Y-71490095D02*
X147300857Y-71490095D01*
X147300857Y-71490095D02*
X147415143Y-71452000D01*
X147415143Y-71452000D02*
X147491333Y-71375809D01*
X147491333Y-71375809D02*
X147529428Y-71299619D01*
X147529428Y-71299619D02*
X147567524Y-71147238D01*
X147567524Y-71147238D02*
X147567524Y-71032952D01*
X147567524Y-71032952D02*
X147529428Y-70880571D01*
X147529428Y-70880571D02*
X147491333Y-70804380D01*
X147491333Y-70804380D02*
X147415143Y-70728190D01*
X147415143Y-70728190D02*
X147300857Y-70690095D01*
X147300857Y-70690095D02*
X147224666Y-70690095D01*
X147224666Y-70690095D02*
X147110381Y-70728190D01*
X147110381Y-70728190D02*
X147072285Y-70766285D01*
X146386571Y-70690095D02*
X146538952Y-70690095D01*
X146538952Y-70690095D02*
X146615143Y-70728190D01*
X146615143Y-70728190D02*
X146653238Y-70766285D01*
X146653238Y-70766285D02*
X146729428Y-70880571D01*
X146729428Y-70880571D02*
X146767524Y-71032952D01*
X146767524Y-71032952D02*
X146767524Y-71337714D01*
X146767524Y-71337714D02*
X146729428Y-71413904D01*
X146729428Y-71413904D02*
X146691333Y-71452000D01*
X146691333Y-71452000D02*
X146615143Y-71490095D01*
X146615143Y-71490095D02*
X146462762Y-71490095D01*
X146462762Y-71490095D02*
X146386571Y-71452000D01*
X146386571Y-71452000D02*
X146348476Y-71413904D01*
X146348476Y-71413904D02*
X146310381Y-71337714D01*
X146310381Y-71337714D02*
X146310381Y-71147238D01*
X146310381Y-71147238D02*
X146348476Y-71071047D01*
X146348476Y-71071047D02*
X146386571Y-71032952D01*
X146386571Y-71032952D02*
X146462762Y-70994857D01*
X146462762Y-70994857D02*
X146615143Y-70994857D01*
X146615143Y-70994857D02*
X146691333Y-71032952D01*
X146691333Y-71032952D02*
X146729428Y-71071047D01*
X146729428Y-71071047D02*
X146767524Y-71147238D01*
X146043714Y-70690095D02*
X145548476Y-70690095D01*
X145548476Y-70690095D02*
X145815142Y-70994857D01*
X145815142Y-70994857D02*
X145700857Y-70994857D01*
X145700857Y-70994857D02*
X145624666Y-71032952D01*
X145624666Y-71032952D02*
X145586571Y-71071047D01*
X145586571Y-71071047D02*
X145548476Y-71147238D01*
X145548476Y-71147238D02*
X145548476Y-71337714D01*
X145548476Y-71337714D02*
X145586571Y-71413904D01*
X145586571Y-71413904D02*
X145624666Y-71452000D01*
X145624666Y-71452000D02*
X145700857Y-71490095D01*
X145700857Y-71490095D02*
X145929428Y-71490095D01*
X145929428Y-71490095D02*
X146005619Y-71452000D01*
X146005619Y-71452000D02*
X146043714Y-71413904D01*
%TO.C,C80*%
X22104285Y-48807904D02*
X22142381Y-48846000D01*
X22142381Y-48846000D02*
X22256666Y-48884095D01*
X22256666Y-48884095D02*
X22332857Y-48884095D01*
X22332857Y-48884095D02*
X22447143Y-48846000D01*
X22447143Y-48846000D02*
X22523333Y-48769809D01*
X22523333Y-48769809D02*
X22561428Y-48693619D01*
X22561428Y-48693619D02*
X22599524Y-48541238D01*
X22599524Y-48541238D02*
X22599524Y-48426952D01*
X22599524Y-48426952D02*
X22561428Y-48274571D01*
X22561428Y-48274571D02*
X22523333Y-48198380D01*
X22523333Y-48198380D02*
X22447143Y-48122190D01*
X22447143Y-48122190D02*
X22332857Y-48084095D01*
X22332857Y-48084095D02*
X22256666Y-48084095D01*
X22256666Y-48084095D02*
X22142381Y-48122190D01*
X22142381Y-48122190D02*
X22104285Y-48160285D01*
X21647143Y-48426952D02*
X21723333Y-48388857D01*
X21723333Y-48388857D02*
X21761428Y-48350761D01*
X21761428Y-48350761D02*
X21799524Y-48274571D01*
X21799524Y-48274571D02*
X21799524Y-48236476D01*
X21799524Y-48236476D02*
X21761428Y-48160285D01*
X21761428Y-48160285D02*
X21723333Y-48122190D01*
X21723333Y-48122190D02*
X21647143Y-48084095D01*
X21647143Y-48084095D02*
X21494762Y-48084095D01*
X21494762Y-48084095D02*
X21418571Y-48122190D01*
X21418571Y-48122190D02*
X21380476Y-48160285D01*
X21380476Y-48160285D02*
X21342381Y-48236476D01*
X21342381Y-48236476D02*
X21342381Y-48274571D01*
X21342381Y-48274571D02*
X21380476Y-48350761D01*
X21380476Y-48350761D02*
X21418571Y-48388857D01*
X21418571Y-48388857D02*
X21494762Y-48426952D01*
X21494762Y-48426952D02*
X21647143Y-48426952D01*
X21647143Y-48426952D02*
X21723333Y-48465047D01*
X21723333Y-48465047D02*
X21761428Y-48503142D01*
X21761428Y-48503142D02*
X21799524Y-48579333D01*
X21799524Y-48579333D02*
X21799524Y-48731714D01*
X21799524Y-48731714D02*
X21761428Y-48807904D01*
X21761428Y-48807904D02*
X21723333Y-48846000D01*
X21723333Y-48846000D02*
X21647143Y-48884095D01*
X21647143Y-48884095D02*
X21494762Y-48884095D01*
X21494762Y-48884095D02*
X21418571Y-48846000D01*
X21418571Y-48846000D02*
X21380476Y-48807904D01*
X21380476Y-48807904D02*
X21342381Y-48731714D01*
X21342381Y-48731714D02*
X21342381Y-48579333D01*
X21342381Y-48579333D02*
X21380476Y-48503142D01*
X21380476Y-48503142D02*
X21418571Y-48465047D01*
X21418571Y-48465047D02*
X21494762Y-48426952D01*
X20847142Y-48084095D02*
X20770952Y-48084095D01*
X20770952Y-48084095D02*
X20694761Y-48122190D01*
X20694761Y-48122190D02*
X20656666Y-48160285D01*
X20656666Y-48160285D02*
X20618571Y-48236476D01*
X20618571Y-48236476D02*
X20580476Y-48388857D01*
X20580476Y-48388857D02*
X20580476Y-48579333D01*
X20580476Y-48579333D02*
X20618571Y-48731714D01*
X20618571Y-48731714D02*
X20656666Y-48807904D01*
X20656666Y-48807904D02*
X20694761Y-48846000D01*
X20694761Y-48846000D02*
X20770952Y-48884095D01*
X20770952Y-48884095D02*
X20847142Y-48884095D01*
X20847142Y-48884095D02*
X20923333Y-48846000D01*
X20923333Y-48846000D02*
X20961428Y-48807904D01*
X20961428Y-48807904D02*
X20999523Y-48731714D01*
X20999523Y-48731714D02*
X21037619Y-48579333D01*
X21037619Y-48579333D02*
X21037619Y-48388857D01*
X21037619Y-48388857D02*
X20999523Y-48236476D01*
X20999523Y-48236476D02*
X20961428Y-48160285D01*
X20961428Y-48160285D02*
X20923333Y-48122190D01*
X20923333Y-48122190D02*
X20847142Y-48084095D01*
%TO.C,C128*%
X84728000Y-37972082D02*
X84728000Y-36722082D01*
X85353000Y-37347082D02*
X84103000Y-37347082D01*
X87483000Y-31155000D02*
X74823000Y-31155000D01*
X87483000Y-31115000D02*
X74823000Y-31115000D01*
X87483000Y-31075000D02*
X74823000Y-31075000D01*
X87482000Y-31035000D02*
X74824000Y-31035000D01*
X87481000Y-30995000D02*
X74825000Y-30995000D01*
X87480000Y-30955000D02*
X74826000Y-30955000D01*
X87479000Y-30915000D02*
X74827000Y-30915000D01*
X87477000Y-30875000D02*
X74829000Y-30875000D01*
X87475000Y-30835000D02*
X74831000Y-30835000D01*
X87473000Y-30795000D02*
X74833000Y-30795000D01*
X87471000Y-30755000D02*
X74835000Y-30755000D01*
X87468000Y-30715000D02*
X74838000Y-30715000D01*
X87465000Y-30675000D02*
X74841000Y-30675000D01*
X87462000Y-30635000D02*
X74844000Y-30635000D01*
X87459000Y-30595000D02*
X74847000Y-30595000D01*
X87455000Y-30555000D02*
X74851000Y-30555000D01*
X87451000Y-30515000D02*
X74855000Y-30515000D01*
X87447000Y-30475000D02*
X74859000Y-30475000D01*
X87443000Y-30434000D02*
X74863000Y-30434000D01*
X87438000Y-30394000D02*
X74868000Y-30394000D01*
X87433000Y-30354000D02*
X74873000Y-30354000D01*
X87428000Y-30314000D02*
X74878000Y-30314000D01*
X87422000Y-30274000D02*
X74884000Y-30274000D01*
X87417000Y-30234000D02*
X74889000Y-30234000D01*
X87411000Y-30194000D02*
X74895000Y-30194000D01*
X87405000Y-30154000D02*
X74901000Y-30154000D01*
X87398000Y-30114000D02*
X74908000Y-30114000D01*
X79713000Y-30074000D02*
X74915000Y-30074000D01*
X87391000Y-30074000D02*
X82593000Y-30074000D01*
X79713000Y-30034000D02*
X74922000Y-30034000D01*
X87384000Y-30034000D02*
X82593000Y-30034000D01*
X79713000Y-29994000D02*
X74929000Y-29994000D01*
X87377000Y-29994000D02*
X82593000Y-29994000D01*
X79713000Y-29954000D02*
X74937000Y-29954000D01*
X87369000Y-29954000D02*
X82593000Y-29954000D01*
X79713000Y-29914000D02*
X74944000Y-29914000D01*
X87362000Y-29914000D02*
X82593000Y-29914000D01*
X79713000Y-29874000D02*
X74952000Y-29874000D01*
X87354000Y-29874000D02*
X82593000Y-29874000D01*
X79713000Y-29834000D02*
X74961000Y-29834000D01*
X87345000Y-29834000D02*
X82593000Y-29834000D01*
X79713000Y-29794000D02*
X74969000Y-29794000D01*
X87337000Y-29794000D02*
X82593000Y-29794000D01*
X79713000Y-29754000D02*
X74978000Y-29754000D01*
X87328000Y-29754000D02*
X82593000Y-29754000D01*
X79713000Y-29714000D02*
X74987000Y-29714000D01*
X87319000Y-29714000D02*
X82593000Y-29714000D01*
X79713000Y-29674000D02*
X74997000Y-29674000D01*
X87309000Y-29674000D02*
X82593000Y-29674000D01*
X79713000Y-29634000D02*
X75007000Y-29634000D01*
X87299000Y-29634000D02*
X82593000Y-29634000D01*
X79713000Y-29594000D02*
X75016000Y-29594000D01*
X87290000Y-29594000D02*
X82593000Y-29594000D01*
X79713000Y-29554000D02*
X75027000Y-29554000D01*
X87279000Y-29554000D02*
X82593000Y-29554000D01*
X79713000Y-29514000D02*
X75037000Y-29514000D01*
X87269000Y-29514000D02*
X82593000Y-29514000D01*
X79713000Y-29474000D02*
X75048000Y-29474000D01*
X87258000Y-29474000D02*
X82593000Y-29474000D01*
X79713000Y-29434000D02*
X75059000Y-29434000D01*
X87247000Y-29434000D02*
X82593000Y-29434000D01*
X79713000Y-29394000D02*
X75070000Y-29394000D01*
X87236000Y-29394000D02*
X82593000Y-29394000D01*
X79713000Y-29354000D02*
X75082000Y-29354000D01*
X87224000Y-29354000D02*
X82593000Y-29354000D01*
X79713000Y-29314000D02*
X75094000Y-29314000D01*
X87212000Y-29314000D02*
X82593000Y-29314000D01*
X79713000Y-29274000D02*
X75106000Y-29274000D01*
X87200000Y-29274000D02*
X82593000Y-29274000D01*
X79713000Y-29234000D02*
X75119000Y-29234000D01*
X87187000Y-29234000D02*
X82593000Y-29234000D01*
X79713000Y-29194000D02*
X75132000Y-29194000D01*
X87174000Y-29194000D02*
X82593000Y-29194000D01*
X79713000Y-29154000D02*
X75145000Y-29154000D01*
X87161000Y-29154000D02*
X82593000Y-29154000D01*
X79713000Y-29114000D02*
X75158000Y-29114000D01*
X87148000Y-29114000D02*
X82593000Y-29114000D01*
X79713000Y-29074000D02*
X75172000Y-29074000D01*
X87134000Y-29074000D02*
X82593000Y-29074000D01*
X79713000Y-29034000D02*
X75186000Y-29034000D01*
X87120000Y-29034000D02*
X82593000Y-29034000D01*
X79713000Y-28994000D02*
X75200000Y-28994000D01*
X87106000Y-28994000D02*
X82593000Y-28994000D01*
X79713000Y-28954000D02*
X75214000Y-28954000D01*
X87092000Y-28954000D02*
X82593000Y-28954000D01*
X79713000Y-28914000D02*
X75229000Y-28914000D01*
X87077000Y-28914000D02*
X82593000Y-28914000D01*
X79713000Y-28874000D02*
X75245000Y-28874000D01*
X87061000Y-28874000D02*
X82593000Y-28874000D01*
X79713000Y-28834000D02*
X75260000Y-28834000D01*
X87046000Y-28834000D02*
X82593000Y-28834000D01*
X79713000Y-28794000D02*
X75276000Y-28794000D01*
X87030000Y-28794000D02*
X82593000Y-28794000D01*
X79713000Y-28754000D02*
X75292000Y-28754000D01*
X87014000Y-28754000D02*
X82593000Y-28754000D01*
X79713000Y-28714000D02*
X75308000Y-28714000D01*
X86998000Y-28714000D02*
X82593000Y-28714000D01*
X79713000Y-28674000D02*
X75325000Y-28674000D01*
X86981000Y-28674000D02*
X82593000Y-28674000D01*
X79713000Y-28634000D02*
X75342000Y-28634000D01*
X86964000Y-28634000D02*
X82593000Y-28634000D01*
X79713000Y-28594000D02*
X75360000Y-28594000D01*
X86946000Y-28594000D02*
X82593000Y-28594000D01*
X79713000Y-28554000D02*
X75377000Y-28554000D01*
X86929000Y-28554000D02*
X82593000Y-28554000D01*
X79713000Y-28514000D02*
X75395000Y-28514000D01*
X86911000Y-28514000D02*
X82593000Y-28514000D01*
X79713000Y-28474000D02*
X75414000Y-28474000D01*
X86892000Y-28474000D02*
X82593000Y-28474000D01*
X79713000Y-28434000D02*
X75432000Y-28434000D01*
X86874000Y-28434000D02*
X82593000Y-28434000D01*
X79713000Y-28394000D02*
X75451000Y-28394000D01*
X86855000Y-28394000D02*
X82593000Y-28394000D01*
X79713000Y-28354000D02*
X75471000Y-28354000D01*
X86835000Y-28354000D02*
X82593000Y-28354000D01*
X79713000Y-28314000D02*
X75491000Y-28314000D01*
X86815000Y-28314000D02*
X82593000Y-28314000D01*
X79713000Y-28274000D02*
X75511000Y-28274000D01*
X86795000Y-28274000D02*
X82593000Y-28274000D01*
X79713000Y-28234000D02*
X75531000Y-28234000D01*
X86775000Y-28234000D02*
X82593000Y-28234000D01*
X79713000Y-28194000D02*
X75552000Y-28194000D01*
X86754000Y-28194000D02*
X82593000Y-28194000D01*
X79713000Y-28154000D02*
X75573000Y-28154000D01*
X86733000Y-28154000D02*
X82593000Y-28154000D01*
X79713000Y-28114000D02*
X75595000Y-28114000D01*
X86711000Y-28114000D02*
X82593000Y-28114000D01*
X79713000Y-28074000D02*
X75617000Y-28074000D01*
X86689000Y-28074000D02*
X82593000Y-28074000D01*
X79713000Y-28034000D02*
X75639000Y-28034000D01*
X86667000Y-28034000D02*
X82593000Y-28034000D01*
X79713000Y-27994000D02*
X75662000Y-27994000D01*
X86644000Y-27994000D02*
X82593000Y-27994000D01*
X79713000Y-27954000D02*
X75685000Y-27954000D01*
X86621000Y-27954000D02*
X82593000Y-27954000D01*
X79713000Y-27914000D02*
X75708000Y-27914000D01*
X86598000Y-27914000D02*
X82593000Y-27914000D01*
X79713000Y-27874000D02*
X75732000Y-27874000D01*
X86574000Y-27874000D02*
X82593000Y-27874000D01*
X79713000Y-27834000D02*
X75756000Y-27834000D01*
X86550000Y-27834000D02*
X82593000Y-27834000D01*
X79713000Y-27794000D02*
X75781000Y-27794000D01*
X86525000Y-27794000D02*
X82593000Y-27794000D01*
X79713000Y-27754000D02*
X75806000Y-27754000D01*
X86500000Y-27754000D02*
X82593000Y-27754000D01*
X79713000Y-27714000D02*
X75831000Y-27714000D01*
X86475000Y-27714000D02*
X82593000Y-27714000D01*
X79713000Y-27674000D02*
X75857000Y-27674000D01*
X86449000Y-27674000D02*
X82593000Y-27674000D01*
X79713000Y-27634000D02*
X75883000Y-27634000D01*
X86423000Y-27634000D02*
X82593000Y-27634000D01*
X79713000Y-27594000D02*
X75910000Y-27594000D01*
X86396000Y-27594000D02*
X82593000Y-27594000D01*
X79713000Y-27554000D02*
X75937000Y-27554000D01*
X86369000Y-27554000D02*
X82593000Y-27554000D01*
X79713000Y-27514000D02*
X75965000Y-27514000D01*
X86341000Y-27514000D02*
X82593000Y-27514000D01*
X79713000Y-27474000D02*
X75993000Y-27474000D01*
X86313000Y-27474000D02*
X82593000Y-27474000D01*
X79713000Y-27434000D02*
X76022000Y-27434000D01*
X86284000Y-27434000D02*
X82593000Y-27434000D01*
X79713000Y-27394000D02*
X76051000Y-27394000D01*
X86255000Y-27394000D02*
X82593000Y-27394000D01*
X79713000Y-27354000D02*
X76080000Y-27354000D01*
X86226000Y-27354000D02*
X82593000Y-27354000D01*
X79713000Y-27314000D02*
X76110000Y-27314000D01*
X86196000Y-27314000D02*
X82593000Y-27314000D01*
X79713000Y-27274000D02*
X76141000Y-27274000D01*
X86165000Y-27274000D02*
X82593000Y-27274000D01*
X79713000Y-27234000D02*
X76171000Y-27234000D01*
X86135000Y-27234000D02*
X82593000Y-27234000D01*
X86103000Y-27194000D02*
X76203000Y-27194000D01*
X86071000Y-27154000D02*
X76235000Y-27154000D01*
X86038000Y-27114000D02*
X76268000Y-27114000D01*
X86005000Y-27074000D02*
X76301000Y-27074000D01*
X85972000Y-27034000D02*
X76334000Y-27034000D01*
X85938000Y-26994000D02*
X76368000Y-26994000D01*
X85903000Y-26954000D02*
X76403000Y-26954000D01*
X85867000Y-26914000D02*
X76439000Y-26914000D01*
X85831000Y-26874000D02*
X76475000Y-26874000D01*
X85795000Y-26834000D02*
X76511000Y-26834000D01*
X85758000Y-26794000D02*
X76548000Y-26794000D01*
X85720000Y-26754000D02*
X76586000Y-26754000D01*
X85681000Y-26714000D02*
X76625000Y-26714000D01*
X85642000Y-26674000D02*
X76664000Y-26674000D01*
X85602000Y-26634000D02*
X76704000Y-26634000D01*
X85561000Y-26594000D02*
X76745000Y-26594000D01*
X85520000Y-26554000D02*
X76786000Y-26554000D01*
X85478000Y-26514000D02*
X76828000Y-26514000D01*
X85435000Y-26474000D02*
X76871000Y-26474000D01*
X85391000Y-26434000D02*
X76915000Y-26434000D01*
X85347000Y-26394000D02*
X76959000Y-26394000D01*
X85301000Y-26354000D02*
X77005000Y-26354000D01*
X85255000Y-26314000D02*
X77051000Y-26314000D01*
X85208000Y-26274000D02*
X77098000Y-26274000D01*
X85160000Y-26234000D02*
X77146000Y-26234000D01*
X85110000Y-26194000D02*
X77196000Y-26194000D01*
X85060000Y-26154000D02*
X77246000Y-26154000D01*
X85009000Y-26114000D02*
X77297000Y-26114000D01*
X84957000Y-26074000D02*
X77349000Y-26074000D01*
X84903000Y-26034000D02*
X77403000Y-26034000D01*
X84849000Y-25994000D02*
X77457000Y-25994000D01*
X84793000Y-25954000D02*
X77513000Y-25954000D01*
X84736000Y-25914000D02*
X77570000Y-25914000D01*
X84677000Y-25874000D02*
X77629000Y-25874000D01*
X84617000Y-25834000D02*
X77689000Y-25834000D01*
X84555000Y-25794000D02*
X77751000Y-25794000D01*
X84492000Y-25754000D02*
X77814000Y-25754000D01*
X84428000Y-25714000D02*
X77878000Y-25714000D01*
X84361000Y-25674000D02*
X77945000Y-25674000D01*
X84293000Y-25634000D02*
X78013000Y-25634000D01*
X84222000Y-25594000D02*
X78084000Y-25594000D01*
X84149000Y-25554000D02*
X78157000Y-25554000D01*
X84074000Y-25514000D02*
X78232000Y-25514000D01*
X83997000Y-25474000D02*
X78309000Y-25474000D01*
X83917000Y-25434000D02*
X78389000Y-25434000D01*
X83834000Y-25394000D02*
X78472000Y-25394000D01*
X83747000Y-25354000D02*
X78559000Y-25354000D01*
X83657000Y-25314000D02*
X78649000Y-25314000D01*
X83563000Y-25274000D02*
X78743000Y-25274000D01*
X83465000Y-25234000D02*
X78841000Y-25234000D01*
X83362000Y-25194000D02*
X78944000Y-25194000D01*
X83253000Y-25154000D02*
X79053000Y-25154000D01*
X83137000Y-25114000D02*
X79169000Y-25114000D01*
X83014000Y-25074000D02*
X79292000Y-25074000D01*
X82881000Y-25034000D02*
X79425000Y-25034000D01*
X82736000Y-24994000D02*
X79570000Y-24994000D01*
X82575000Y-24954000D02*
X79731000Y-24954000D01*
X82394000Y-24914000D02*
X79912000Y-24914000D01*
X82181000Y-24874000D02*
X80125000Y-24874000D01*
X81910000Y-24834000D02*
X80396000Y-24834000D01*
X81470000Y-24794000D02*
X80836000Y-24794000D01*
X87523000Y-31155000D02*
G75*
G03*
X87523000Y-31155000I-6370000J0D01*
G01*
%TO.C,G2*%
G36*
X144843500Y-80562353D02*
G01*
X144877108Y-80562753D01*
X145363494Y-80614577D01*
X145758858Y-80744532D01*
X146028833Y-80941622D01*
X146103733Y-81038938D01*
X146156762Y-81150043D01*
X146190557Y-81304521D01*
X146209397Y-81533857D01*
X146217563Y-81869539D01*
X146219333Y-82343054D01*
X146219333Y-83523667D01*
X145800225Y-83523667D01*
X145381117Y-83523667D01*
X145355725Y-83036833D01*
X145330333Y-82550000D01*
X144928166Y-82524194D01*
X144526000Y-82498389D01*
X144526000Y-82164361D01*
X144526000Y-81830333D01*
X144897941Y-81830333D01*
X144970405Y-81828319D01*
X145228454Y-81772457D01*
X145346760Y-81665605D01*
X145326842Y-81542358D01*
X145170216Y-81437315D01*
X144878402Y-81385071D01*
X144526000Y-81371018D01*
X144526000Y-80965675D01*
X144526000Y-80560333D01*
X144843500Y-80562353D01*
G37*
G36*
X137656904Y-82001019D02*
G01*
X137668000Y-82074810D01*
X137640212Y-82405692D01*
X137481923Y-82851473D01*
X137181365Y-83206157D01*
X136736062Y-83473461D01*
X136414777Y-83570962D01*
X135951528Y-83569586D01*
X135496799Y-83404247D01*
X135062864Y-83077848D01*
X135062387Y-83077386D01*
X134787173Y-82709021D01*
X134656068Y-82302477D01*
X134656843Y-81884552D01*
X134660320Y-81872929D01*
X135579327Y-81872929D01*
X135579498Y-82160037D01*
X135726812Y-82453915D01*
X135914114Y-82619591D01*
X136186333Y-82677000D01*
X136432483Y-82632247D01*
X136645855Y-82453915D01*
X136661006Y-82434436D01*
X136793712Y-82208864D01*
X136798734Y-82001019D01*
X136679267Y-81742960D01*
X136524774Y-81558715D01*
X136258181Y-81443297D01*
X135943357Y-81487475D01*
X135717687Y-81631015D01*
X135579327Y-81872929D01*
X134660320Y-81872929D01*
X134777267Y-81482047D01*
X135005112Y-81121760D01*
X135328147Y-80830489D01*
X135734144Y-80635034D01*
X136210873Y-80562193D01*
X136657118Y-80628367D01*
X137066336Y-80835308D01*
X137385907Y-81160608D01*
X137593805Y-81581398D01*
X137656904Y-82001019D01*
G37*
G36*
X143359817Y-80606765D02*
G01*
X143706461Y-80764393D01*
X143983489Y-81042839D01*
X144048935Y-81163940D01*
X144098917Y-81332199D01*
X144133366Y-81573121D01*
X144156791Y-81918926D01*
X144173702Y-82401833D01*
X144203947Y-83523667D01*
X143729974Y-83523667D01*
X143256000Y-83523667D01*
X143256000Y-82474392D01*
X143255877Y-82354947D01*
X143251692Y-81946534D01*
X143238776Y-81672206D01*
X143213372Y-81503501D01*
X143171722Y-81411958D01*
X143110067Y-81369117D01*
X143010734Y-81357773D01*
X142856067Y-81460907D01*
X142770705Y-81615788D01*
X142772226Y-81790239D01*
X142917333Y-81890468D01*
X143011284Y-81936496D01*
X143071065Y-82061302D01*
X143086666Y-82305875D01*
X143086658Y-82315876D01*
X143074078Y-82545447D01*
X143024240Y-82651348D01*
X142917333Y-82677000D01*
X142878167Y-82678811D01*
X142794756Y-82719778D01*
X142756915Y-82846416D01*
X142748000Y-83100333D01*
X142748000Y-83523667D01*
X142324666Y-83523667D01*
X141901333Y-83523667D01*
X141901333Y-82504947D01*
X141901624Y-82402882D01*
X141917233Y-81849817D01*
X141957408Y-81450916D01*
X142023238Y-81194468D01*
X142055938Y-81124185D01*
X142291619Y-80828665D01*
X142613453Y-80641913D01*
X142982501Y-80566943D01*
X143359817Y-80606765D01*
G37*
G36*
X140702868Y-80560455D02*
G01*
X140912185Y-80583989D01*
X141066701Y-80663957D01*
X141176811Y-80822933D01*
X141252911Y-81083493D01*
X141305397Y-81468213D01*
X141344664Y-81999667D01*
X141366730Y-82342875D01*
X141396408Y-82735261D01*
X141425309Y-83052856D01*
X141449474Y-83248500D01*
X141496845Y-83523667D01*
X141074158Y-83523667D01*
X140651470Y-83523667D01*
X140591159Y-82719225D01*
X140551127Y-82307777D01*
X140505149Y-82059407D01*
X140454013Y-81977366D01*
X140398341Y-82062643D01*
X140338753Y-82316231D01*
X140314206Y-82438548D01*
X140240098Y-82754947D01*
X140153814Y-83079167D01*
X140128348Y-83165647D01*
X140044432Y-83390124D01*
X139954713Y-83496675D01*
X139831359Y-83523667D01*
X139745714Y-83517873D01*
X139607879Y-83460676D01*
X139501901Y-83319303D01*
X139410883Y-83065716D01*
X139317924Y-82671883D01*
X139313364Y-82650345D01*
X139226137Y-82290014D01*
X139146920Y-82052170D01*
X139082247Y-81947655D01*
X139038651Y-81987311D01*
X139022666Y-82181980D01*
X139018073Y-82346587D01*
X138998318Y-82665376D01*
X138968272Y-83003247D01*
X138913877Y-83523667D01*
X138492850Y-83523667D01*
X138071822Y-83523667D01*
X138122013Y-83079167D01*
X138152168Y-82786151D01*
X138188359Y-82390296D01*
X138220337Y-81999667D01*
X138237908Y-81777946D01*
X138285717Y-81309305D01*
X138345849Y-80977856D01*
X138429928Y-80760417D01*
X138549579Y-80633804D01*
X138716427Y-80574837D01*
X138942096Y-80560333D01*
X139016839Y-80562487D01*
X139230634Y-80611704D01*
X139386429Y-80746865D01*
X139506781Y-80995673D01*
X139614249Y-81385833D01*
X139660145Y-81562281D01*
X139727356Y-81755313D01*
X139779230Y-81830333D01*
X139828271Y-81763131D01*
X139904280Y-81572948D01*
X139988209Y-81302905D01*
X140066760Y-81045056D01*
X140155719Y-80802365D01*
X140224124Y-80667905D01*
X140257023Y-80641687D01*
X140434689Y-80583534D01*
X140681859Y-80560333D01*
X140702868Y-80560455D01*
G37*
G36*
X151041566Y-75754736D02*
G01*
X151282774Y-75837321D01*
X151594215Y-75964908D01*
X151930355Y-76117532D01*
X152245660Y-76275231D01*
X152494597Y-76418039D01*
X152807282Y-76638218D01*
X153103336Y-76925852D01*
X153282995Y-77238821D01*
X153373828Y-77614645D01*
X153387656Y-77711565D01*
X153442742Y-78047452D01*
X153516470Y-78455103D01*
X153596818Y-78867000D01*
X153625198Y-79008725D01*
X153708527Y-79447171D01*
X153783253Y-79869660D01*
X153835966Y-80201376D01*
X153844985Y-80263365D01*
X153887826Y-80494369D01*
X153952479Y-80680524D01*
X154062880Y-80863512D01*
X154242965Y-81085013D01*
X154516672Y-81386709D01*
X154684305Y-81572976D01*
X155029168Y-81974466D01*
X155412521Y-82437816D01*
X155796393Y-82916122D01*
X156142810Y-83362483D01*
X156413799Y-83729993D01*
X156423408Y-83746948D01*
X156406323Y-83904765D01*
X156251626Y-84152067D01*
X156012655Y-84465375D01*
X155084505Y-83528854D01*
X154897699Y-83341642D01*
X154595654Y-83044766D01*
X154346409Y-82807168D01*
X154171794Y-82649480D01*
X154093635Y-82592333D01*
X154074919Y-82605152D01*
X154050617Y-82739777D01*
X154056001Y-82995218D01*
X154087642Y-83339318D01*
X154142112Y-83739920D01*
X154215980Y-84164867D01*
X154305817Y-84582000D01*
X154362431Y-84828952D01*
X154461000Y-85315267D01*
X154545982Y-85804517D01*
X154612719Y-86263063D01*
X154656555Y-86657262D01*
X154672833Y-86953474D01*
X154656895Y-87118058D01*
X154605378Y-87197107D01*
X154498491Y-87237483D01*
X154314237Y-87223502D01*
X154025834Y-87152735D01*
X153606500Y-87022751D01*
X152908000Y-86795822D01*
X152908000Y-86321690D01*
X152889719Y-85795301D01*
X152804995Y-85022352D01*
X152660352Y-84269004D01*
X152465830Y-83584289D01*
X152231466Y-83017233D01*
X152106937Y-82813218D01*
X151914969Y-82554471D01*
X151694450Y-82291150D01*
X151477030Y-82058913D01*
X151294356Y-81893421D01*
X151178077Y-81830333D01*
X151111904Y-81857292D01*
X150999445Y-82003102D01*
X150911511Y-82224420D01*
X150876000Y-82462830D01*
X150876051Y-82467163D01*
X150896860Y-82632007D01*
X150950035Y-82919936D01*
X151027790Y-83291608D01*
X151122340Y-83707679D01*
X151201023Y-84044844D01*
X151337556Y-84642222D01*
X151474878Y-85255220D01*
X151592674Y-85793737D01*
X151598074Y-85818836D01*
X151687736Y-86226742D01*
X151768778Y-86580229D01*
X151832489Y-86842193D01*
X151870156Y-86975531D01*
X151831310Y-86987122D01*
X151680128Y-86914459D01*
X151440465Y-86769377D01*
X151136980Y-86565659D01*
X150350315Y-86016398D01*
X150060973Y-85087532D01*
X150029486Y-84984830D01*
X149854964Y-84357031D01*
X149694689Y-83687036D01*
X149556458Y-83015433D01*
X149448068Y-82382812D01*
X149377316Y-81829763D01*
X149352000Y-81396872D01*
X149359135Y-81081720D01*
X149393190Y-80866378D01*
X149472509Y-80699548D01*
X149615433Y-80520191D01*
X149694294Y-80436511D01*
X149895640Y-80264293D01*
X150059933Y-80174787D01*
X150079487Y-80170672D01*
X150322645Y-80183751D01*
X150640132Y-80274663D01*
X150975814Y-80423301D01*
X151273556Y-80609554D01*
X151315260Y-80642015D01*
X151430589Y-80741661D01*
X151553135Y-80867921D01*
X151701103Y-81043057D01*
X151892699Y-81289330D01*
X152146125Y-81629001D01*
X152479589Y-82084333D01*
X152757371Y-82465333D01*
X152700692Y-81929191D01*
X152666596Y-81672014D01*
X152612843Y-81390241D01*
X152558547Y-81209524D01*
X152522947Y-81158041D01*
X152357836Y-80993266D01*
X152088315Y-80762606D01*
X151738817Y-80484753D01*
X151333778Y-80178396D01*
X150897631Y-79862225D01*
X150454812Y-79554932D01*
X150029754Y-79275206D01*
X149372843Y-78857083D01*
X149522846Y-78375208D01*
X149588496Y-78171508D01*
X149697045Y-77857408D01*
X149787591Y-77620125D01*
X149902333Y-77346916D01*
X150537333Y-77779890D01*
X150624924Y-77840251D01*
X150963296Y-78083432D01*
X151276465Y-78322071D01*
X151506157Y-78512126D01*
X151642484Y-78624812D01*
X151797012Y-78722369D01*
X151868935Y-78724528D01*
X151870551Y-78713515D01*
X151844568Y-78572435D01*
X151770316Y-78319499D01*
X151661237Y-77992391D01*
X151530770Y-77628797D01*
X151392357Y-77266403D01*
X151259438Y-76942894D01*
X151145452Y-76695956D01*
X151063460Y-76515662D01*
X150967130Y-76239741D01*
X150907237Y-75988252D01*
X150893387Y-75805136D01*
X150935190Y-75734333D01*
X151041566Y-75754736D01*
G37*
G36*
X159315444Y-81991000D02*
G01*
X159319947Y-82159447D01*
X159296585Y-82542076D01*
X159173875Y-83446381D01*
X158948205Y-84276771D01*
X158603587Y-85083480D01*
X158124032Y-85916739D01*
X157941269Y-86186985D01*
X157267810Y-86989275D01*
X156467969Y-87692881D01*
X155558770Y-88284282D01*
X154557233Y-88749957D01*
X154128980Y-88901269D01*
X153553193Y-89056012D01*
X152963998Y-89148928D01*
X152311047Y-89187164D01*
X151543994Y-89177873D01*
X151181223Y-89162209D01*
X150742761Y-89130793D01*
X150391189Y-89083486D01*
X150076953Y-89012937D01*
X149750498Y-88911794D01*
X149448326Y-88803872D01*
X148449490Y-88361279D01*
X147572508Y-87823967D01*
X146795143Y-87178899D01*
X146397286Y-86798188D01*
X145847370Y-87312607D01*
X145819038Y-87339004D01*
X144942094Y-88053124D01*
X144010578Y-88612960D01*
X143003866Y-89028960D01*
X141901333Y-89311571D01*
X141883449Y-89314357D01*
X141695266Y-89326565D01*
X141383797Y-89333097D01*
X140987958Y-89333500D01*
X140546666Y-89327323D01*
X140071821Y-89311535D01*
X139560260Y-89273574D01*
X139128565Y-89210674D01*
X138726333Y-89117010D01*
X138583340Y-89074951D01*
X137971315Y-88846417D01*
X137320208Y-88539407D01*
X136694474Y-88186472D01*
X136158568Y-87820167D01*
X135580279Y-87318639D01*
X134871325Y-86520903D01*
X134274761Y-85618799D01*
X133805801Y-84636308D01*
X133479658Y-83597409D01*
X133417355Y-83250126D01*
X133364377Y-82673132D01*
X133350253Y-82115494D01*
X134244461Y-82115494D01*
X134246794Y-82599311D01*
X134257595Y-82961555D01*
X134281546Y-83241954D01*
X134323329Y-83480232D01*
X134387628Y-83716116D01*
X134479124Y-83989333D01*
X134878379Y-84928142D01*
X135428453Y-85832182D01*
X136097545Y-86618623D01*
X136880628Y-87282503D01*
X137772677Y-87818863D01*
X138768666Y-88222744D01*
X138892410Y-88260001D01*
X139489450Y-88389887D01*
X140159305Y-88471614D01*
X140844232Y-88502096D01*
X141486489Y-88478246D01*
X142028333Y-88396977D01*
X142937932Y-88127239D01*
X143912133Y-87689125D01*
X144776781Y-87123239D01*
X145529219Y-86431703D01*
X146166792Y-85616635D01*
X146686840Y-84680157D01*
X146709774Y-84630193D01*
X146934397Y-84086607D01*
X147088393Y-83576050D01*
X147180727Y-83048833D01*
X147220364Y-82455268D01*
X147216267Y-81745667D01*
X147213387Y-81650719D01*
X147193496Y-81174948D01*
X147163496Y-80812466D01*
X147116112Y-80515330D01*
X147044071Y-80235600D01*
X146940101Y-79925333D01*
X146572031Y-79070574D01*
X146022754Y-78172658D01*
X145652055Y-77740907D01*
X146962214Y-77740907D01*
X147000066Y-77952498D01*
X147118781Y-78239551D01*
X147315737Y-78640089D01*
X147345236Y-78699309D01*
X147657878Y-79380259D01*
X147876995Y-79993175D01*
X148016193Y-80595653D01*
X148089074Y-81245285D01*
X148109241Y-81999667D01*
X148097041Y-82455268D01*
X148091416Y-82665344D01*
X148021208Y-83341550D01*
X147884955Y-83962845D01*
X147669181Y-84588208D01*
X147360407Y-85276619D01*
X147247774Y-85510603D01*
X147110279Y-85804274D01*
X147016201Y-86015531D01*
X146981333Y-86109671D01*
X147020770Y-86179914D01*
X147163707Y-86338743D01*
X147379738Y-86547846D01*
X147635699Y-86776694D01*
X147898426Y-86994757D01*
X148134755Y-87171504D01*
X148156962Y-87186697D01*
X148857732Y-87598239D01*
X149632855Y-87942896D01*
X150398731Y-88183305D01*
X150470169Y-88199787D01*
X151203710Y-88310740D01*
X152004689Y-88343818D01*
X152800430Y-88299171D01*
X153518255Y-88176947D01*
X153683697Y-88133519D01*
X154588587Y-87800876D01*
X155457995Y-87326251D01*
X156255045Y-86732625D01*
X156942856Y-86042978D01*
X157238191Y-85668731D01*
X157766970Y-84811314D01*
X158148169Y-83900883D01*
X158383421Y-82954943D01*
X158474361Y-81991000D01*
X158422622Y-81026561D01*
X158229839Y-80079132D01*
X157897646Y-79166218D01*
X157427678Y-78305326D01*
X156821567Y-77513961D01*
X156080949Y-76809629D01*
X155819781Y-76615142D01*
X155267755Y-76272859D01*
X154648000Y-75954082D01*
X154023774Y-75690104D01*
X153458333Y-75512217D01*
X153411259Y-75501258D01*
X152868820Y-75416158D01*
X152235380Y-75374374D01*
X151574599Y-75375963D01*
X150950137Y-75420982D01*
X150425653Y-75509488D01*
X149879399Y-75671214D01*
X148995380Y-76047918D01*
X148157597Y-76541597D01*
X147420323Y-77123110D01*
X147360046Y-77178646D01*
X147139582Y-77392005D01*
X147007845Y-77566751D01*
X146962214Y-77740907D01*
X145652055Y-77740907D01*
X145349663Y-77388712D01*
X144557174Y-76723003D01*
X143649704Y-76179798D01*
X142631669Y-75763362D01*
X142562613Y-75740938D01*
X142259864Y-75651724D01*
X141980440Y-75592176D01*
X141676196Y-75556162D01*
X141298986Y-75537552D01*
X140800666Y-75530217D01*
X140379237Y-75530595D01*
X139959607Y-75543585D01*
X139621954Y-75575165D01*
X139317630Y-75630293D01*
X138997987Y-75713926D01*
X138859270Y-75755581D01*
X137856193Y-76151981D01*
X136952103Y-76683326D01*
X136154786Y-77342208D01*
X135472032Y-78121219D01*
X134911627Y-79012952D01*
X134481361Y-80010000D01*
X134468523Y-80047207D01*
X134381120Y-80315859D01*
X134320094Y-80553901D01*
X134280687Y-80801318D01*
X134258141Y-81098095D01*
X134247698Y-81484216D01*
X134244600Y-81999667D01*
X134244461Y-82115494D01*
X133350253Y-82115494D01*
X133348105Y-82030698D01*
X133367950Y-81380379D01*
X133423321Y-80779733D01*
X133513626Y-80286313D01*
X133725525Y-79591010D01*
X134168969Y-78579100D01*
X134738403Y-77664152D01*
X135421032Y-76854168D01*
X136204057Y-76157152D01*
X137074682Y-75581106D01*
X138020108Y-75134034D01*
X139027539Y-74823938D01*
X140084178Y-74658821D01*
X141177226Y-74646685D01*
X142293887Y-74795535D01*
X142343584Y-74806046D01*
X143115033Y-75027858D01*
X143899598Y-75352368D01*
X144651690Y-75755344D01*
X145325723Y-76212552D01*
X145876109Y-76699760D01*
X145980352Y-76802911D01*
X146151900Y-76947553D01*
X146259273Y-77004333D01*
X146262989Y-77004030D01*
X146369970Y-76939534D01*
X146551984Y-76784329D01*
X146771830Y-76569943D01*
X146916026Y-76426399D01*
X147685453Y-75798266D01*
X148563561Y-75279508D01*
X149524920Y-74881096D01*
X150544098Y-74613998D01*
X151595666Y-74489185D01*
X151987353Y-74480926D01*
X153088741Y-74568846D01*
X154153326Y-74817515D01*
X155165878Y-75221318D01*
X156111168Y-75774641D01*
X156973968Y-76471871D01*
X157581380Y-77103993D01*
X158244539Y-77994184D01*
X158751048Y-78947426D01*
X159099834Y-79961119D01*
X159289825Y-81032659D01*
X159315444Y-81991000D01*
G37*
%TO.C,J6*%
X11422000Y-53359000D02*
X10922000Y-54359000D01*
X10422000Y-53359000D02*
X11422000Y-53359000D01*
X10922000Y-54359000D02*
X10422000Y-53359000D01*
X46612000Y-54749000D02*
X5712000Y-54749000D01*
X24112000Y-54749000D02*
X24112000Y-56059000D01*
X5712000Y-54749000D02*
X5712000Y-63869000D01*
X45312000Y-56059000D02*
X28212000Y-56059000D01*
X28212000Y-56059000D02*
X28212000Y-54749000D01*
X28212000Y-56059000D02*
X28212000Y-56059000D01*
X24112000Y-56059000D02*
X7012000Y-56059000D01*
X7012000Y-56059000D02*
X7012000Y-62559000D01*
X45312000Y-62559000D02*
X45312000Y-56059000D01*
X7012000Y-62559000D02*
X45312000Y-62559000D01*
X46612000Y-63869000D02*
X46612000Y-54749000D01*
X5712000Y-63869000D02*
X46612000Y-63869000D01*
%TO.C,J3*%
X164415000Y-60358000D02*
X164415000Y-72738000D01*
X162915000Y-60358000D02*
X161115000Y-60358000D01*
X161115000Y-60358000D02*
X161115000Y-72738000D01*
X152195000Y-60358000D02*
X164415000Y-60358000D01*
X164415000Y-63008000D02*
X164415000Y-65008000D01*
X162915000Y-63258000D02*
X164415000Y-63008000D01*
X151395000Y-63708000D02*
X151395000Y-64308000D01*
X151995000Y-64008000D02*
X151395000Y-63708000D01*
X151395000Y-64308000D02*
X151995000Y-64008000D01*
X162915000Y-64758000D02*
X162915000Y-63258000D01*
X164415000Y-65008000D02*
X162915000Y-64758000D01*
X164415000Y-68088000D02*
X164415000Y-70088000D01*
X162915000Y-68338000D02*
X164415000Y-68088000D01*
X162915000Y-69838000D02*
X162915000Y-68338000D01*
X164415000Y-70088000D02*
X162915000Y-69838000D01*
X164415000Y-72738000D02*
X152195000Y-72738000D01*
X162915000Y-72738000D02*
X162915000Y-60358000D01*
X161115000Y-72738000D02*
X162915000Y-72738000D01*
X152195000Y-72738000D02*
X152195000Y-60358000D01*
D16*
%TO.C,HS1*%
X12042000Y-23208000D02*
X152042000Y-23208000D01*
X152042000Y-23208000D02*
X152042000Y-3208000D01*
X152042000Y-3208000D02*
X12042000Y-3208000D01*
X12042000Y-3208000D02*
X12042000Y-23208000D01*
D14*
%TO.C,BOOT0*%
X92269000Y-75505000D02*
X94929000Y-75505000D01*
X92269000Y-78105000D02*
X92269000Y-75505000D01*
X92269000Y-78105000D02*
X94929000Y-78105000D01*
X92269000Y-79375000D02*
X92269000Y-80705000D01*
X92269000Y-80705000D02*
X93599000Y-80705000D01*
X94929000Y-78105000D02*
X94929000Y-75505000D01*
%TO.C,J5*%
X127897000Y-97898000D02*
X128397000Y-96898000D01*
X128897000Y-97898000D02*
X127897000Y-97898000D01*
X128397000Y-96898000D02*
X128897000Y-97898000D01*
X87627000Y-96508000D02*
X133607000Y-96508000D01*
X112667000Y-96508000D02*
X112667000Y-95198000D01*
X133607000Y-96508000D02*
X133607000Y-87388000D01*
X88927000Y-95198000D02*
X108567000Y-95198000D01*
X108567000Y-95198000D02*
X108567000Y-96508000D01*
X108567000Y-95198000D02*
X108567000Y-95198000D01*
X112667000Y-95198000D02*
X132307000Y-95198000D01*
X132307000Y-95198000D02*
X132307000Y-88698000D01*
X88927000Y-88698000D02*
X88927000Y-95198000D01*
X132307000Y-88698000D02*
X88927000Y-88698000D01*
X87627000Y-87388000D02*
X87627000Y-96508000D01*
X133607000Y-87388000D02*
X87627000Y-87388000D01*
%TO.C,U28*%
X144058000Y-28342000D02*
X142543000Y-28342000D01*
X144058000Y-25210000D02*
X133818000Y-25210000D01*
X144058000Y-23701000D02*
X144058000Y-28342000D01*
X144058000Y-23701000D02*
X133818000Y-23701000D01*
X142748000Y-28342000D02*
X142748000Y-30972000D01*
X140788000Y-23701000D02*
X140788000Y-25210000D01*
X140412000Y-28342000D02*
X140003000Y-28342000D01*
X140208000Y-28342000D02*
X140208000Y-30956000D01*
X137873000Y-28342000D02*
X137463000Y-28342000D01*
X137668000Y-28342000D02*
X137668000Y-30956000D01*
X137088000Y-23701000D02*
X137088000Y-25210000D01*
X135333000Y-28342000D02*
X133818000Y-28342000D01*
X135128000Y-28342000D02*
X135128000Y-30956000D01*
X133818000Y-23701000D02*
X133818000Y-28342000D01*
%TO.C,J1*%
X-3379000Y-52672000D02*
X-3379000Y-9812000D01*
X-1879000Y-52672000D02*
X-79000Y-52672000D01*
X-79000Y-52672000D02*
X-79000Y-9812000D01*
X8841000Y-52672000D02*
X-3379000Y-52672000D01*
X-3379000Y-50022000D02*
X-3379000Y-48022000D01*
X-1879000Y-49772000D02*
X-3379000Y-50022000D01*
X9641000Y-49322000D02*
X9641000Y-48722000D01*
X9041000Y-49022000D02*
X9641000Y-49322000D01*
X9641000Y-48722000D02*
X9041000Y-49022000D01*
X-1879000Y-48272000D02*
X-1879000Y-49772000D01*
X-3379000Y-48022000D02*
X-1879000Y-48272000D01*
X-3379000Y-44942000D02*
X-3379000Y-42942000D01*
X-1879000Y-44692000D02*
X-3379000Y-44942000D01*
X-1879000Y-43192000D02*
X-1879000Y-44692000D01*
X-3379000Y-42942000D02*
X-1879000Y-43192000D01*
X-3379000Y-39862000D02*
X-3379000Y-37862000D01*
X-1879000Y-39612000D02*
X-3379000Y-39862000D01*
X-1879000Y-38112000D02*
X-1879000Y-39612000D01*
X-3379000Y-37862000D02*
X-1879000Y-38112000D01*
X-3379000Y-34782000D02*
X-3379000Y-32782000D01*
X-1879000Y-34532000D02*
X-3379000Y-34782000D01*
X-1879000Y-33032000D02*
X-1879000Y-34532000D01*
X-3379000Y-32782000D02*
X-1879000Y-33032000D01*
X-3379000Y-29702000D02*
X-3379000Y-27702000D01*
X-1879000Y-29452000D02*
X-3379000Y-29702000D01*
X-1879000Y-27952000D02*
X-1879000Y-29452000D01*
X-3379000Y-27702000D02*
X-1879000Y-27952000D01*
X-3379000Y-24622000D02*
X-3379000Y-22622000D01*
X-1879000Y-24372000D02*
X-3379000Y-24622000D01*
X-1879000Y-22872000D02*
X-1879000Y-24372000D01*
X-3379000Y-22622000D02*
X-1879000Y-22872000D01*
X-3379000Y-19542000D02*
X-3379000Y-17542000D01*
X-1879000Y-19292000D02*
X-3379000Y-19542000D01*
X-1879000Y-17792000D02*
X-1879000Y-19292000D01*
X-3379000Y-17542000D02*
X-1879000Y-17792000D01*
X-3379000Y-14462000D02*
X-3379000Y-12462000D01*
X-1879000Y-14212000D02*
X-3379000Y-14462000D01*
X-1879000Y-12712000D02*
X-1879000Y-14212000D01*
X-3379000Y-12462000D02*
X-1879000Y-12712000D01*
X-3379000Y-9812000D02*
X8841000Y-9812000D01*
X-1879000Y-9812000D02*
X-1879000Y-52672000D01*
X-79000Y-9812000D02*
X-1879000Y-9812000D01*
X8841000Y-9812000D02*
X8841000Y-52672000D01*
%TO.C,J2*%
X57169000Y-67953000D02*
X58169000Y-68453000D01*
X57169000Y-68953000D02*
X57169000Y-67953000D01*
X58169000Y-68453000D02*
X57169000Y-68953000D01*
X58559000Y-53083000D02*
X58559000Y-73663000D01*
X58559000Y-65423000D02*
X59869000Y-65423000D01*
X58559000Y-73663000D02*
X67679000Y-73663000D01*
X59869000Y-54383000D02*
X59869000Y-61323000D01*
X59869000Y-61323000D02*
X58559000Y-61323000D01*
X59869000Y-61323000D02*
X59869000Y-61323000D01*
X59869000Y-65423000D02*
X59869000Y-72363000D01*
X59869000Y-72363000D02*
X66369000Y-72363000D01*
X66369000Y-54383000D02*
X59869000Y-54383000D01*
X66369000Y-72363000D02*
X66369000Y-54383000D01*
X67679000Y-53083000D02*
X58559000Y-53083000D01*
X67679000Y-73663000D02*
X67679000Y-53083000D01*
%TO.C,C116*%
X40151000Y-37845082D02*
X40151000Y-36595082D01*
X40776000Y-37220082D02*
X39526000Y-37220082D01*
X42906000Y-31028000D02*
X30246000Y-31028000D01*
X42906000Y-30988000D02*
X30246000Y-30988000D01*
X42906000Y-30948000D02*
X30246000Y-30948000D01*
X42905000Y-30908000D02*
X30247000Y-30908000D01*
X42904000Y-30868000D02*
X30248000Y-30868000D01*
X42903000Y-30828000D02*
X30249000Y-30828000D01*
X42902000Y-30788000D02*
X30250000Y-30788000D01*
X42900000Y-30748000D02*
X30252000Y-30748000D01*
X42898000Y-30708000D02*
X30254000Y-30708000D01*
X42896000Y-30668000D02*
X30256000Y-30668000D01*
X42894000Y-30628000D02*
X30258000Y-30628000D01*
X42891000Y-30588000D02*
X30261000Y-30588000D01*
X42888000Y-30548000D02*
X30264000Y-30548000D01*
X42885000Y-30508000D02*
X30267000Y-30508000D01*
X42882000Y-30468000D02*
X30270000Y-30468000D01*
X42878000Y-30428000D02*
X30274000Y-30428000D01*
X42874000Y-30388000D02*
X30278000Y-30388000D01*
X42870000Y-30348000D02*
X30282000Y-30348000D01*
X42866000Y-30307000D02*
X30286000Y-30307000D01*
X42861000Y-30267000D02*
X30291000Y-30267000D01*
X42856000Y-30227000D02*
X30296000Y-30227000D01*
X42851000Y-30187000D02*
X30301000Y-30187000D01*
X42845000Y-30147000D02*
X30307000Y-30147000D01*
X42840000Y-30107000D02*
X30312000Y-30107000D01*
X42834000Y-30067000D02*
X30318000Y-30067000D01*
X42828000Y-30027000D02*
X30324000Y-30027000D01*
X42821000Y-29987000D02*
X30331000Y-29987000D01*
X35136000Y-29947000D02*
X30338000Y-29947000D01*
X42814000Y-29947000D02*
X38016000Y-29947000D01*
X35136000Y-29907000D02*
X30345000Y-29907000D01*
X42807000Y-29907000D02*
X38016000Y-29907000D01*
X35136000Y-29867000D02*
X30352000Y-29867000D01*
X42800000Y-29867000D02*
X38016000Y-29867000D01*
X35136000Y-29827000D02*
X30360000Y-29827000D01*
X42792000Y-29827000D02*
X38016000Y-29827000D01*
X35136000Y-29787000D02*
X30367000Y-29787000D01*
X42785000Y-29787000D02*
X38016000Y-29787000D01*
X35136000Y-29747000D02*
X30375000Y-29747000D01*
X42777000Y-29747000D02*
X38016000Y-29747000D01*
X35136000Y-29707000D02*
X30384000Y-29707000D01*
X42768000Y-29707000D02*
X38016000Y-29707000D01*
X35136000Y-29667000D02*
X30392000Y-29667000D01*
X42760000Y-29667000D02*
X38016000Y-29667000D01*
X35136000Y-29627000D02*
X30401000Y-29627000D01*
X42751000Y-29627000D02*
X38016000Y-29627000D01*
X35136000Y-29587000D02*
X30410000Y-29587000D01*
X42742000Y-29587000D02*
X38016000Y-29587000D01*
X35136000Y-29547000D02*
X30420000Y-29547000D01*
X42732000Y-29547000D02*
X38016000Y-29547000D01*
X35136000Y-29507000D02*
X30430000Y-29507000D01*
X42722000Y-29507000D02*
X38016000Y-29507000D01*
X35136000Y-29467000D02*
X30439000Y-29467000D01*
X42713000Y-29467000D02*
X38016000Y-29467000D01*
X35136000Y-29427000D02*
X30450000Y-29427000D01*
X42702000Y-29427000D02*
X38016000Y-29427000D01*
X35136000Y-29387000D02*
X30460000Y-29387000D01*
X42692000Y-29387000D02*
X38016000Y-29387000D01*
X35136000Y-29347000D02*
X30471000Y-29347000D01*
X42681000Y-29347000D02*
X38016000Y-29347000D01*
X35136000Y-29307000D02*
X30482000Y-29307000D01*
X42670000Y-29307000D02*
X38016000Y-29307000D01*
X35136000Y-29267000D02*
X30493000Y-29267000D01*
X42659000Y-29267000D02*
X38016000Y-29267000D01*
X35136000Y-29227000D02*
X30505000Y-29227000D01*
X42647000Y-29227000D02*
X38016000Y-29227000D01*
X35136000Y-29187000D02*
X30517000Y-29187000D01*
X42635000Y-29187000D02*
X38016000Y-29187000D01*
X35136000Y-29147000D02*
X30529000Y-29147000D01*
X42623000Y-29147000D02*
X38016000Y-29147000D01*
X35136000Y-29107000D02*
X30542000Y-29107000D01*
X42610000Y-29107000D02*
X38016000Y-29107000D01*
X35136000Y-29067000D02*
X30555000Y-29067000D01*
X42597000Y-29067000D02*
X38016000Y-29067000D01*
X35136000Y-29027000D02*
X30568000Y-29027000D01*
X42584000Y-29027000D02*
X38016000Y-29027000D01*
X35136000Y-28987000D02*
X30581000Y-28987000D01*
X42571000Y-28987000D02*
X38016000Y-28987000D01*
X35136000Y-28947000D02*
X30595000Y-28947000D01*
X42557000Y-28947000D02*
X38016000Y-28947000D01*
X35136000Y-28907000D02*
X30609000Y-28907000D01*
X42543000Y-28907000D02*
X38016000Y-28907000D01*
X35136000Y-28867000D02*
X30623000Y-28867000D01*
X42529000Y-28867000D02*
X38016000Y-28867000D01*
X35136000Y-28827000D02*
X30637000Y-28827000D01*
X42515000Y-28827000D02*
X38016000Y-28827000D01*
X35136000Y-28787000D02*
X30652000Y-28787000D01*
X42500000Y-28787000D02*
X38016000Y-28787000D01*
X35136000Y-28747000D02*
X30668000Y-28747000D01*
X42484000Y-28747000D02*
X38016000Y-28747000D01*
X35136000Y-28707000D02*
X30683000Y-28707000D01*
X42469000Y-28707000D02*
X38016000Y-28707000D01*
X35136000Y-28667000D02*
X30699000Y-28667000D01*
X42453000Y-28667000D02*
X38016000Y-28667000D01*
X35136000Y-28627000D02*
X30715000Y-28627000D01*
X42437000Y-28627000D02*
X38016000Y-28627000D01*
X35136000Y-28587000D02*
X30731000Y-28587000D01*
X42421000Y-28587000D02*
X38016000Y-28587000D01*
X35136000Y-28547000D02*
X30748000Y-28547000D01*
X42404000Y-28547000D02*
X38016000Y-28547000D01*
X35136000Y-28507000D02*
X30765000Y-28507000D01*
X42387000Y-28507000D02*
X38016000Y-28507000D01*
X35136000Y-28467000D02*
X30783000Y-28467000D01*
X42369000Y-28467000D02*
X38016000Y-28467000D01*
X35136000Y-28427000D02*
X30800000Y-28427000D01*
X42352000Y-28427000D02*
X38016000Y-28427000D01*
X35136000Y-28387000D02*
X30818000Y-28387000D01*
X42334000Y-28387000D02*
X38016000Y-28387000D01*
X35136000Y-28347000D02*
X30837000Y-28347000D01*
X42315000Y-28347000D02*
X38016000Y-28347000D01*
X35136000Y-28307000D02*
X30855000Y-28307000D01*
X42297000Y-28307000D02*
X38016000Y-28307000D01*
X35136000Y-28267000D02*
X30874000Y-28267000D01*
X42278000Y-28267000D02*
X38016000Y-28267000D01*
X35136000Y-28227000D02*
X30894000Y-28227000D01*
X42258000Y-28227000D02*
X38016000Y-28227000D01*
X35136000Y-28187000D02*
X30914000Y-28187000D01*
X42238000Y-28187000D02*
X38016000Y-28187000D01*
X35136000Y-28147000D02*
X30934000Y-28147000D01*
X42218000Y-28147000D02*
X38016000Y-28147000D01*
X35136000Y-28107000D02*
X30954000Y-28107000D01*
X42198000Y-28107000D02*
X38016000Y-28107000D01*
X35136000Y-28067000D02*
X30975000Y-28067000D01*
X42177000Y-28067000D02*
X38016000Y-28067000D01*
X35136000Y-28027000D02*
X30996000Y-28027000D01*
X42156000Y-28027000D02*
X38016000Y-28027000D01*
X35136000Y-27987000D02*
X31018000Y-27987000D01*
X42134000Y-27987000D02*
X38016000Y-27987000D01*
X35136000Y-27947000D02*
X31040000Y-27947000D01*
X42112000Y-27947000D02*
X38016000Y-27947000D01*
X35136000Y-27907000D02*
X31062000Y-27907000D01*
X42090000Y-27907000D02*
X38016000Y-27907000D01*
X35136000Y-27867000D02*
X31085000Y-27867000D01*
X42067000Y-27867000D02*
X38016000Y-27867000D01*
X35136000Y-27827000D02*
X31108000Y-27827000D01*
X42044000Y-27827000D02*
X38016000Y-27827000D01*
X35136000Y-27787000D02*
X31131000Y-27787000D01*
X42021000Y-27787000D02*
X38016000Y-27787000D01*
X35136000Y-27747000D02*
X31155000Y-27747000D01*
X41997000Y-27747000D02*
X38016000Y-27747000D01*
X35136000Y-27707000D02*
X31179000Y-27707000D01*
X41973000Y-27707000D02*
X38016000Y-27707000D01*
X35136000Y-27667000D02*
X31204000Y-27667000D01*
X41948000Y-27667000D02*
X38016000Y-27667000D01*
X35136000Y-27627000D02*
X31229000Y-27627000D01*
X41923000Y-27627000D02*
X38016000Y-27627000D01*
X35136000Y-27587000D02*
X31254000Y-27587000D01*
X41898000Y-27587000D02*
X38016000Y-27587000D01*
X35136000Y-27547000D02*
X31280000Y-27547000D01*
X41872000Y-27547000D02*
X38016000Y-27547000D01*
X35136000Y-27507000D02*
X31306000Y-27507000D01*
X41846000Y-27507000D02*
X38016000Y-27507000D01*
X35136000Y-27467000D02*
X31333000Y-27467000D01*
X41819000Y-27467000D02*
X38016000Y-27467000D01*
X35136000Y-27427000D02*
X31360000Y-27427000D01*
X41792000Y-27427000D02*
X38016000Y-27427000D01*
X35136000Y-27387000D02*
X31388000Y-27387000D01*
X41764000Y-27387000D02*
X38016000Y-27387000D01*
X35136000Y-27347000D02*
X31416000Y-27347000D01*
X41736000Y-27347000D02*
X38016000Y-27347000D01*
X35136000Y-27307000D02*
X31445000Y-27307000D01*
X41707000Y-27307000D02*
X38016000Y-27307000D01*
X35136000Y-27267000D02*
X31474000Y-27267000D01*
X41678000Y-27267000D02*
X38016000Y-27267000D01*
X35136000Y-27227000D02*
X31503000Y-27227000D01*
X41649000Y-27227000D02*
X38016000Y-27227000D01*
X35136000Y-27187000D02*
X31533000Y-27187000D01*
X41619000Y-27187000D02*
X38016000Y-27187000D01*
X35136000Y-27147000D02*
X31564000Y-27147000D01*
X41588000Y-27147000D02*
X38016000Y-27147000D01*
X35136000Y-27107000D02*
X31594000Y-27107000D01*
X41558000Y-27107000D02*
X38016000Y-27107000D01*
X41526000Y-27067000D02*
X31626000Y-27067000D01*
X41494000Y-27027000D02*
X31658000Y-27027000D01*
X41461000Y-26987000D02*
X31691000Y-26987000D01*
X41428000Y-26947000D02*
X31724000Y-26947000D01*
X41395000Y-26907000D02*
X31757000Y-26907000D01*
X41361000Y-26867000D02*
X31791000Y-26867000D01*
X41326000Y-26827000D02*
X31826000Y-26827000D01*
X41290000Y-26787000D02*
X31862000Y-26787000D01*
X41254000Y-26747000D02*
X31898000Y-26747000D01*
X41218000Y-26707000D02*
X31934000Y-26707000D01*
X41181000Y-26667000D02*
X31971000Y-26667000D01*
X41143000Y-26627000D02*
X32009000Y-26627000D01*
X41104000Y-26587000D02*
X32048000Y-26587000D01*
X41065000Y-26547000D02*
X32087000Y-26547000D01*
X41025000Y-26507000D02*
X32127000Y-26507000D01*
X40984000Y-26467000D02*
X32168000Y-26467000D01*
X40943000Y-26427000D02*
X32209000Y-26427000D01*
X40901000Y-26387000D02*
X32251000Y-26387000D01*
X40858000Y-26347000D02*
X32294000Y-26347000D01*
X40814000Y-26307000D02*
X32338000Y-26307000D01*
X40770000Y-26267000D02*
X32382000Y-26267000D01*
X40724000Y-26227000D02*
X32428000Y-26227000D01*
X40678000Y-26187000D02*
X32474000Y-26187000D01*
X40631000Y-26147000D02*
X32521000Y-26147000D01*
X40583000Y-26107000D02*
X32569000Y-26107000D01*
X40533000Y-26067000D02*
X32619000Y-26067000D01*
X40483000Y-26027000D02*
X32669000Y-26027000D01*
X40432000Y-25987000D02*
X32720000Y-25987000D01*
X40380000Y-25947000D02*
X32772000Y-25947000D01*
X40326000Y-25907000D02*
X32826000Y-25907000D01*
X40272000Y-25867000D02*
X32880000Y-25867000D01*
X40216000Y-25827000D02*
X32936000Y-25827000D01*
X40159000Y-25787000D02*
X32993000Y-25787000D01*
X40100000Y-25747000D02*
X33052000Y-25747000D01*
X40040000Y-25707000D02*
X33112000Y-25707000D01*
X39978000Y-25667000D02*
X33174000Y-25667000D01*
X39915000Y-25627000D02*
X33237000Y-25627000D01*
X39851000Y-25587000D02*
X33301000Y-25587000D01*
X39784000Y-25547000D02*
X33368000Y-25547000D01*
X39716000Y-25507000D02*
X33436000Y-25507000D01*
X39645000Y-25467000D02*
X33507000Y-25467000D01*
X39572000Y-25427000D02*
X33580000Y-25427000D01*
X39497000Y-25387000D02*
X33655000Y-25387000D01*
X39420000Y-25347000D02*
X33732000Y-25347000D01*
X39340000Y-25307000D02*
X33812000Y-25307000D01*
X39257000Y-25267000D02*
X33895000Y-25267000D01*
X39170000Y-25227000D02*
X33982000Y-25227000D01*
X39080000Y-25187000D02*
X34072000Y-25187000D01*
X38986000Y-25147000D02*
X34166000Y-25147000D01*
X38888000Y-25107000D02*
X34264000Y-25107000D01*
X38785000Y-25067000D02*
X34367000Y-25067000D01*
X38676000Y-25027000D02*
X34476000Y-25027000D01*
X38560000Y-24987000D02*
X34592000Y-24987000D01*
X38437000Y-24947000D02*
X34715000Y-24947000D01*
X38304000Y-24907000D02*
X34848000Y-24907000D01*
X38159000Y-24867000D02*
X34993000Y-24867000D01*
X37998000Y-24827000D02*
X35154000Y-24827000D01*
X37817000Y-24787000D02*
X35335000Y-24787000D01*
X37604000Y-24747000D02*
X35548000Y-24747000D01*
X37333000Y-24707000D02*
X35819000Y-24707000D01*
X36893000Y-24667000D02*
X36259000Y-24667000D01*
X42946000Y-31028000D02*
G75*
G03*
X42946000Y-31028000I-6370000J0D01*
G01*
%TO.C,U9*%
X134430000Y-39433000D02*
X134430000Y-45653000D01*
X114690000Y-39433000D02*
X134430000Y-39433000D01*
X134430000Y-45673000D02*
X114690000Y-45673000D01*
X114690000Y-45673000D02*
X114690000Y-39433000D01*
D17*
X114310000Y-46053000D02*
X114310000Y-44823000D01*
X114310000Y-46053000D02*
X116340000Y-46053000D01*
D14*
%TO.C,U13*%
X136227000Y-43353000D02*
X134987000Y-43353000D01*
X134987000Y-43353000D02*
X134987000Y-44593000D01*
X143847000Y-43593000D02*
X143847000Y-55213000D01*
X135227000Y-43593000D02*
X143847000Y-43593000D01*
X135227000Y-43593000D02*
X135227000Y-55213000D01*
X135227000Y-55213000D02*
X143847000Y-55213000D01*
D18*
%TO.C,U5*%
X50244100Y-88519000D02*
X79100Y-88519000D01*
X50244100Y-65659000D02*
X50244100Y-88519000D01*
X17224100Y-84709000D02*
X79100Y-84709000D01*
X17224100Y-69469000D02*
X17224100Y-84709000D01*
X79100Y-88519000D02*
X79100Y-87249000D01*
X79100Y-87249000D02*
X79100Y-84709000D01*
X79100Y-84709000D02*
X79100Y-65659000D01*
X79100Y-84709000D02*
X-4365900Y-84709000D01*
X79100Y-65659000D02*
X50244100Y-65659000D01*
X-4365900Y-84709000D02*
X-4365900Y-69469000D01*
X-4365900Y-69469000D02*
X17224100Y-69469000D01*
D14*
%TO.C,U24*%
X99100000Y-28375000D02*
X97585000Y-28375000D01*
X99100000Y-25243000D02*
X88860000Y-25243000D01*
X99100000Y-23734000D02*
X99100000Y-28375000D01*
X99100000Y-23734000D02*
X88860000Y-23734000D01*
X97790000Y-28375000D02*
X97790000Y-31005000D01*
X95830000Y-23734000D02*
X95830000Y-25243000D01*
X95454000Y-28375000D02*
X95045000Y-28375000D01*
X95250000Y-28375000D02*
X95250000Y-30989000D01*
X92915000Y-28375000D02*
X92505000Y-28375000D01*
X92710000Y-28375000D02*
X92710000Y-30989000D01*
X92130000Y-23734000D02*
X92130000Y-25243000D01*
X90375000Y-28375000D02*
X88860000Y-28375000D01*
X90170000Y-28375000D02*
X90170000Y-30989000D01*
X88860000Y-23734000D02*
X88860000Y-28375000D01*
%TO.C,C140*%
X129559000Y-37972082D02*
X129559000Y-36722082D01*
X130184000Y-37347082D02*
X128934000Y-37347082D01*
X132314000Y-31155000D02*
X119654000Y-31155000D01*
X132314000Y-31115000D02*
X119654000Y-31115000D01*
X132314000Y-31075000D02*
X119654000Y-31075000D01*
X132313000Y-31035000D02*
X119655000Y-31035000D01*
X132312000Y-30995000D02*
X119656000Y-30995000D01*
X132311000Y-30955000D02*
X119657000Y-30955000D01*
X132310000Y-30915000D02*
X119658000Y-30915000D01*
X132308000Y-30875000D02*
X119660000Y-30875000D01*
X132306000Y-30835000D02*
X119662000Y-30835000D01*
X132304000Y-30795000D02*
X119664000Y-30795000D01*
X132302000Y-30755000D02*
X119666000Y-30755000D01*
X132299000Y-30715000D02*
X119669000Y-30715000D01*
X132296000Y-30675000D02*
X119672000Y-30675000D01*
X132293000Y-30635000D02*
X119675000Y-30635000D01*
X132290000Y-30595000D02*
X119678000Y-30595000D01*
X132286000Y-30555000D02*
X119682000Y-30555000D01*
X132282000Y-30515000D02*
X119686000Y-30515000D01*
X132278000Y-30475000D02*
X119690000Y-30475000D01*
X132274000Y-30434000D02*
X119694000Y-30434000D01*
X132269000Y-30394000D02*
X119699000Y-30394000D01*
X132264000Y-30354000D02*
X119704000Y-30354000D01*
X132259000Y-30314000D02*
X119709000Y-30314000D01*
X132253000Y-30274000D02*
X119715000Y-30274000D01*
X132248000Y-30234000D02*
X119720000Y-30234000D01*
X132242000Y-30194000D02*
X119726000Y-30194000D01*
X132236000Y-30154000D02*
X119732000Y-30154000D01*
X132229000Y-30114000D02*
X119739000Y-30114000D01*
X124544000Y-30074000D02*
X119746000Y-30074000D01*
X132222000Y-30074000D02*
X127424000Y-30074000D01*
X124544000Y-30034000D02*
X119753000Y-30034000D01*
X132215000Y-30034000D02*
X127424000Y-30034000D01*
X124544000Y-29994000D02*
X119760000Y-29994000D01*
X132208000Y-29994000D02*
X127424000Y-29994000D01*
X124544000Y-29954000D02*
X119768000Y-29954000D01*
X132200000Y-29954000D02*
X127424000Y-29954000D01*
X124544000Y-29914000D02*
X119775000Y-29914000D01*
X132193000Y-29914000D02*
X127424000Y-29914000D01*
X124544000Y-29874000D02*
X119783000Y-29874000D01*
X132185000Y-29874000D02*
X127424000Y-29874000D01*
X124544000Y-29834000D02*
X119792000Y-29834000D01*
X132176000Y-29834000D02*
X127424000Y-29834000D01*
X124544000Y-29794000D02*
X119800000Y-29794000D01*
X132168000Y-29794000D02*
X127424000Y-29794000D01*
X124544000Y-29754000D02*
X119809000Y-29754000D01*
X132159000Y-29754000D02*
X127424000Y-29754000D01*
X124544000Y-29714000D02*
X119818000Y-29714000D01*
X132150000Y-29714000D02*
X127424000Y-29714000D01*
X124544000Y-29674000D02*
X119828000Y-29674000D01*
X132140000Y-29674000D02*
X127424000Y-29674000D01*
X124544000Y-29634000D02*
X119838000Y-29634000D01*
X132130000Y-29634000D02*
X127424000Y-29634000D01*
X124544000Y-29594000D02*
X119847000Y-29594000D01*
X132121000Y-29594000D02*
X127424000Y-29594000D01*
X124544000Y-29554000D02*
X119858000Y-29554000D01*
X132110000Y-29554000D02*
X127424000Y-29554000D01*
X124544000Y-29514000D02*
X119868000Y-29514000D01*
X132100000Y-29514000D02*
X127424000Y-29514000D01*
X124544000Y-29474000D02*
X119879000Y-29474000D01*
X132089000Y-29474000D02*
X127424000Y-29474000D01*
X124544000Y-29434000D02*
X119890000Y-29434000D01*
X132078000Y-29434000D02*
X127424000Y-29434000D01*
X124544000Y-29394000D02*
X119901000Y-29394000D01*
X132067000Y-29394000D02*
X127424000Y-29394000D01*
X124544000Y-29354000D02*
X119913000Y-29354000D01*
X132055000Y-29354000D02*
X127424000Y-29354000D01*
X124544000Y-29314000D02*
X119925000Y-29314000D01*
X132043000Y-29314000D02*
X127424000Y-29314000D01*
X124544000Y-29274000D02*
X119937000Y-29274000D01*
X132031000Y-29274000D02*
X127424000Y-29274000D01*
X124544000Y-29234000D02*
X119950000Y-29234000D01*
X132018000Y-29234000D02*
X127424000Y-29234000D01*
X124544000Y-29194000D02*
X119963000Y-29194000D01*
X132005000Y-29194000D02*
X127424000Y-29194000D01*
X124544000Y-29154000D02*
X119976000Y-29154000D01*
X131992000Y-29154000D02*
X127424000Y-29154000D01*
X124544000Y-29114000D02*
X119989000Y-29114000D01*
X131979000Y-29114000D02*
X127424000Y-29114000D01*
X124544000Y-29074000D02*
X120003000Y-29074000D01*
X131965000Y-29074000D02*
X127424000Y-29074000D01*
X124544000Y-29034000D02*
X120017000Y-29034000D01*
X131951000Y-29034000D02*
X127424000Y-29034000D01*
X124544000Y-28994000D02*
X120031000Y-28994000D01*
X131937000Y-28994000D02*
X127424000Y-28994000D01*
X124544000Y-28954000D02*
X120045000Y-28954000D01*
X131923000Y-28954000D02*
X127424000Y-28954000D01*
X124544000Y-28914000D02*
X120060000Y-28914000D01*
X131908000Y-28914000D02*
X127424000Y-28914000D01*
X124544000Y-28874000D02*
X120076000Y-28874000D01*
X131892000Y-28874000D02*
X127424000Y-28874000D01*
X124544000Y-28834000D02*
X120091000Y-28834000D01*
X131877000Y-28834000D02*
X127424000Y-28834000D01*
X124544000Y-28794000D02*
X120107000Y-28794000D01*
X131861000Y-28794000D02*
X127424000Y-28794000D01*
X124544000Y-28754000D02*
X120123000Y-28754000D01*
X131845000Y-28754000D02*
X127424000Y-28754000D01*
X124544000Y-28714000D02*
X120139000Y-28714000D01*
X131829000Y-28714000D02*
X127424000Y-28714000D01*
X124544000Y-28674000D02*
X120156000Y-28674000D01*
X131812000Y-28674000D02*
X127424000Y-28674000D01*
X124544000Y-28634000D02*
X120173000Y-28634000D01*
X131795000Y-28634000D02*
X127424000Y-28634000D01*
X124544000Y-28594000D02*
X120191000Y-28594000D01*
X131777000Y-28594000D02*
X127424000Y-28594000D01*
X124544000Y-28554000D02*
X120208000Y-28554000D01*
X131760000Y-28554000D02*
X127424000Y-28554000D01*
X124544000Y-28514000D02*
X120226000Y-28514000D01*
X131742000Y-28514000D02*
X127424000Y-28514000D01*
X124544000Y-28474000D02*
X120245000Y-28474000D01*
X131723000Y-28474000D02*
X127424000Y-28474000D01*
X124544000Y-28434000D02*
X120263000Y-28434000D01*
X131705000Y-28434000D02*
X127424000Y-28434000D01*
X124544000Y-28394000D02*
X120282000Y-28394000D01*
X131686000Y-28394000D02*
X127424000Y-28394000D01*
X124544000Y-28354000D02*
X120302000Y-28354000D01*
X131666000Y-28354000D02*
X127424000Y-28354000D01*
X124544000Y-28314000D02*
X120322000Y-28314000D01*
X131646000Y-28314000D02*
X127424000Y-28314000D01*
X124544000Y-28274000D02*
X120342000Y-28274000D01*
X131626000Y-28274000D02*
X127424000Y-28274000D01*
X124544000Y-28234000D02*
X120362000Y-28234000D01*
X131606000Y-28234000D02*
X127424000Y-28234000D01*
X124544000Y-28194000D02*
X120383000Y-28194000D01*
X131585000Y-28194000D02*
X127424000Y-28194000D01*
X124544000Y-28154000D02*
X120404000Y-28154000D01*
X131564000Y-28154000D02*
X127424000Y-28154000D01*
X124544000Y-28114000D02*
X120426000Y-28114000D01*
X131542000Y-28114000D02*
X127424000Y-28114000D01*
X124544000Y-28074000D02*
X120448000Y-28074000D01*
X131520000Y-28074000D02*
X127424000Y-28074000D01*
X124544000Y-28034000D02*
X120470000Y-28034000D01*
X131498000Y-28034000D02*
X127424000Y-28034000D01*
X124544000Y-27994000D02*
X120493000Y-27994000D01*
X131475000Y-27994000D02*
X127424000Y-27994000D01*
X124544000Y-27954000D02*
X120516000Y-27954000D01*
X131452000Y-27954000D02*
X127424000Y-27954000D01*
X124544000Y-27914000D02*
X120539000Y-27914000D01*
X131429000Y-27914000D02*
X127424000Y-27914000D01*
X124544000Y-27874000D02*
X120563000Y-27874000D01*
X131405000Y-27874000D02*
X127424000Y-27874000D01*
X124544000Y-27834000D02*
X120587000Y-27834000D01*
X131381000Y-27834000D02*
X127424000Y-27834000D01*
X124544000Y-27794000D02*
X120612000Y-27794000D01*
X131356000Y-27794000D02*
X127424000Y-27794000D01*
X124544000Y-27754000D02*
X120637000Y-27754000D01*
X131331000Y-27754000D02*
X127424000Y-27754000D01*
X124544000Y-27714000D02*
X120662000Y-27714000D01*
X131306000Y-27714000D02*
X127424000Y-27714000D01*
X124544000Y-27674000D02*
X120688000Y-27674000D01*
X131280000Y-27674000D02*
X127424000Y-27674000D01*
X124544000Y-27634000D02*
X120714000Y-27634000D01*
X131254000Y-27634000D02*
X127424000Y-27634000D01*
X124544000Y-27594000D02*
X120741000Y-27594000D01*
X131227000Y-27594000D02*
X127424000Y-27594000D01*
X124544000Y-27554000D02*
X120768000Y-27554000D01*
X131200000Y-27554000D02*
X127424000Y-27554000D01*
X124544000Y-27514000D02*
X120796000Y-27514000D01*
X131172000Y-27514000D02*
X127424000Y-27514000D01*
X124544000Y-27474000D02*
X120824000Y-27474000D01*
X131144000Y-27474000D02*
X127424000Y-27474000D01*
X124544000Y-27434000D02*
X120853000Y-27434000D01*
X131115000Y-27434000D02*
X127424000Y-27434000D01*
X124544000Y-27394000D02*
X120882000Y-27394000D01*
X131086000Y-27394000D02*
X127424000Y-27394000D01*
X124544000Y-27354000D02*
X120911000Y-27354000D01*
X131057000Y-27354000D02*
X127424000Y-27354000D01*
X124544000Y-27314000D02*
X120941000Y-27314000D01*
X131027000Y-27314000D02*
X127424000Y-27314000D01*
X124544000Y-27274000D02*
X120972000Y-27274000D01*
X130996000Y-27274000D02*
X127424000Y-27274000D01*
X124544000Y-27234000D02*
X121002000Y-27234000D01*
X130966000Y-27234000D02*
X127424000Y-27234000D01*
X130934000Y-27194000D02*
X121034000Y-27194000D01*
X130902000Y-27154000D02*
X121066000Y-27154000D01*
X130869000Y-27114000D02*
X121099000Y-27114000D01*
X130836000Y-27074000D02*
X121132000Y-27074000D01*
X130803000Y-27034000D02*
X121165000Y-27034000D01*
X130769000Y-26994000D02*
X121199000Y-26994000D01*
X130734000Y-26954000D02*
X121234000Y-26954000D01*
X130698000Y-26914000D02*
X121270000Y-26914000D01*
X130662000Y-26874000D02*
X121306000Y-26874000D01*
X130626000Y-26834000D02*
X121342000Y-26834000D01*
X130589000Y-26794000D02*
X121379000Y-26794000D01*
X130551000Y-26754000D02*
X121417000Y-26754000D01*
X130512000Y-26714000D02*
X121456000Y-26714000D01*
X130473000Y-26674000D02*
X121495000Y-26674000D01*
X130433000Y-26634000D02*
X121535000Y-26634000D01*
X130392000Y-26594000D02*
X121576000Y-26594000D01*
X130351000Y-26554000D02*
X121617000Y-26554000D01*
X130309000Y-26514000D02*
X121659000Y-26514000D01*
X130266000Y-26474000D02*
X121702000Y-26474000D01*
X130222000Y-26434000D02*
X121746000Y-26434000D01*
X130178000Y-26394000D02*
X121790000Y-26394000D01*
X130132000Y-26354000D02*
X121836000Y-26354000D01*
X130086000Y-26314000D02*
X121882000Y-26314000D01*
X130039000Y-26274000D02*
X121929000Y-26274000D01*
X129991000Y-26234000D02*
X121977000Y-26234000D01*
X129941000Y-26194000D02*
X122027000Y-26194000D01*
X129891000Y-26154000D02*
X122077000Y-26154000D01*
X129840000Y-26114000D02*
X122128000Y-26114000D01*
X129788000Y-26074000D02*
X122180000Y-26074000D01*
X129734000Y-26034000D02*
X122234000Y-26034000D01*
X129680000Y-25994000D02*
X122288000Y-25994000D01*
X129624000Y-25954000D02*
X122344000Y-25954000D01*
X129567000Y-25914000D02*
X122401000Y-25914000D01*
X129508000Y-25874000D02*
X122460000Y-25874000D01*
X129448000Y-25834000D02*
X122520000Y-25834000D01*
X129386000Y-25794000D02*
X122582000Y-25794000D01*
X129323000Y-25754000D02*
X122645000Y-25754000D01*
X129259000Y-25714000D02*
X122709000Y-25714000D01*
X129192000Y-25674000D02*
X122776000Y-25674000D01*
X129124000Y-25634000D02*
X122844000Y-25634000D01*
X129053000Y-25594000D02*
X122915000Y-25594000D01*
X128980000Y-25554000D02*
X122988000Y-25554000D01*
X128905000Y-25514000D02*
X123063000Y-25514000D01*
X128828000Y-25474000D02*
X123140000Y-25474000D01*
X128748000Y-25434000D02*
X123220000Y-25434000D01*
X128665000Y-25394000D02*
X123303000Y-25394000D01*
X128578000Y-25354000D02*
X123390000Y-25354000D01*
X128488000Y-25314000D02*
X123480000Y-25314000D01*
X128394000Y-25274000D02*
X123574000Y-25274000D01*
X128296000Y-25234000D02*
X123672000Y-25234000D01*
X128193000Y-25194000D02*
X123775000Y-25194000D01*
X128084000Y-25154000D02*
X123884000Y-25154000D01*
X127968000Y-25114000D02*
X124000000Y-25114000D01*
X127845000Y-25074000D02*
X124123000Y-25074000D01*
X127712000Y-25034000D02*
X124256000Y-25034000D01*
X127567000Y-24994000D02*
X124401000Y-24994000D01*
X127406000Y-24954000D02*
X124562000Y-24954000D01*
X127225000Y-24914000D02*
X124743000Y-24914000D01*
X127012000Y-24874000D02*
X124956000Y-24874000D01*
X126741000Y-24834000D02*
X125227000Y-24834000D01*
X126301000Y-24794000D02*
X125667000Y-24794000D01*
X132354000Y-31155000D02*
G75*
G03*
X132354000Y-31155000I-6370000J0D01*
G01*
%TO.C,U20*%
X54650000Y-28325000D02*
X53135000Y-28325000D01*
X54650000Y-25193000D02*
X44410000Y-25193000D01*
X54650000Y-23684000D02*
X54650000Y-28325000D01*
X54650000Y-23684000D02*
X44410000Y-23684000D01*
X53340000Y-28325000D02*
X53340000Y-30955000D01*
X51380000Y-23684000D02*
X51380000Y-25193000D01*
X51004000Y-28325000D02*
X50595000Y-28325000D01*
X50800000Y-28325000D02*
X50800000Y-30939000D01*
X48465000Y-28325000D02*
X48055000Y-28325000D01*
X48260000Y-28325000D02*
X48260000Y-30939000D01*
X47680000Y-23684000D02*
X47680000Y-25193000D01*
X45925000Y-28325000D02*
X44410000Y-28325000D01*
X45720000Y-28325000D02*
X45720000Y-30939000D01*
X44410000Y-23684000D02*
X44410000Y-28325000D01*
%TO.C,C63*%
X146587000Y-70223698D02*
X146587000Y-69423698D01*
X146987000Y-69823698D02*
X146187000Y-69823698D01*
X148352000Y-65814000D02*
X140192000Y-65814000D01*
X148352000Y-65774000D02*
X140192000Y-65774000D01*
X148352000Y-65734000D02*
X140192000Y-65734000D01*
X148351000Y-65694000D02*
X140193000Y-65694000D01*
X148349000Y-65654000D02*
X140195000Y-65654000D01*
X148348000Y-65614000D02*
X140196000Y-65614000D01*
X148346000Y-65574000D02*
X140198000Y-65574000D01*
X148343000Y-65534000D02*
X140201000Y-65534000D01*
X148340000Y-65494000D02*
X140204000Y-65494000D01*
X148337000Y-65454000D02*
X140207000Y-65454000D01*
X148333000Y-65414000D02*
X140211000Y-65414000D01*
X148329000Y-65374000D02*
X140215000Y-65374000D01*
X148324000Y-65334000D02*
X140220000Y-65334000D01*
X148320000Y-65294000D02*
X140224000Y-65294000D01*
X148314000Y-65254000D02*
X140230000Y-65254000D01*
X148309000Y-65214000D02*
X140235000Y-65214000D01*
X148302000Y-65174000D02*
X140242000Y-65174000D01*
X148296000Y-65134000D02*
X140248000Y-65134000D01*
X143232000Y-65093000D02*
X140255000Y-65093000D01*
X148289000Y-65093000D02*
X145312000Y-65093000D01*
X143232000Y-65053000D02*
X140262000Y-65053000D01*
X148282000Y-65053000D02*
X145312000Y-65053000D01*
X143232000Y-65013000D02*
X140270000Y-65013000D01*
X148274000Y-65013000D02*
X145312000Y-65013000D01*
X143232000Y-64973000D02*
X140278000Y-64973000D01*
X148266000Y-64973000D02*
X145312000Y-64973000D01*
X143232000Y-64933000D02*
X140287000Y-64933000D01*
X148257000Y-64933000D02*
X145312000Y-64933000D01*
X143232000Y-64893000D02*
X140296000Y-64893000D01*
X148248000Y-64893000D02*
X145312000Y-64893000D01*
X143232000Y-64853000D02*
X140305000Y-64853000D01*
X148239000Y-64853000D02*
X145312000Y-64853000D01*
X143232000Y-64813000D02*
X140315000Y-64813000D01*
X148229000Y-64813000D02*
X145312000Y-64813000D01*
X143232000Y-64773000D02*
X140325000Y-64773000D01*
X148219000Y-64773000D02*
X145312000Y-64773000D01*
X143232000Y-64733000D02*
X140336000Y-64733000D01*
X148208000Y-64733000D02*
X145312000Y-64733000D01*
X143232000Y-64693000D02*
X140347000Y-64693000D01*
X148197000Y-64693000D02*
X145312000Y-64693000D01*
X143232000Y-64653000D02*
X140358000Y-64653000D01*
X148186000Y-64653000D02*
X145312000Y-64653000D01*
X143232000Y-64613000D02*
X140370000Y-64613000D01*
X148174000Y-64613000D02*
X145312000Y-64613000D01*
X143232000Y-64573000D02*
X140383000Y-64573000D01*
X148161000Y-64573000D02*
X145312000Y-64573000D01*
X143232000Y-64533000D02*
X140395000Y-64533000D01*
X148149000Y-64533000D02*
X145312000Y-64533000D01*
X143232000Y-64493000D02*
X140409000Y-64493000D01*
X148135000Y-64493000D02*
X145312000Y-64493000D01*
X143232000Y-64453000D02*
X140422000Y-64453000D01*
X148122000Y-64453000D02*
X145312000Y-64453000D01*
X143232000Y-64413000D02*
X140437000Y-64413000D01*
X148107000Y-64413000D02*
X145312000Y-64413000D01*
X143232000Y-64373000D02*
X140451000Y-64373000D01*
X148093000Y-64373000D02*
X145312000Y-64373000D01*
X143232000Y-64333000D02*
X140467000Y-64333000D01*
X148077000Y-64333000D02*
X145312000Y-64333000D01*
X143232000Y-64293000D02*
X140482000Y-64293000D01*
X148062000Y-64293000D02*
X145312000Y-64293000D01*
X143232000Y-64253000D02*
X140498000Y-64253000D01*
X148046000Y-64253000D02*
X145312000Y-64253000D01*
X143232000Y-64213000D02*
X140515000Y-64213000D01*
X148029000Y-64213000D02*
X145312000Y-64213000D01*
X143232000Y-64173000D02*
X140532000Y-64173000D01*
X148012000Y-64173000D02*
X145312000Y-64173000D01*
X143232000Y-64133000D02*
X140550000Y-64133000D01*
X147994000Y-64133000D02*
X145312000Y-64133000D01*
X143232000Y-64093000D02*
X140568000Y-64093000D01*
X147976000Y-64093000D02*
X145312000Y-64093000D01*
X143232000Y-64053000D02*
X140586000Y-64053000D01*
X147958000Y-64053000D02*
X145312000Y-64053000D01*
X143232000Y-64013000D02*
X140606000Y-64013000D01*
X147938000Y-64013000D02*
X145312000Y-64013000D01*
X143232000Y-63973000D02*
X140625000Y-63973000D01*
X147919000Y-63973000D02*
X145312000Y-63973000D01*
X143232000Y-63933000D02*
X140645000Y-63933000D01*
X147899000Y-63933000D02*
X145312000Y-63933000D01*
X143232000Y-63893000D02*
X140666000Y-63893000D01*
X147878000Y-63893000D02*
X145312000Y-63893000D01*
X143232000Y-63853000D02*
X140688000Y-63853000D01*
X147856000Y-63853000D02*
X145312000Y-63853000D01*
X143232000Y-63813000D02*
X140710000Y-63813000D01*
X147834000Y-63813000D02*
X145312000Y-63813000D01*
X143232000Y-63773000D02*
X140732000Y-63773000D01*
X147812000Y-63773000D02*
X145312000Y-63773000D01*
X143232000Y-63733000D02*
X140755000Y-63733000D01*
X147789000Y-63733000D02*
X145312000Y-63733000D01*
X143232000Y-63693000D02*
X140779000Y-63693000D01*
X147765000Y-63693000D02*
X145312000Y-63693000D01*
X143232000Y-63653000D02*
X140803000Y-63653000D01*
X147741000Y-63653000D02*
X145312000Y-63653000D01*
X143232000Y-63613000D02*
X140828000Y-63613000D01*
X147716000Y-63613000D02*
X145312000Y-63613000D01*
X143232000Y-63573000D02*
X140854000Y-63573000D01*
X147690000Y-63573000D02*
X145312000Y-63573000D01*
X143232000Y-63533000D02*
X140880000Y-63533000D01*
X147664000Y-63533000D02*
X145312000Y-63533000D01*
X143232000Y-63493000D02*
X140907000Y-63493000D01*
X147637000Y-63493000D02*
X145312000Y-63493000D01*
X143232000Y-63453000D02*
X140934000Y-63453000D01*
X147610000Y-63453000D02*
X145312000Y-63453000D01*
X143232000Y-63413000D02*
X140963000Y-63413000D01*
X147581000Y-63413000D02*
X145312000Y-63413000D01*
X143232000Y-63373000D02*
X140992000Y-63373000D01*
X147552000Y-63373000D02*
X145312000Y-63373000D01*
X143232000Y-63333000D02*
X141022000Y-63333000D01*
X147522000Y-63333000D02*
X145312000Y-63333000D01*
X143232000Y-63293000D02*
X141052000Y-63293000D01*
X147492000Y-63293000D02*
X145312000Y-63293000D01*
X143232000Y-63253000D02*
X141083000Y-63253000D01*
X147461000Y-63253000D02*
X145312000Y-63253000D01*
X143232000Y-63213000D02*
X141116000Y-63213000D01*
X147428000Y-63213000D02*
X145312000Y-63213000D01*
X143232000Y-63173000D02*
X141148000Y-63173000D01*
X147396000Y-63173000D02*
X145312000Y-63173000D01*
X143232000Y-63133000D02*
X141182000Y-63133000D01*
X147362000Y-63133000D02*
X145312000Y-63133000D01*
X143232000Y-63093000D02*
X141217000Y-63093000D01*
X147327000Y-63093000D02*
X145312000Y-63093000D01*
X143232000Y-63053000D02*
X141253000Y-63053000D01*
X147291000Y-63053000D02*
X145312000Y-63053000D01*
X147255000Y-63013000D02*
X141289000Y-63013000D01*
X147217000Y-62973000D02*
X141327000Y-62973000D01*
X147179000Y-62933000D02*
X141365000Y-62933000D01*
X147139000Y-62893000D02*
X141405000Y-62893000D01*
X147098000Y-62853000D02*
X141446000Y-62853000D01*
X147056000Y-62813000D02*
X141488000Y-62813000D01*
X147013000Y-62773000D02*
X141531000Y-62773000D01*
X146969000Y-62733000D02*
X141575000Y-62733000D01*
X146923000Y-62693000D02*
X141621000Y-62693000D01*
X146876000Y-62653000D02*
X141668000Y-62653000D01*
X146828000Y-62613000D02*
X141716000Y-62613000D01*
X146777000Y-62573000D02*
X141767000Y-62573000D01*
X146726000Y-62533000D02*
X141818000Y-62533000D01*
X146672000Y-62493000D02*
X141872000Y-62493000D01*
X146617000Y-62453000D02*
X141927000Y-62453000D01*
X146559000Y-62413000D02*
X141985000Y-62413000D01*
X146500000Y-62373000D02*
X142044000Y-62373000D01*
X146438000Y-62333000D02*
X142106000Y-62333000D01*
X146374000Y-62293000D02*
X142170000Y-62293000D01*
X146306000Y-62253000D02*
X142238000Y-62253000D01*
X146236000Y-62213000D02*
X142308000Y-62213000D01*
X146162000Y-62173000D02*
X142382000Y-62173000D01*
X146085000Y-62133000D02*
X142459000Y-62133000D01*
X146003000Y-62093000D02*
X142541000Y-62093000D01*
X145917000Y-62053000D02*
X142627000Y-62053000D01*
X145824000Y-62013000D02*
X142720000Y-62013000D01*
X145725000Y-61973000D02*
X142819000Y-61973000D01*
X145618000Y-61933000D02*
X142926000Y-61933000D01*
X145501000Y-61893000D02*
X143043000Y-61893000D01*
X145370000Y-61853000D02*
X143174000Y-61853000D01*
X145220000Y-61813000D02*
X143324000Y-61813000D01*
X145040000Y-61773000D02*
X143504000Y-61773000D01*
X144805000Y-61733000D02*
X143739000Y-61733000D01*
X148392000Y-65814000D02*
G75*
G03*
X148392000Y-65814000I-4120000J0D01*
G01*
%TO.C,C80*%
X21609000Y-47370082D02*
X21609000Y-46120082D01*
X22234000Y-46745082D02*
X20984000Y-46745082D01*
X24364000Y-40553000D02*
X11704000Y-40553000D01*
X24364000Y-40513000D02*
X11704000Y-40513000D01*
X24364000Y-40473000D02*
X11704000Y-40473000D01*
X24363000Y-40433000D02*
X11705000Y-40433000D01*
X24362000Y-40393000D02*
X11706000Y-40393000D01*
X24361000Y-40353000D02*
X11707000Y-40353000D01*
X24360000Y-40313000D02*
X11708000Y-40313000D01*
X24358000Y-40273000D02*
X11710000Y-40273000D01*
X24356000Y-40233000D02*
X11712000Y-40233000D01*
X24354000Y-40193000D02*
X11714000Y-40193000D01*
X24352000Y-40153000D02*
X11716000Y-40153000D01*
X24349000Y-40113000D02*
X11719000Y-40113000D01*
X24346000Y-40073000D02*
X11722000Y-40073000D01*
X24343000Y-40033000D02*
X11725000Y-40033000D01*
X24340000Y-39993000D02*
X11728000Y-39993000D01*
X24336000Y-39953000D02*
X11732000Y-39953000D01*
X24332000Y-39913000D02*
X11736000Y-39913000D01*
X24328000Y-39873000D02*
X11740000Y-39873000D01*
X24324000Y-39832000D02*
X11744000Y-39832000D01*
X24319000Y-39792000D02*
X11749000Y-39792000D01*
X24314000Y-39752000D02*
X11754000Y-39752000D01*
X24309000Y-39712000D02*
X11759000Y-39712000D01*
X24303000Y-39672000D02*
X11765000Y-39672000D01*
X24298000Y-39632000D02*
X11770000Y-39632000D01*
X24292000Y-39592000D02*
X11776000Y-39592000D01*
X24286000Y-39552000D02*
X11782000Y-39552000D01*
X24279000Y-39512000D02*
X11789000Y-39512000D01*
X16594000Y-39472000D02*
X11796000Y-39472000D01*
X24272000Y-39472000D02*
X19474000Y-39472000D01*
X16594000Y-39432000D02*
X11803000Y-39432000D01*
X24265000Y-39432000D02*
X19474000Y-39432000D01*
X16594000Y-39392000D02*
X11810000Y-39392000D01*
X24258000Y-39392000D02*
X19474000Y-39392000D01*
X16594000Y-39352000D02*
X11818000Y-39352000D01*
X24250000Y-39352000D02*
X19474000Y-39352000D01*
X16594000Y-39312000D02*
X11825000Y-39312000D01*
X24243000Y-39312000D02*
X19474000Y-39312000D01*
X16594000Y-39272000D02*
X11833000Y-39272000D01*
X24235000Y-39272000D02*
X19474000Y-39272000D01*
X16594000Y-39232000D02*
X11842000Y-39232000D01*
X24226000Y-39232000D02*
X19474000Y-39232000D01*
X16594000Y-39192000D02*
X11850000Y-39192000D01*
X24218000Y-39192000D02*
X19474000Y-39192000D01*
X16594000Y-39152000D02*
X11859000Y-39152000D01*
X24209000Y-39152000D02*
X19474000Y-39152000D01*
X16594000Y-39112000D02*
X11868000Y-39112000D01*
X24200000Y-39112000D02*
X19474000Y-39112000D01*
X16594000Y-39072000D02*
X11878000Y-39072000D01*
X24190000Y-39072000D02*
X19474000Y-39072000D01*
X16594000Y-39032000D02*
X11888000Y-39032000D01*
X24180000Y-39032000D02*
X19474000Y-39032000D01*
X16594000Y-38992000D02*
X11897000Y-38992000D01*
X24171000Y-38992000D02*
X19474000Y-38992000D01*
X16594000Y-38952000D02*
X11908000Y-38952000D01*
X24160000Y-38952000D02*
X19474000Y-38952000D01*
X16594000Y-38912000D02*
X11918000Y-38912000D01*
X24150000Y-38912000D02*
X19474000Y-38912000D01*
X16594000Y-38872000D02*
X11929000Y-38872000D01*
X24139000Y-38872000D02*
X19474000Y-38872000D01*
X16594000Y-38832000D02*
X11940000Y-38832000D01*
X24128000Y-38832000D02*
X19474000Y-38832000D01*
X16594000Y-38792000D02*
X11951000Y-38792000D01*
X24117000Y-38792000D02*
X19474000Y-38792000D01*
X16594000Y-38752000D02*
X11963000Y-38752000D01*
X24105000Y-38752000D02*
X19474000Y-38752000D01*
X16594000Y-38712000D02*
X11975000Y-38712000D01*
X24093000Y-38712000D02*
X19474000Y-38712000D01*
X16594000Y-38672000D02*
X11987000Y-38672000D01*
X24081000Y-38672000D02*
X19474000Y-38672000D01*
X16594000Y-38632000D02*
X12000000Y-38632000D01*
X24068000Y-38632000D02*
X19474000Y-38632000D01*
X16594000Y-38592000D02*
X12013000Y-38592000D01*
X24055000Y-38592000D02*
X19474000Y-38592000D01*
X16594000Y-38552000D02*
X12026000Y-38552000D01*
X24042000Y-38552000D02*
X19474000Y-38552000D01*
X16594000Y-38512000D02*
X12039000Y-38512000D01*
X24029000Y-38512000D02*
X19474000Y-38512000D01*
X16594000Y-38472000D02*
X12053000Y-38472000D01*
X24015000Y-38472000D02*
X19474000Y-38472000D01*
X16594000Y-38432000D02*
X12067000Y-38432000D01*
X24001000Y-38432000D02*
X19474000Y-38432000D01*
X16594000Y-38392000D02*
X12081000Y-38392000D01*
X23987000Y-38392000D02*
X19474000Y-38392000D01*
X16594000Y-38352000D02*
X12095000Y-38352000D01*
X23973000Y-38352000D02*
X19474000Y-38352000D01*
X16594000Y-38312000D02*
X12110000Y-38312000D01*
X23958000Y-38312000D02*
X19474000Y-38312000D01*
X16594000Y-38272000D02*
X12126000Y-38272000D01*
X23942000Y-38272000D02*
X19474000Y-38272000D01*
X16594000Y-38232000D02*
X12141000Y-38232000D01*
X23927000Y-38232000D02*
X19474000Y-38232000D01*
X16594000Y-38192000D02*
X12157000Y-38192000D01*
X23911000Y-38192000D02*
X19474000Y-38192000D01*
X16594000Y-38152000D02*
X12173000Y-38152000D01*
X23895000Y-38152000D02*
X19474000Y-38152000D01*
X16594000Y-38112000D02*
X12189000Y-38112000D01*
X23879000Y-38112000D02*
X19474000Y-38112000D01*
X16594000Y-38072000D02*
X12206000Y-38072000D01*
X23862000Y-38072000D02*
X19474000Y-38072000D01*
X16594000Y-38032000D02*
X12223000Y-38032000D01*
X23845000Y-38032000D02*
X19474000Y-38032000D01*
X16594000Y-37992000D02*
X12241000Y-37992000D01*
X23827000Y-37992000D02*
X19474000Y-37992000D01*
X16594000Y-37952000D02*
X12258000Y-37952000D01*
X23810000Y-37952000D02*
X19474000Y-37952000D01*
X16594000Y-37912000D02*
X12276000Y-37912000D01*
X23792000Y-37912000D02*
X19474000Y-37912000D01*
X16594000Y-37872000D02*
X12295000Y-37872000D01*
X23773000Y-37872000D02*
X19474000Y-37872000D01*
X16594000Y-37832000D02*
X12313000Y-37832000D01*
X23755000Y-37832000D02*
X19474000Y-37832000D01*
X16594000Y-37792000D02*
X12332000Y-37792000D01*
X23736000Y-37792000D02*
X19474000Y-37792000D01*
X16594000Y-37752000D02*
X12352000Y-37752000D01*
X23716000Y-37752000D02*
X19474000Y-37752000D01*
X16594000Y-37712000D02*
X12372000Y-37712000D01*
X23696000Y-37712000D02*
X19474000Y-37712000D01*
X16594000Y-37672000D02*
X12392000Y-37672000D01*
X23676000Y-37672000D02*
X19474000Y-37672000D01*
X16594000Y-37632000D02*
X12412000Y-37632000D01*
X23656000Y-37632000D02*
X19474000Y-37632000D01*
X16594000Y-37592000D02*
X12433000Y-37592000D01*
X23635000Y-37592000D02*
X19474000Y-37592000D01*
X16594000Y-37552000D02*
X12454000Y-37552000D01*
X23614000Y-37552000D02*
X19474000Y-37552000D01*
X16594000Y-37512000D02*
X12476000Y-37512000D01*
X23592000Y-37512000D02*
X19474000Y-37512000D01*
X16594000Y-37472000D02*
X12498000Y-37472000D01*
X23570000Y-37472000D02*
X19474000Y-37472000D01*
X16594000Y-37432000D02*
X12520000Y-37432000D01*
X23548000Y-37432000D02*
X19474000Y-37432000D01*
X16594000Y-37392000D02*
X12543000Y-37392000D01*
X23525000Y-37392000D02*
X19474000Y-37392000D01*
X16594000Y-37352000D02*
X12566000Y-37352000D01*
X23502000Y-37352000D02*
X19474000Y-37352000D01*
X16594000Y-37312000D02*
X12589000Y-37312000D01*
X23479000Y-37312000D02*
X19474000Y-37312000D01*
X16594000Y-37272000D02*
X12613000Y-37272000D01*
X23455000Y-37272000D02*
X19474000Y-37272000D01*
X16594000Y-37232000D02*
X12637000Y-37232000D01*
X23431000Y-37232000D02*
X19474000Y-37232000D01*
X16594000Y-37192000D02*
X12662000Y-37192000D01*
X23406000Y-37192000D02*
X19474000Y-37192000D01*
X16594000Y-37152000D02*
X12687000Y-37152000D01*
X23381000Y-37152000D02*
X19474000Y-37152000D01*
X16594000Y-37112000D02*
X12712000Y-37112000D01*
X23356000Y-37112000D02*
X19474000Y-37112000D01*
X16594000Y-37072000D02*
X12738000Y-37072000D01*
X23330000Y-37072000D02*
X19474000Y-37072000D01*
X16594000Y-37032000D02*
X12764000Y-37032000D01*
X23304000Y-37032000D02*
X19474000Y-37032000D01*
X16594000Y-36992000D02*
X12791000Y-36992000D01*
X23277000Y-36992000D02*
X19474000Y-36992000D01*
X16594000Y-36952000D02*
X12818000Y-36952000D01*
X23250000Y-36952000D02*
X19474000Y-36952000D01*
X16594000Y-36912000D02*
X12846000Y-36912000D01*
X23222000Y-36912000D02*
X19474000Y-36912000D01*
X16594000Y-36872000D02*
X12874000Y-36872000D01*
X23194000Y-36872000D02*
X19474000Y-36872000D01*
X16594000Y-36832000D02*
X12903000Y-36832000D01*
X23165000Y-36832000D02*
X19474000Y-36832000D01*
X16594000Y-36792000D02*
X12932000Y-36792000D01*
X23136000Y-36792000D02*
X19474000Y-36792000D01*
X16594000Y-36752000D02*
X12961000Y-36752000D01*
X23107000Y-36752000D02*
X19474000Y-36752000D01*
X16594000Y-36712000D02*
X12991000Y-36712000D01*
X23077000Y-36712000D02*
X19474000Y-36712000D01*
X16594000Y-36672000D02*
X13022000Y-36672000D01*
X23046000Y-36672000D02*
X19474000Y-36672000D01*
X16594000Y-36632000D02*
X13052000Y-36632000D01*
X23016000Y-36632000D02*
X19474000Y-36632000D01*
X22984000Y-36592000D02*
X13084000Y-36592000D01*
X22952000Y-36552000D02*
X13116000Y-36552000D01*
X22919000Y-36512000D02*
X13149000Y-36512000D01*
X22886000Y-36472000D02*
X13182000Y-36472000D01*
X22853000Y-36432000D02*
X13215000Y-36432000D01*
X22819000Y-36392000D02*
X13249000Y-36392000D01*
X22784000Y-36352000D02*
X13284000Y-36352000D01*
X22748000Y-36312000D02*
X13320000Y-36312000D01*
X22712000Y-36272000D02*
X13356000Y-36272000D01*
X22676000Y-36232000D02*
X13392000Y-36232000D01*
X22639000Y-36192000D02*
X13429000Y-36192000D01*
X22601000Y-36152000D02*
X13467000Y-36152000D01*
X22562000Y-36112000D02*
X13506000Y-36112000D01*
X22523000Y-36072000D02*
X13545000Y-36072000D01*
X22483000Y-36032000D02*
X13585000Y-36032000D01*
X22442000Y-35992000D02*
X13626000Y-35992000D01*
X22401000Y-35952000D02*
X13667000Y-35952000D01*
X22359000Y-35912000D02*
X13709000Y-35912000D01*
X22316000Y-35872000D02*
X13752000Y-35872000D01*
X22272000Y-35832000D02*
X13796000Y-35832000D01*
X22228000Y-35792000D02*
X13840000Y-35792000D01*
X22182000Y-35752000D02*
X13886000Y-35752000D01*
X22136000Y-35712000D02*
X13932000Y-35712000D01*
X22089000Y-35672000D02*
X13979000Y-35672000D01*
X22041000Y-35632000D02*
X14027000Y-35632000D01*
X21991000Y-35592000D02*
X14077000Y-35592000D01*
X21941000Y-35552000D02*
X14127000Y-35552000D01*
X21890000Y-35512000D02*
X14178000Y-35512000D01*
X21838000Y-35472000D02*
X14230000Y-35472000D01*
X21784000Y-35432000D02*
X14284000Y-35432000D01*
X21730000Y-35392000D02*
X14338000Y-35392000D01*
X21674000Y-35352000D02*
X14394000Y-35352000D01*
X21617000Y-35312000D02*
X14451000Y-35312000D01*
X21558000Y-35272000D02*
X14510000Y-35272000D01*
X21498000Y-35232000D02*
X14570000Y-35232000D01*
X21436000Y-35192000D02*
X14632000Y-35192000D01*
X21373000Y-35152000D02*
X14695000Y-35152000D01*
X21309000Y-35112000D02*
X14759000Y-35112000D01*
X21242000Y-35072000D02*
X14826000Y-35072000D01*
X21174000Y-35032000D02*
X14894000Y-35032000D01*
X21103000Y-34992000D02*
X14965000Y-34992000D01*
X21030000Y-34952000D02*
X15038000Y-34952000D01*
X20955000Y-34912000D02*
X15113000Y-34912000D01*
X20878000Y-34872000D02*
X15190000Y-34872000D01*
X20798000Y-34832000D02*
X15270000Y-34832000D01*
X20715000Y-34792000D02*
X15353000Y-34792000D01*
X20628000Y-34752000D02*
X15440000Y-34752000D01*
X20538000Y-34712000D02*
X15530000Y-34712000D01*
X20444000Y-34672000D02*
X15624000Y-34672000D01*
X20346000Y-34632000D02*
X15722000Y-34632000D01*
X20243000Y-34592000D02*
X15825000Y-34592000D01*
X20134000Y-34552000D02*
X15934000Y-34552000D01*
X20018000Y-34512000D02*
X16050000Y-34512000D01*
X19895000Y-34472000D02*
X16173000Y-34472000D01*
X19762000Y-34432000D02*
X16306000Y-34432000D01*
X19617000Y-34392000D02*
X16451000Y-34392000D01*
X19456000Y-34352000D02*
X16612000Y-34352000D01*
X19275000Y-34312000D02*
X16793000Y-34312000D01*
X19062000Y-34272000D02*
X17006000Y-34272000D01*
X18791000Y-34232000D02*
X17277000Y-34232000D01*
X18351000Y-34192000D02*
X17717000Y-34192000D01*
X24404000Y-40553000D02*
G75*
G03*
X24404000Y-40553000I-6370000J0D01*
G01*
%TD*%
%LPC*%
D19*
%TO.C,DACIN3*%
X145923000Y-28321000D03*
%TD*%
%TO.C,P6V1*%
X150749000Y-38227000D03*
%TD*%
D20*
%TO.C,GND1*%
X139573000Y-93599000D03*
X142113000Y-93599000D03*
%TD*%
D19*
%TO.C,A_SPAN1*%
X105029000Y-46101000D03*
%TD*%
D21*
%TO.C,H6*%
X58400000Y-92400000D03*
%TD*%
D22*
%TO.C,P5V1*%
X157099000Y-27508200D03*
%TD*%
D19*
%TO.C,CUR1*%
X60579000Y-25273000D03*
%TD*%
%TO.C,P12V1*%
X149479000Y-60325000D03*
%TD*%
D23*
%TO.C,H1*%
X3556000Y-5512000D03*
%TD*%
D19*
%TO.C,RST2*%
X57531000Y-62103000D03*
%TD*%
D21*
%TO.C,H8*%
X156503000Y-93997000D03*
%TD*%
D19*
%TO.C,RSR2*%
X57531000Y-65913000D03*
%TD*%
D21*
%TO.C,H7*%
X156503000Y-6003000D03*
%TD*%
D23*
%TO.C,H2*%
X3556000Y-94412000D03*
%TD*%
D19*
%TO.C,CUR3*%
X149733000Y-25146000D03*
%TD*%
%TO.C,ISOCOM2*%
X57531000Y-58293000D03*
%TD*%
%TO.C,DACIN1*%
X56388000Y-28321000D03*
%TD*%
%TO.C,VuC1*%
X132461000Y-63373000D03*
%TD*%
%TO.C,CUR2*%
X104775000Y-25019000D03*
%TD*%
%TO.C,DACIN2*%
X100838000Y-28371000D03*
%TD*%
D21*
%TO.C,H4*%
X28400000Y-92400000D03*
%TD*%
D19*
%TO.C,PP4*%
X94742000Y-46101000D03*
%TD*%
D24*
%TO.C,C128*%
X81153000Y-33655000D03*
D25*
X81153000Y-28655000D03*
%TD*%
D26*
%TO.C,J6*%
X10922000Y-58039000D03*
D27*
X10922000Y-60579000D03*
X13462000Y-58039000D03*
X13462000Y-60579000D03*
X16002000Y-58039000D03*
X16002000Y-60579000D03*
X18542000Y-58039000D03*
X18542000Y-60579000D03*
X21082000Y-58039000D03*
X21082000Y-60579000D03*
X23622000Y-58039000D03*
X23622000Y-60579000D03*
X26162000Y-58039000D03*
X26162000Y-60579000D03*
X28702000Y-58039000D03*
X28702000Y-60579000D03*
X31242000Y-58039000D03*
X31242000Y-60579000D03*
X33782000Y-58039000D03*
X33782000Y-60579000D03*
X36322000Y-58039000D03*
X36322000Y-60579000D03*
X38862000Y-58039000D03*
X38862000Y-60579000D03*
X41402000Y-58039000D03*
X41402000Y-60579000D03*
%TD*%
D28*
%TO.C,J3*%
X154305000Y-64008000D03*
D29*
X154305000Y-69088000D03*
%TD*%
D30*
%TO.C,HS1*%
X37042000Y-6208000D03*
X37042000Y-20208000D03*
X127042000Y-6208000D03*
X127042000Y-20208000D03*
%TD*%
D31*
%TO.C,BOOT0*%
X93599000Y-79375000D03*
D32*
X93599000Y-76835000D03*
%TD*%
D33*
%TO.C,J5*%
X128397000Y-93218000D03*
D27*
X128397000Y-90678000D03*
X125857000Y-93218000D03*
X125857000Y-90678000D03*
X123317000Y-93218000D03*
X123317000Y-90678000D03*
X120777000Y-93218000D03*
X120777000Y-90678000D03*
X118237000Y-93218000D03*
X118237000Y-90678000D03*
X115697000Y-93218000D03*
X115697000Y-90678000D03*
X113157000Y-93218000D03*
X113157000Y-90678000D03*
X110617000Y-93218000D03*
X110617000Y-90678000D03*
X108077000Y-93218000D03*
X108077000Y-90678000D03*
X105537000Y-93218000D03*
X105537000Y-90678000D03*
X102997000Y-93218000D03*
X102997000Y-90678000D03*
X100457000Y-93218000D03*
X100457000Y-90678000D03*
X97917000Y-93218000D03*
X97917000Y-90678000D03*
X95377000Y-93218000D03*
X95377000Y-90678000D03*
X92837000Y-93218000D03*
X92837000Y-90678000D03*
%TD*%
D34*
%TO.C,U28*%
X142748000Y-32021000D03*
D35*
X141478000Y-28321000D03*
X140208000Y-32021000D03*
X138938000Y-28321000D03*
X137668000Y-32021000D03*
X136398000Y-28321000D03*
X135128000Y-32021000D03*
%TD*%
D36*
%TO.C,J1*%
X6731000Y-49022000D03*
D29*
X6731000Y-43942000D03*
X6731000Y-38862000D03*
X6731000Y-33782000D03*
X6731000Y-28702000D03*
X6731000Y-23622000D03*
X6731000Y-18542000D03*
X6731000Y-13462000D03*
%TD*%
D37*
%TO.C,J2*%
X61849000Y-68453000D03*
D27*
X64389000Y-68453000D03*
X61849000Y-65913000D03*
X64389000Y-65913000D03*
X61849000Y-63373000D03*
X64389000Y-63373000D03*
X61849000Y-60833000D03*
X64389000Y-60833000D03*
X61849000Y-58293000D03*
X64389000Y-58293000D03*
%TD*%
D24*
%TO.C,C116*%
X36576000Y-33528000D03*
D25*
X36576000Y-28528000D03*
%TD*%
D22*
%TO.C,U9*%
X116840000Y-44323000D03*
D38*
X119380000Y-44323000D03*
X124460000Y-44323000D03*
X127000000Y-44323000D03*
X129540000Y-44323000D03*
%TD*%
D39*
%TO.C,U13*%
X137287000Y-46863000D03*
D40*
X137287000Y-49403000D03*
X137287000Y-51943000D03*
%TD*%
D41*
%TO.C,U5*%
X48974100Y-84709000D03*
D42*
X48974100Y-82169000D03*
X48974100Y-79629000D03*
X48974100Y-77089000D03*
X48974100Y-74549000D03*
X48974100Y-72009000D03*
X48974100Y-69469000D03*
X3254100Y-67246500D03*
X3254100Y-86931500D03*
%TD*%
D34*
%TO.C,U24*%
X97790000Y-32054000D03*
D35*
X96520000Y-28354000D03*
X95250000Y-32054000D03*
X93980000Y-28354000D03*
X92710000Y-32054000D03*
X91440000Y-28354000D03*
X90170000Y-32054000D03*
%TD*%
D24*
%TO.C,C140*%
X125984000Y-33655000D03*
D25*
X125984000Y-28655000D03*
%TD*%
D34*
%TO.C,U20*%
X53340000Y-32004000D03*
D35*
X52070000Y-28304000D03*
X50800000Y-32004000D03*
X49530000Y-28304000D03*
X48260000Y-32004000D03*
X46990000Y-28304000D03*
X45720000Y-32004000D03*
%TD*%
D43*
%TO.C,C63*%
X144272000Y-67564000D03*
D44*
X144272000Y-64064000D03*
%TD*%
D24*
%TO.C,C80*%
X18034000Y-43053000D03*
D25*
X18034000Y-38053000D03*
%TD*%
M02*
